<svg width="334" height="163" viewBox="0 0 334 163" fill="none" xmlns="http://www.w3.org/2000/svg">
<g filter="url(#filter0_ddd_1_221)">
<rect x="15" y="8.45312" width="64" height="64" rx="5" fill="white" shape-rendering="crispEdges"/>
<g clip-path="url(#clip0_1_221)">
<path d="M40.3333 59.1198C39.2725 59.1198 38.2551 58.6984 37.5049 57.9482C36.7548 57.1981 36.3333 56.1807 36.3333 55.1198V44.4531C36.3333 43.3923 36.7548 42.3748 37.5049 41.6247C38.2551 40.8746 39.2725 40.4531 40.3333 40.4531C41.3942 40.4531 42.4116 40.8746 43.1618 41.6247C43.9119 42.3748 44.3333 43.3923 44.3333 44.4531V55.1198C44.3333 57.3331 42.5467 59.1198 40.3333 59.1198ZM29.6667 48.4531C28.6058 48.4531 27.5884 48.0317 26.8382 47.2816C26.0881 46.5314 25.6667 45.514 25.6667 44.4531C25.6667 43.3923 26.0881 42.3748 26.8382 41.6247C27.5884 40.8746 28.6058 40.4531 29.6667 40.4531H33.6667V44.4531C33.6667 46.6665 31.88 48.4531 29.6667 48.4531Z" fill="#E01E5A"/>
<path d="M29.6667 29.7868H40.3333C41.3942 29.7868 42.4116 30.2082 43.1618 30.9584C43.9119 31.7085 44.3333 32.7259 44.3333 33.7868C44.3333 34.8477 43.9119 35.8651 43.1618 36.6152C42.4116 37.3654 41.3942 37.7868 40.3333 37.7868H29.6667C28.6058 37.7868 27.5884 37.3654 26.8382 36.6152C26.0881 35.8651 25.6667 34.8477 25.6667 33.7868C25.6667 32.7259 26.0881 31.7085 26.8382 30.9584C27.5884 30.2082 28.6058 29.7868 29.6667 29.7868V29.7868ZM40.3333 19.1201C42.5467 19.1201 44.3333 20.9068 44.3333 23.1201V27.1201H40.3333C39.2725 27.1201 38.2551 26.6987 37.5049 25.9485C36.7548 25.1984 36.3333 24.181 36.3333 23.1201C36.3333 22.0593 36.7548 21.0418 37.5049 20.2917C38.2551 19.5415 39.2725 19.1201 40.3333 19.1201V19.1201Z" fill="#36C5F0"/>
<path d="M51 40.4531H61.6667C62.7275 40.4531 63.7449 40.8746 64.4951 41.6247C65.2452 42.3748 65.6667 43.3923 65.6667 44.4531C65.6667 45.514 65.2452 46.5314 64.4951 47.2816C63.7449 48.0317 62.7275 48.4531 61.6667 48.4531H51C49.9391 48.4531 48.9217 48.0317 48.1716 47.2816C47.4214 46.5314 47 45.514 47 44.4531C47 43.3923 47.4214 42.3748 48.1716 41.6247C48.9217 40.8746 49.9391 40.4531 51 40.4531ZM51 59.1198C49.9391 59.1198 48.9217 58.6984 48.1716 57.9482C47.4214 57.1981 47 56.1807 47 55.1198V51.1198H51C52.0609 51.1198 53.0783 51.5412 53.8284 52.2914C54.5786 53.0415 55 54.0589 55 55.1198C55 56.1807 54.5786 57.1981 53.8284 57.9482C53.0783 58.6984 52.0609 59.1198 51 59.1198Z" fill="#ECB22E"/>
<path d="M51 19.1201C53.2133 19.1201 55 20.9068 55 23.1201V33.7868C55 34.8477 54.5786 35.8651 53.8284 36.6152C53.0783 37.3654 52.0609 37.7868 51 37.7868C49.9391 37.7868 48.9217 37.3654 48.1716 36.6152C47.4214 35.8651 47 34.8477 47 33.7868V23.1201C47 20.9068 48.7867 19.1201 51 19.1201ZM61.6667 29.7868C62.7275 29.7868 63.7449 30.2082 64.4951 30.9584C65.2452 31.7085 65.6667 32.7259 65.6667 33.7868C65.6667 34.8477 65.2452 35.8651 64.4951 36.6152C63.7449 37.3654 62.7275 37.7868 61.6667 37.7868H57.6667V33.7868C57.6667 31.5735 59.4533 29.7868 61.6667 29.7868Z" fill="#2EB67D"/>
</g>
</g>
<g filter="url(#filter1_ddd_1_221)">
<rect x="95" y="8.45312" width="64" height="64" rx="5" fill="white" shape-rendering="crispEdges"/>
<g clip-path="url(#clip1_1_221)">
<path d="M128.04 32.1644C129.863 32.1644 131.611 31.4402 132.9 30.1511C134.189 28.8621 134.913 27.1137 134.913 25.2907C134.913 23.4677 134.189 21.7193 132.9 20.4303C131.611 19.1412 129.863 18.417 128.04 18.417C126.217 18.417 124.469 19.1411 123.18 20.4301C121.891 21.7191 121.166 23.4673 121.166 25.2902C121.166 27.1131 121.891 28.8613 123.18 30.1503C124.469 31.4392 126.217 32.1634 128.04 32.1634V32.1644Z" fill="#7B83EB"/>
<path opacity="0.1" d="M127.548 26.7637H121.325L121.355 26.9005L121.358 26.9118L121.39 27.0384C121.843 28.7536 122.94 30.2278 124.454 31.1532C125.967 32.0786 127.779 32.3837 129.512 32.0049V28.7266C129.51 28.2064 129.303 27.708 128.935 27.3403C128.567 26.9726 128.069 26.7653 127.548 26.7637V26.7637Z" fill="black"/>
<path opacity="0.2" d="M126.076 28.2364H121.827C122.385 29.412 123.265 30.4051 124.364 31.1004C125.464 31.7958 126.739 32.1646 128.04 32.1642V30.1993C128.038 29.6789 127.831 29.1803 127.463 28.8124C127.095 28.4444 126.596 28.237 126.076 28.2354V28.2364Z" fill="black"/>
<path d="M143.506 32.6555C144.183 32.6555 144.853 32.5222 145.479 32.2631C146.104 32.004 146.673 31.6243 147.151 31.1456C147.63 30.6668 148.01 30.0985 148.269 29.473C148.528 28.8475 148.661 28.1771 148.661 27.5001C148.661 26.8231 148.528 26.1527 148.269 25.5272C148.01 24.9018 147.63 24.3334 147.151 23.8547C146.673 23.376 146.104 22.9962 145.479 22.7372C144.853 22.4781 144.183 22.3447 143.506 22.3447C142.139 22.3447 140.827 22.8879 139.86 23.8547C138.894 24.8215 138.35 26.1328 138.35 27.5001C138.35 28.8674 138.894 30.1787 139.86 31.1456C140.827 32.1124 142.139 32.6555 143.506 32.6555V32.6555ZM147.924 34.1282H136.346C136.222 34.1282 136.1 34.1526 135.985 34.1999C135.871 34.2472 135.767 34.3166 135.68 34.404C135.592 34.4914 135.523 34.5952 135.476 34.7095C135.428 34.8237 135.404 34.9462 135.404 35.0698V47.0157C135.372 48.7445 135.935 50.4317 136.998 51.7951C138.062 53.1584 139.561 54.115 141.246 54.5047C142.319 54.7298 143.429 54.7127 144.494 54.4547C145.56 54.1968 146.554 53.7045 147.406 53.0136C148.257 52.3227 148.944 51.4507 149.415 50.461C149.887 49.4713 150.132 48.3889 150.133 47.2925V36.3372C150.133 35.7514 149.9 35.1895 149.486 34.7752C149.072 34.361 148.51 34.1282 147.924 34.1282V34.1282Z" fill="#5059C9"/>
<path d="M139.823 36.337V50.3305C139.825 52.9239 138.971 55.4454 137.393 57.5036C135.815 59.5617 133.602 61.0415 131.097 61.7131C128.592 62.3846 125.936 62.2105 123.54 61.2176C121.144 60.2248 119.143 58.4688 117.847 56.2222C117.564 55.7509 117.318 55.2582 117.111 54.7485C116.917 54.2685 116.756 53.7763 116.625 53.2758C116.382 52.3128 116.259 51.3236 116.257 50.3305V36.337C116.257 36.0468 116.314 35.7595 116.424 35.4914C116.535 35.2232 116.698 34.9796 116.903 34.7744C117.108 34.5692 117.352 34.4065 117.62 34.2956C117.888 34.1846 118.175 34.1277 118.465 34.1279H137.614C137.904 34.1275 138.192 34.1844 138.46 34.2953C138.728 34.4061 138.972 34.5688 139.177 34.774C139.382 34.9792 139.545 35.2229 139.656 35.4911C139.767 35.7593 139.824 36.0467 139.823 36.337V36.337Z" fill="#7B83EB"/>
<path opacity="0.2" d="M126.076 28.2364H121.827C122.385 29.412 123.265 30.4051 124.364 31.1004C125.464 31.7958 126.739 32.1646 128.04 32.1642V30.1993C128.038 29.6789 127.831 29.1803 127.463 28.8124C127.095 28.4444 126.596 28.237 126.076 28.2354V28.2364Z" fill="black"/>
<path opacity="0.1" d="M129.512 34.1279V52.7897C129.512 53.2337 129.36 53.6642 129.081 54.0097C128.803 54.3553 128.414 54.5951 127.98 54.6893C127.843 54.7312 127.699 54.7506 127.554 54.7485H117.111C116.917 54.2685 116.756 53.7763 116.625 53.2758C116.382 52.3128 116.259 51.3236 116.257 50.3305V36.337C116.257 36.0467 116.314 35.7593 116.425 35.4911C116.535 35.2229 116.698 34.9792 116.903 34.774C117.109 34.5688 117.352 34.4061 117.62 34.2953C117.889 34.1844 118.176 34.1275 118.466 34.1279H129.512Z" fill="black"/>
<path opacity="0.2" d="M128.04 34.1279V54.2624C128.042 54.4074 128.022 54.5514 127.98 54.6903C127.886 55.1241 127.646 55.5127 127.301 55.7914C126.955 56.07 126.525 56.2221 126.081 56.2222H117.847C117.564 55.7509 117.318 55.2582 117.111 54.7485C116.917 54.2685 116.756 53.7763 116.625 53.2758C116.382 52.3128 116.259 51.3236 116.257 50.3305V36.337C116.257 36.0468 116.314 35.7595 116.424 35.4914C116.535 35.2232 116.698 34.9796 116.903 34.7744C117.108 34.5692 117.352 34.4065 117.62 34.2956C117.888 34.1846 118.175 34.1277 118.465 34.1279H128.04Z" fill="black"/>
<path opacity="0.2" d="M128.04 34.1279V51.316C128.038 51.8351 127.831 52.3325 127.464 52.6998C127.097 53.067 126.6 53.2744 126.081 53.2769H116.624C116.381 52.3135 116.258 51.324 116.256 50.3305V36.337C116.256 36.0467 116.313 35.7591 116.424 35.4909C116.535 35.2226 116.697 34.9789 116.903 34.7737C117.108 34.5685 117.352 34.4058 117.62 34.295C117.888 34.1842 118.176 34.1274 118.466 34.1279H128.04Z" fill="black"/>
<path opacity="0.2" d="M118.465 34.1279C118.175 34.1275 117.888 34.1844 117.619 34.2953C117.351 34.4061 117.107 34.5688 116.902 34.774C116.697 34.9792 116.534 35.2229 116.424 35.4911C116.313 35.7593 116.256 36.0467 116.256 36.337V50.3305C116.258 51.3232 116.382 52.3128 116.624 53.2758H124.608C125.127 53.2734 125.624 53.0663 125.991 52.6995C126.357 52.3326 126.565 51.8358 126.567 51.317V34.1279H118.465Z" fill="black"/>
<path d="M104.964 28.2364H124.603C125.124 28.2364 125.623 28.4433 125.992 28.8116C126.36 29.1799 126.567 29.6794 126.567 30.2003V49.8394C126.567 50.3603 126.36 50.8598 125.992 51.2281C125.623 51.5964 125.124 51.8034 124.603 51.8034H104.964C104.706 51.8034 104.45 51.7525 104.212 51.6538C103.974 51.555 103.757 51.4102 103.575 51.2278C103.392 51.0453 103.248 50.8287 103.149 50.5903C103.051 50.3519 103 50.0964 103 49.8384V30.1993C103 29.6784 103.207 29.1789 103.575 28.8106C103.944 28.4423 104.443 28.2354 104.964 28.2354V28.2364Z" fill="#4B53BC"/>
<path d="M120.645 35.5646H116.243V47.3777H113.35V35.5646H108.921V32.6621H120.646L120.645 35.5646Z" fill="white"/>
</g>
</g>
<g filter="url(#filter2_ddd_1_221)">
<rect x="175" y="8.45312" width="64" height="64" rx="5" fill="white" shape-rendering="crispEdges"/>
<g clip-path="url(#clip2_1_221)">
<path d="M207 19.1201C201.934 19.119 197.032 20.921 193.173 24.2036C189.314 27.4862 186.749 32.0351 185.937 37.0361C185.126 42.0371 186.121 47.1637 188.744 51.4982C191.367 55.8328 195.447 59.0923 200.253 60.6935C201.32 60.8801 201.72 60.2401 201.72 59.6801L201.693 55.7068C196.333 56.6935 194.947 54.4001 194.52 53.2001C194.28 52.5868 193.24 50.6935 192.333 50.1868C191.587 49.7868 190.52 48.8001 192.307 48.7735C193.987 48.7468 195.187 50.3201 195.587 50.9601C197.507 54.1868 200.573 53.2801 201.8 52.7201C201.987 51.3335 202.547 50.4001 203.16 49.8668C198.413 49.3335 193.453 47.4935 193.453 39.3335C193.453 37.0135 194.28 35.0935 195.64 33.6001C195.427 33.0668 194.68 30.8801 195.853 27.9468C195.853 27.9468 197.64 27.3868 201.72 30.1335C205.209 29.157 208.898 29.157 212.387 30.1335C216.467 27.3601 218.253 27.9468 218.253 27.9468C219.427 30.8801 218.68 33.0668 218.467 33.6001C219.827 35.0935 220.653 36.9868 220.653 39.3335C220.653 47.5201 215.667 49.3335 210.92 49.8668C211.693 50.5335 212.36 51.8135 212.36 53.8135L212.333 59.6801C212.333 60.2401 212.733 60.9068 213.8 60.6935C218.578 59.0614 222.624 55.7893 225.219 51.4577C227.815 47.1261 228.791 42.0152 227.976 37.0319C227.161 32.0486 224.607 27.5152 220.767 24.2362C216.927 20.9572 212.049 19.1446 207 19.1201V19.1201Z" fill="#0C0D0E"/>
</g>
</g>
<g filter="url(#filter3_ddd_1_221)">
<rect x="255" y="8.45312" width="64" height="64" rx="5" fill="white" shape-rendering="crispEdges"/>
<g clip-path="url(#clip3_1_221)">
<path d="M306.627 19.1201H286.413C286.413 21.5389 287.374 23.8586 289.085 25.5689C290.795 27.2793 293.115 28.2401 295.533 28.2401H299.267V31.8401C299.26 34.2543 300.21 36.5728 301.91 38.2874C303.609 40.0019 305.919 40.9727 308.333 40.9868V20.8801C308.334 20.4224 308.155 19.9827 307.837 19.6541C307.518 19.3255 307.084 19.134 306.627 19.1201Z" fill="#2684FF"/>
<path d="M295.88 29.7861H275.64C275.636 30.986 275.87 32.1748 276.327 33.2844C276.783 34.394 277.455 35.4025 278.302 36.2522C279.149 37.1019 280.156 37.776 281.264 38.236C282.372 38.696 283.56 38.9328 284.76 38.9328H288.493V42.5328C288.493 44.9516 289.454 47.2713 291.165 48.9816C292.875 50.6919 295.195 51.6528 297.613 51.6528V31.5461C297.613 31.0839 297.432 30.6403 297.107 30.311C296.783 29.9817 296.342 29.7931 295.88 29.7861V29.7861Z" fill="url(#paint0_linear_1_221)"/>
<path d="M285.293 40.4531H265.027C265.027 41.6553 265.264 42.8456 265.726 43.9556C266.188 45.0655 266.864 46.0733 267.717 46.9209C268.569 47.7684 269.581 48.4391 270.694 48.8943C271.806 49.3494 272.998 49.5802 274.2 49.5731H277.933V53.1731C277.93 54.373 278.163 55.5618 278.62 56.6714C279.077 57.781 279.748 58.7895 280.595 59.6392C281.442 60.4889 282.449 61.163 283.557 61.623C284.665 62.083 285.853 62.3198 287.053 62.3198V42.2131C287.053 41.7463 286.868 41.2987 286.538 40.9686C286.208 40.6386 285.76 40.4531 285.293 40.4531Z" fill="url(#paint1_linear_1_221)"/>
</g>
</g>
<g filter="url(#filter4_ddd_1_221)">
<rect x="135" y="88.4531" width="64" height="64" rx="5" fill="white" shape-rendering="crispEdges"/>
<g clip-path="url(#clip4_1_221)">
<path d="M167 141.787C172.658 141.787 178.084 139.539 182.085 135.538C186.086 131.538 188.333 126.111 188.333 120.453C188.333 114.795 186.086 109.369 182.085 105.369C178.084 101.368 172.658 99.1201 167 99.1201C161.342 99.1201 155.916 101.368 151.915 105.369C147.914 109.369 145.667 114.795 145.667 120.453C145.667 126.111 147.914 131.538 151.915 135.538C155.916 139.539 161.342 141.787 167 141.787V141.787ZM167 131.12C164.171 131.12 161.458 129.996 159.458 127.996C157.457 125.996 156.333 123.282 156.333 120.453C156.333 117.624 157.457 114.911 159.458 112.911C161.458 110.911 164.171 109.787 167 109.787C169.829 109.787 172.542 110.911 174.542 112.911C176.543 114.911 177.667 117.624 177.667 120.453C177.667 123.282 176.543 125.996 174.542 127.996C172.542 129.996 169.829 131.12 167 131.12Z" fill="#007DC1"/>
</g>
</g>
<defs>
<filter id="filter0_ddd_1_221" x="7" y="2.45312" width="80" height="80" filterUnits="userSpaceOnUse" color-interpolation-filters="sRGB">
<feFlood flood-opacity="0" result="BackgroundImageFix"/>
<feColorMatrix in="SourceAlpha" type="matrix" values="0 0 0 0 0 0 0 0 0 0 0 0 0 0 0 0 0 0 127 0" result="hardAlpha"/>
<feOffset dy="2"/>
<feGaussianBlur stdDeviation="4"/>
<feComposite in2="hardAlpha" operator="out"/>
<feColorMatrix type="matrix" values="0 0 0 0 0 0 0 0 0 0 0 0 0 0 0 0 0 0 0.05 0"/>
<feBlend mode="normal" in2="BackgroundImageFix" result="effect1_dropShadow_1_221"/>
<feColorMatrix in="SourceAlpha" type="matrix" values="0 0 0 0 0 0 0 0 0 0 0 0 0 0 0 0 0 0 127 0" result="hardAlpha"/>
<feOffset dy="1"/>
<feGaussianBlur stdDeviation="2"/>
<feComposite in2="hardAlpha" operator="out"/>
<feColorMatrix type="matrix" values="0 0 0 0 0 0 0 0 0 0 0 0 0 0 0 0 0 0 0.05 0"/>
<feBlend mode="normal" in2="effect1_dropShadow_1_221" result="effect2_dropShadow_1_221"/>
<feColorMatrix in="SourceAlpha" type="matrix" values="0 0 0 0 0 0 0 0 0 0 0 0 0 0 0 0 0 0 127 0" result="hardAlpha"/>
<feOffset dy="1"/>
<feGaussianBlur stdDeviation="1"/>
<feComposite in2="hardAlpha" operator="out"/>
<feColorMatrix type="matrix" values="0 0 0 0 0 0 0 0 0 0 0 0 0 0 0 0 0 0 0.05 0"/>
<feBlend mode="normal" in2="effect2_dropShadow_1_221" result="effect3_dropShadow_1_221"/>
<feBlend mode="normal" in="SourceGraphic" in2="effect3_dropShadow_1_221" result="shape"/>
</filter>
<filter id="filter1_ddd_1_221" x="87" y="2.45312" width="80" height="80" filterUnits="userSpaceOnUse" color-interpolation-filters="sRGB">
<feFlood flood-opacity="0" result="BackgroundImageFix"/>
<feColorMatrix in="SourceAlpha" type="matrix" values="0 0 0 0 0 0 0 0 0 0 0 0 0 0 0 0 0 0 127 0" result="hardAlpha"/>
<feOffset dy="2"/>
<feGaussianBlur stdDeviation="4"/>
<feComposite in2="hardAlpha" operator="out"/>
<feColorMatrix type="matrix" values="0 0 0 0 0 0 0 0 0 0 0 0 0 0 0 0 0 0 0.05 0"/>
<feBlend mode="normal" in2="BackgroundImageFix" result="effect1_dropShadow_1_221"/>
<feColorMatrix in="SourceAlpha" type="matrix" values="0 0 0 0 0 0 0 0 0 0 0 0 0 0 0 0 0 0 127 0" result="hardAlpha"/>
<feOffset dy="1"/>
<feGaussianBlur stdDeviation="2"/>
<feComposite in2="hardAlpha" operator="out"/>
<feColorMatrix type="matrix" values="0 0 0 0 0 0 0 0 0 0 0 0 0 0 0 0 0 0 0.05 0"/>
<feBlend mode="normal" in2="effect1_dropShadow_1_221" result="effect2_dropShadow_1_221"/>
<feColorMatrix in="SourceAlpha" type="matrix" values="0 0 0 0 0 0 0 0 0 0 0 0 0 0 0 0 0 0 127 0" result="hardAlpha"/>
<feOffset dy="1"/>
<feGaussianBlur stdDeviation="1"/>
<feComposite in2="hardAlpha" operator="out"/>
<feColorMatrix type="matrix" values="0 0 0 0 0 0 0 0 0 0 0 0 0 0 0 0 0 0 0.05 0"/>
<feBlend mode="normal" in2="effect2_dropShadow_1_221" result="effect3_dropShadow_1_221"/>
<feBlend mode="normal" in="SourceGraphic" in2="effect3_dropShadow_1_221" result="shape"/>
</filter>
<filter id="filter2_ddd_1_221" x="167" y="2.45312" width="80" height="80" filterUnits="userSpaceOnUse" color-interpolation-filters="sRGB">
<feFlood flood-opacity="0" result="BackgroundImageFix"/>
<feColorMatrix in="SourceAlpha" type="matrix" values="0 0 0 0 0 0 0 0 0 0 0 0 0 0 0 0 0 0 127 0" result="hardAlpha"/>
<feOffset dy="2"/>
<feGaussianBlur stdDeviation="4"/>
<feComposite in2="hardAlpha" operator="out"/>
<feColorMatrix type="matrix" values="0 0 0 0 0 0 0 0 0 0 0 0 0 0 0 0 0 0 0.05 0"/>
<feBlend mode="normal" in2="BackgroundImageFix" result="effect1_dropShadow_1_221"/>
<feColorMatrix in="SourceAlpha" type="matrix" values="0 0 0 0 0 0 0 0 0 0 0 0 0 0 0 0 0 0 127 0" result="hardAlpha"/>
<feOffset dy="1"/>
<feGaussianBlur stdDeviation="2"/>
<feComposite in2="hardAlpha" operator="out"/>
<feColorMatrix type="matrix" values="0 0 0 0 0 0 0 0 0 0 0 0 0 0 0 0 0 0 0.05 0"/>
<feBlend mode="normal" in2="effect1_dropShadow_1_221" result="effect2_dropShadow_1_221"/>
<feColorMatrix in="SourceAlpha" type="matrix" values="0 0 0 0 0 0 0 0 0 0 0 0 0 0 0 0 0 0 127 0" result="hardAlpha"/>
<feOffset dy="1"/>
<feGaussianBlur stdDeviation="1"/>
<feComposite in2="hardAlpha" operator="out"/>
<feColorMatrix type="matrix" values="0 0 0 0 0 0 0 0 0 0 0 0 0 0 0 0 0 0 0.05 0"/>
<feBlend mode="normal" in2="effect2_dropShadow_1_221" result="effect3_dropShadow_1_221"/>
<feBlend mode="normal" in="SourceGraphic" in2="effect3_dropShadow_1_221" result="shape"/>
</filter>
<filter id="filter3_ddd_1_221" x="247" y="2.45312" width="80" height="80" filterUnits="userSpaceOnUse" color-interpolation-filters="sRGB">
<feFlood flood-opacity="0" result="BackgroundImageFix"/>
<feColorMatrix in="SourceAlpha" type="matrix" values="0 0 0 0 0 0 0 0 0 0 0 0 0 0 0 0 0 0 127 0" result="hardAlpha"/>
<feOffset dy="2"/>
<feGaussianBlur stdDeviation="4"/>
<feComposite in2="hardAlpha" operator="out"/>
<feColorMatrix type="matrix" values="0 0 0 0 0 0 0 0 0 0 0 0 0 0 0 0 0 0 0.05 0"/>
<feBlend mode="normal" in2="BackgroundImageFix" result="effect1_dropShadow_1_221"/>
<feColorMatrix in="SourceAlpha" type="matrix" values="0 0 0 0 0 0 0 0 0 0 0 0 0 0 0 0 0 0 127 0" result="hardAlpha"/>
<feOffset dy="1"/>
<feGaussianBlur stdDeviation="2"/>
<feComposite in2="hardAlpha" operator="out"/>
<feColorMatrix type="matrix" values="0 0 0 0 0 0 0 0 0 0 0 0 0 0 0 0 0 0 0.05 0"/>
<feBlend mode="normal" in2="effect1_dropShadow_1_221" result="effect2_dropShadow_1_221"/>
<feColorMatrix in="SourceAlpha" type="matrix" values="0 0 0 0 0 0 0 0 0 0 0 0 0 0 0 0 0 0 127 0" result="hardAlpha"/>
<feOffset dy="1"/>
<feGaussianBlur stdDeviation="1"/>
<feComposite in2="hardAlpha" operator="out"/>
<feColorMatrix type="matrix" values="0 0 0 0 0 0 0 0 0 0 0 0 0 0 0 0 0 0 0.05 0"/>
<feBlend mode="normal" in2="effect2_dropShadow_1_221" result="effect3_dropShadow_1_221"/>
<feBlend mode="normal" in="SourceGraphic" in2="effect3_dropShadow_1_221" result="shape"/>
</filter>
<filter id="filter4_ddd_1_221" x="127" y="82.4531" width="80" height="80" filterUnits="userSpaceOnUse" color-interpolation-filters="sRGB">
<feFlood flood-opacity="0" result="BackgroundImageFix"/>
<feColorMatrix in="SourceAlpha" type="matrix" values="0 0 0 0 0 0 0 0 0 0 0 0 0 0 0 0 0 0 127 0" result="hardAlpha"/>
<feOffset dy="2"/>
<feGaussianBlur stdDeviation="4"/>
<feComposite in2="hardAlpha" operator="out"/>
<feColorMatrix type="matrix" values="0 0 0 0 0 0 0 0 0 0 0 0 0 0 0 0 0 0 0.05 0"/>
<feBlend mode="normal" in2="BackgroundImageFix" result="effect1_dropShadow_1_221"/>
<feColorMatrix in="SourceAlpha" type="matrix" values="0 0 0 0 0 0 0 0 0 0 0 0 0 0 0 0 0 0 127 0" result="hardAlpha"/>
<feOffset dy="1"/>
<feGaussianBlur stdDeviation="2"/>
<feComposite in2="hardAlpha" operator="out"/>
<feColorMatrix type="matrix" values="0 0 0 0 0 0 0 0 0 0 0 0 0 0 0 0 0 0 0.05 0"/>
<feBlend mode="normal" in2="effect1_dropShadow_1_221" result="effect2_dropShadow_1_221"/>
<feColorMatrix in="SourceAlpha" type="matrix" values="0 0 0 0 0 0 0 0 0 0 0 0 0 0 0 0 0 0 127 0" result="hardAlpha"/>
<feOffset dy="1"/>
<feGaussianBlur stdDeviation="1"/>
<feComposite in2="hardAlpha" operator="out"/>
<feColorMatrix type="matrix" values="0 0 0 0 0 0 0 0 0 0 0 0 0 0 0 0 0 0 0.05 0"/>
<feBlend mode="normal" in2="effect2_dropShadow_1_221" result="effect3_dropShadow_1_221"/>
<feBlend mode="normal" in="SourceGraphic" in2="effect3_dropShadow_1_221" result="shape"/>
</filter>
<linearGradient id="paint0_linear_1_221" x1="297.187" y1="29.8395" x2="288.6" y2="38.6928" gradientUnits="userSpaceOnUse">
<stop offset="0.18" stop-color="#0052CC"/>
<stop offset="1" stop-color="#2684FF"/>
</linearGradient>
<linearGradient id="paint1_linear_1_221" x1="1187.4" y1="888.533" x2="825.24" y2="1243.57" gradientUnits="userSpaceOnUse">
<stop offset="0.18" stop-color="#0052CC"/>
<stop offset="1" stop-color="#2684FF"/>
</linearGradient>
<clipPath id="clip0_1_221">
<rect width="48" height="48" fill="white" transform="translate(23 16.4531)"/>
</clipPath>
<clipPath id="clip1_1_221">
<rect width="48" height="48" fill="white" transform="translate(103 16.4531)"/>
</clipPath>
<clipPath id="clip2_1_221">
<rect width="48" height="48" fill="white" transform="translate(183 16.4531)"/>
</clipPath>
<clipPath id="clip3_1_221">
<rect width="48" height="48" fill="white" transform="translate(263 16.4531)"/>
</clipPath>
<clipPath id="clip4_1_221">
<rect width="48" height="48" fill="white" transform="translate(143 96.4531)"/>
</clipPath>
</defs>
</svg>
