<svg width="96" height="97" viewBox="0 0 96 97" fill="none" xmlns="http://www.w3.org/2000/svg">
<path opacity="0.2" d="M86 26.7344C87.7239 26.7344 89.3772 26.0496 90.5962 24.8306C91.8152 23.6116 92.5 21.9583 92.5 20.2344C92.5 18.5105 91.8152 16.8572 90.5962 15.6382C89.3772 14.4192 87.7239 13.7344 86 13.7344C84.2761 13.7344 82.6228 14.4192 81.4038 15.6382C80.1848 16.8572 79.5 18.5105 79.5 20.2344C79.5 21.9583 80.1848 23.6116 81.4038 24.8306C82.6228 26.0496 84.2761 26.7344 86 26.7344ZM34 51.7344C35.7239 51.7344 37.3772 51.0496 38.5962 49.8306C39.8152 48.6116 40.5 46.9583 40.5 45.2344C40.5 43.5105 39.8152 41.8572 38.5962 40.6382C37.3772 39.4192 35.7239 38.7344 34 38.7344C32.2761 38.7344 30.6228 39.4192 29.4038 40.6382C28.1848 41.8572 27.5 43.5105 27.5 45.2344C27.5 46.9583 28.1848 48.6116 29.4038 49.8306C30.6228 51.0496 32.2761 51.7344 34 51.7344V51.7344ZM19 91.7344C20.7239 91.7344 22.3772 91.0496 23.5962 89.8306C24.8152 88.6116 25.5 86.9583 25.5 85.2344C25.5 83.5105 24.8152 81.8572 23.5962 80.6382C22.3772 79.4192 20.7239 78.7344 19 78.7344C17.2761 78.7344 15.6228 79.4192 14.4038 80.6382C13.1848 81.8572 12.5 83.5105 12.5 85.2344C12.5 86.9583 13.1848 88.6116 14.4038 89.8306C15.6228 91.0496 17.2761 91.7344 19 91.7344V91.7344ZM72.5 60.2344C72.5 61.9583 71.8152 63.6116 70.5962 64.8306C69.3772 66.0496 67.7239 66.7344 66 66.7344C64.2761 66.7344 62.6228 66.0496 61.4038 64.8306C60.1848 63.6116 59.5 61.9583 59.5 60.2344C59.5 58.5105 60.1848 56.8572 61.4038 55.6382C62.6228 54.4192 64.2761 53.7344 66 53.7344C67.7239 53.7344 69.3772 54.4192 70.5962 55.6382C71.8152 56.8572 72.5 58.5105 72.5 60.2344V60.2344Z" fill="#9FA6AD"/>
<path d="M75 17.2345C75.0008 15.5876 75.5098 13.9812 76.4575 12.6344C77.4052 11.2876 78.7455 10.2661 80.2954 9.70933C81.8453 9.15257 83.5292 9.0877 85.1173 9.52355C86.7054 9.95941 88.1203 10.8748 89.1689 12.1447C90.2174 13.4145 90.8485 14.9771 90.976 16.619C91.1035 18.2609 90.7212 19.9021 89.8812 21.3186C89.0412 22.7351 87.7846 23.8579 86.2828 24.5337C84.781 25.2095 83.1072 25.4053 81.49 25.0945L68.04 51.0245C69.3344 52.0605 70.274 53.474 70.7282 55.0686C71.1824 56.6631 71.1287 58.3596 70.5744 59.9222C70.0202 61.4848 68.993 62.836 67.6356 63.788C66.2782 64.74 64.658 65.2456 63 65.2345C61.8179 65.2347 60.6504 64.973 59.5815 64.4681C58.5126 63.9632 57.5689 63.2277 56.8183 62.3145C56.0677 61.4013 55.5287 60.3331 55.2402 59.1867C54.9518 58.0403 54.921 56.8442 55.15 55.6845L38.15 45.8445C37.3736 47.3834 36.1209 48.6304 34.5785 49.3998C33.0361 50.1692 31.2864 50.4199 29.59 50.1145L20.21 75.4345C21.9005 76.4868 23.1377 78.1318 23.6799 80.0478C24.222 81.9639 24.0302 84.0132 23.1417 85.7953C22.2533 87.5774 20.7322 88.9641 18.8758 89.6844C17.0193 90.4046 14.961 90.4066 13.1031 89.69C11.2453 88.9734 9.72146 87.5897 8.82953 85.8094C7.9376 84.0291 7.74169 81.9801 8.28009 80.063C8.81849 78.1459 10.0525 76.4985 11.7409 75.4428C13.4293 74.3871 15.4507 73.9991 17.41 74.3545L26.79 49.0345C25.5829 48.2865 24.5968 47.2306 23.9327 45.9754C23.2686 44.7203 22.9507 43.3109 23.0114 41.8922C23.0721 40.4734 23.5094 39.0964 24.2783 37.9026C25.0472 36.7087 26.12 35.7411 27.3866 35.099C28.6532 34.4568 30.0678 34.1634 31.4853 34.2489C32.9028 34.3343 34.2719 34.7954 35.4522 35.585C36.6325 36.3746 37.5814 37.4641 38.2013 38.7416C38.8213 40.0192 39.0901 41.4387 38.98 42.8545L56.28 52.8745C57.2333 51.407 58.6414 50.2925 60.2887 49.7019C61.936 49.1113 63.7314 49.0771 65.4 49.6045L78.69 23.9745C77.5587 23.251 76.6277 22.2544 75.9828 21.0765C75.3379 19.8986 75 18.5773 75 17.2345V17.2345ZM83 12.2345C81.6739 12.2345 80.4021 12.7613 79.4645 13.6989C78.5268 14.6366 78 15.9084 78 17.2345C78 18.5606 78.5268 19.8323 79.4645 20.77C80.4021 21.7077 81.6739 22.2345 83 22.2345C84.3261 22.2345 85.5979 21.7077 86.5355 20.77C87.4732 19.8323 88 18.5606 88 17.2345C88 15.9084 87.4732 14.6366 86.5355 13.6989C85.5979 12.7613 84.3261 12.2345 83 12.2345ZM31 37.2345C29.6739 37.2345 28.4021 37.7613 27.4645 38.6989C26.5268 39.6366 26 40.9084 26 42.2345C26 43.5606 26.5268 44.8323 27.4645 45.77C28.4021 46.7077 29.6739 47.2345 31 47.2345C32.3261 47.2345 33.5979 46.7077 34.5355 45.77C35.4732 44.8323 36 43.5606 36 42.2345C36 40.9084 35.4732 39.6366 34.5355 38.6989C33.5979 37.7613 32.3261 37.2345 31 37.2345ZM16 77.2345C14.6739 77.2345 13.4021 77.7613 12.4645 78.6989C11.5268 79.6366 11 80.9084 11 82.2345C11 83.5606 11.5268 84.8323 12.4645 85.77C13.4021 86.7077 14.6739 87.2345 16 87.2345C17.3261 87.2345 18.5979 86.7077 19.5355 85.77C20.4732 84.8323 21 83.5606 21 82.2345C21 80.9084 20.4732 79.6366 19.5355 78.6989C18.5979 77.7613 17.3261 77.2345 16 77.2345V77.2345ZM58 57.2345C58 58.5606 58.5268 59.8323 59.4645 60.77C60.4021 61.7077 61.6739 62.2345 63 62.2345C64.3261 62.2345 65.5979 61.7077 66.5355 60.77C67.4732 59.8323 68 58.5606 68 57.2345C68 55.9084 67.4732 54.6366 66.5355 53.699C65.5979 52.7613 64.3261 52.2345 63 52.2345C61.6739 52.2345 60.4021 52.7613 59.4645 53.699C58.5268 54.6366 58 55.9084 58 57.2345V57.2345Z" fill="#9FA6AD"/>
</svg>
