<svg width="19" height="19" viewBox="0 0 19 19" fill="none" xmlns="http://www.w3.org/2000/svg">
<path d="M18.9219 17L13.7819 11.82H13.4319C14.5323 10.4164 15.0554 8.64566 14.8945 6.86939C14.7335 5.09311 13.9006 3.44527 12.5657 2.26234C11.2309 1.07941 9.49492 0.450602 7.71218 0.504324C5.92943 0.558045 4.23443 1.29024 2.97327 2.5514C1.71211 3.81256 0.979916 5.50756 0.926195 7.29031C0.872474 9.07305 1.50128 10.8091 2.68421 12.1439C3.86715 13.4787 5.51498 14.3116 7.29126 14.4726C9.06753 14.6335 10.8383 14.1104 12.2419 13.01V13.36L17.4219 18.5L18.9219 17ZM12.9219 7.5C12.9219 8.82609 12.3951 10.0979 11.4574 11.0355C10.5197 11.9732 9.24796 12.5 7.92187 12.5C6.59579 12.5 5.32402 11.9732 4.38634 11.0355C3.44866 10.0979 2.92187 8.82609 2.92187 7.5C2.92187 6.17392 3.44866 4.90215 4.38634 3.96447C5.32402 3.02679 6.59579 2.5 7.92187 2.5C9.24796 2.5 10.5197 3.02679 11.4574 3.96447C12.3951 4.90215 12.9219 6.17392 12.9219 7.5V7.5Z" fill="#525960"/>
</svg>
