<svg width="334" height="223" viewBox="0 0 334 223" fill="none" xmlns="http://www.w3.org/2000/svg">
<g clip-path="url(#clip0_1_428)">
<path d="M163.622 222.269C220.299 222.269 266.245 177.773 266.245 122.884C266.245 67.9959 220.299 23.5 163.622 23.5C106.946 23.5 61 67.9959 61 122.884C61 177.773 106.946 222.269 163.622 222.269Z" fill="#6CBBF7"/>
<mask id="mask0_1_428" style="mask-type:luminance" maskUnits="userSpaceOnUse" x="61" y="23" width="206" height="200">
<path d="M163.622 222.269C220.299 222.269 266.245 177.773 266.245 122.884C266.245 67.9959 220.299 23.5 163.622 23.5C106.946 23.5 61 67.9959 61 122.884C61 177.773 106.946 222.269 163.622 222.269Z" fill="#6CBBF7"/>
</mask>
<g mask="url(#mask0_1_428)">
<path opacity="0.4" d="M137.92 109.79C158.26 103.718 145.726 101.654 160.181 89.3629C174.637 77.0709 158.581 56.6438 155.256 50.2474C151.932 43.851 141.958 47.2998 135.014 45.5606C128.069 43.8215 121.248 30.9403 121.248 30.9403C121.248 30.9403 121.224 30.9108 121.199 30.8813C92.6331 43.9984 70.7165 69.6135 62.1468 100.917L66.6288 105.427C66.6288 105.457 91.4513 123.673 137.92 109.79Z" fill="#DCF0E2"/>
<path opacity="0.4" d="M200.887 41.3161C197.268 49.2747 195.544 51.3675 198.129 57.2333C200.74 63.1287 204.212 67.1081 202.759 71.9421C201.306 76.7761 195.519 74.713 196.824 80.0778C198.129 85.4422 202.759 86.474 202.759 86.474C202.759 86.474 225.611 85.2654 236.447 87.1518C247.282 89.0681 245.411 103.246 250.483 101.36C254.177 99.9741 263.634 105.221 268.485 104.779C261.097 73.3863 240.387 47.2408 212.782 33.0037C208.62 34.1828 203.055 36.5998 200.887 41.3161V41.3161Z" fill="#DCF0E2"/>
<path opacity="0.4" d="M153.016 22.8638C153.016 22.8638 164.048 37.602 170.992 37.602C177.937 37.602 181.187 37.7199 185.669 35.3028C190.151 32.8857 188.698 31.1466 189.289 29.9381C189.56 29.3486 190.964 27.2263 192.515 25.1039C183.699 22.6869 174.415 21.3899 164.86 21.3899C161.684 21.3899 158.532 21.5373 155.429 21.8026C151.341 22.8048 153.016 22.8638 153.016 22.8638V22.8638Z" fill="#DCF0E2"/>
<path opacity="0.4" d="M182.532 121.887C169.972 117.117 187.765 93.214 198.231 81.858L257.946 77.0322C262.058 87.0631 270.281 109.396 270.281 118.48C270.281 129.835 254.862 130.119 250.937 127.848C247.012 125.577 225.986 118.48 221.781 120.467C217.576 122.455 198.231 127.848 182.532 121.887V121.887Z" fill="#DCF0E2"/>
<path opacity="0.4" d="M192.076 136.153C171.835 142.196 184.308 144.249 169.923 156.481C155.539 168.712 171.516 189.041 174.825 195.405C178.133 201.771 188.058 198.339 194.968 200.07C201.879 201.8 208.667 214.619 208.667 214.619C208.667 214.619 208.692 214.648 208.716 214.678C237.143 201.624 258.953 176.134 267.481 144.982L263.021 140.494C263.021 140.465 238.319 122.337 192.076 136.153V136.153Z" fill="#DCF0E2"/>
<path opacity="0.4" d="M129.318 205.675C133.024 197.513 134.789 195.367 132.142 189.351C129.469 183.305 125.915 179.223 127.403 174.265C128.889 169.308 134.814 171.424 133.478 165.921C132.142 160.419 127.403 159.361 127.403 159.361C127.403 159.361 128.234 112.234 117.142 110.3C106.05 108.334 85.9751 105.745 80.7819 107.679C78.3569 108.59 69.4151 113.473 62.4143 118.743C56.9613 119.617 59.3641 137.377 60.1181 140.588C67.6812 172.784 88.8825 199.599 117.142 214.201C121.403 212.992 127.1 210.512 129.318 205.675V205.675Z" fill="#DCF0E2"/>
<path opacity="0.4" d="M177.054 222.656C177.054 222.656 166.076 207.99 159.165 207.99C152.254 207.99 149.02 207.872 144.559 210.277C140.1 212.683 141.545 214.414 140.957 215.616C140.688 216.203 139.291 218.315 137.747 220.427C146.52 222.832 155.759 224.123 165.267 224.123C168.428 224.123 171.565 223.976 174.653 223.712C178.721 222.715 177.054 222.656 177.054 222.656Z" fill="#DCF0E2"/>
</g>
<path d="M257.835 129.159C258.831 129.159 259.639 128.351 259.639 127.355C259.639 126.358 258.831 125.551 257.835 125.551C256.838 125.551 256.031 126.358 256.031 127.355C256.031 128.351 256.838 129.159 257.835 129.159Z" fill="#E7FFE4" stroke="#6ECB64" stroke-width="1.03082"/>
<path d="M238.643 169.876C239.497 169.876 240.189 169.183 240.189 168.329C240.189 167.475 239.497 166.783 238.643 166.783C237.789 166.783 237.097 167.475 237.097 168.329C237.097 169.183 237.789 169.876 238.643 169.876Z" fill="#FEE3CF" stroke="#F48024" stroke-width="1.03082"/>
<path d="M231.033 66.7941C232.03 66.7941 232.837 65.9865 232.837 64.9902C232.837 63.9939 232.03 63.1863 231.033 63.1863C230.037 63.1863 229.23 63.9939 229.23 64.9902C229.23 65.9865 230.037 66.7941 231.033 66.7941Z" fill="#E7FFE4" stroke="#6ECB64" stroke-width="1.03082"/>
<path d="M96.7698 53.3936C97.6238 53.3936 98.316 52.7013 98.316 51.8474C98.316 50.9934 97.6238 50.3011 96.7698 50.3011C95.9158 50.3011 95.2236 50.9934 95.2236 51.8474C95.2236 52.7013 95.9158 53.3936 96.7698 53.3936Z" fill="#FEE3CF" stroke="#F48024" stroke-width="1.03082"/>
<path d="M78.4728 130.189C79.4691 130.189 80.2768 129.382 80.2768 128.385C80.2768 127.389 79.4691 126.581 78.4728 126.581C77.4766 126.581 76.6689 127.389 76.6689 128.385C76.6689 129.382 77.4766 130.189 78.4728 130.189Z" fill="#FEE3CF" stroke="#F48024" stroke-width="1.03082"/>
<path d="M238.059 49.8914C238.059 49.2638 237.55 48.755 236.922 48.755H226.243C225.615 48.755 225.106 49.2638 225.106 49.8914V57.2384C225.106 57.866 225.615 58.3748 226.243 58.3748H228.918C229.235 58.3748 229.538 58.5075 229.753 58.7408L230.765 59.8376C231.204 60.3135 231.951 60.3271 232.407 59.8674L233.554 58.7109C233.768 58.4958 234.058 58.3748 234.361 58.3748H236.922C237.55 58.3748 238.059 57.866 238.059 57.2384V49.8914Z" fill="white"/>
<path d="M237.544 49.8914C237.544 49.5484 237.265 49.2704 236.922 49.2704H226.243C225.9 49.2704 225.622 49.5484 225.622 49.8914V57.2384C225.622 57.5813 225.9 57.8593 226.243 57.8593H228.918C229.379 57.8593 229.82 58.0522 230.132 58.3913L231.144 59.4881C231.383 59.7483 231.792 59.7557 232.041 59.5045L233.188 58.3479C233.499 58.0352 233.921 57.8593 234.361 57.8593H236.922C237.265 57.8593 237.544 57.5813 237.544 57.2384V49.8914Z" stroke="#C8CCD0" stroke-width="1.03082"/>
<path d="M235.289 52.0113L234.451 51.1884L230.529 55.0344L228.989 53.5228L228.15 54.3458L230.529 56.6803L235.289 52.0113Z" fill="#6ECB64"/>
<path d="M119.515 186.99C119.515 186.362 119.007 185.853 118.379 185.853H107.699C107.072 185.853 106.563 186.362 106.563 186.99V193.936C106.563 194.564 107.072 195.072 107.699 195.072H110.388C110.698 195.072 110.993 195.198 111.207 195.421L112.237 196.491C112.673 196.943 113.394 196.957 113.846 196.52L115.014 195.392C115.226 195.187 115.508 195.072 115.803 195.072H118.379C119.007 195.072 119.515 194.564 119.515 193.936V186.99Z" fill="white"/>
<path d="M119 186.99C119 186.647 118.722 186.369 118.379 186.369H107.699C107.356 186.369 107.078 186.647 107.078 186.99V193.936C107.078 194.279 107.356 194.557 107.699 194.557H110.388C110.838 194.557 111.267 194.74 111.579 195.063L112.608 196.133C112.847 196.381 113.241 196.388 113.488 196.149L114.655 195.021C114.964 194.723 115.375 194.557 115.803 194.557H118.379C118.722 194.557 119 194.279 119 193.936V186.99Z" stroke="#D6D9DC" stroke-width="1.03082"/>
<path d="M116.582 188.965L115.742 188.142L111.822 191.988L110.281 190.477L109.442 191.3L111.822 193.634L116.582 188.965Z" fill="#6ECB64"/>
<path d="M237.156 172.599C200.247 213.566 158.509 208.029 115.947 202.812" stroke="#CFEAFE" stroke-width="0.773111" stroke-linecap="round" stroke-dasharray="1.03 3.09"/>
<path d="M113.005 202.862C114.001 202.862 114.809 202.054 114.809 201.058C114.809 200.062 114.001 199.254 113.005 199.254C112.009 199.254 111.201 200.062 111.201 201.058C111.201 202.054 112.009 202.862 113.005 202.862Z" fill="#E7FFE4" stroke="#6ECB64" stroke-width="1.03082"/>
<path d="M100.514 50.8844C153.189 33.9355 189.648 39.3483 226.273 63.1864" stroke="#CFEAFE" stroke-width="0.773111" stroke-linecap="round" stroke-dasharray="1.03 3.09"/>
<path d="M192.219 219.069C183.813 221.493 164.163 180.456 148.33 127.409C132.496 74.363 126.475 29.3961 134.881 26.9724" stroke="#CFEAFE" stroke-width="0.773111" stroke-linecap="round" stroke-dasharray="1.03 3.09"/>
<path d="M74.7573 164.094C68.6971 136.741 107.29 104.928 160.957 93.0367C214.624 81.1457 263.043 93.6805 269.104 121.033" stroke="#CFEAFE" stroke-width="0.773111" stroke-linecap="round" stroke-dasharray="1.03 3.09"/>
<path d="M146.323 222.253C135.632 219.437 138.779 173.819 153.353 120.361C167.926 66.903 188.408 25.8495 199.1 28.6652" stroke="#CFEAFE" stroke-width="0.773111" stroke-linecap="round" stroke-dasharray="1.03 3.09"/>
<path d="M85.1767 60.0747C86.8616 56.9755 128.348 76.2778 177.84 103.187C227.331 130.097 266.085 154.424 264.4 157.523" stroke="#CFEAFE" stroke-width="0.773111" stroke-linecap="round" stroke-dasharray="1.03 3.09"/>
<path d="M245.773 153.488C245.773 152.861 245.264 152.352 244.636 152.352H233.458C232.831 152.352 232.322 152.861 232.322 153.488V161.236C232.322 161.864 232.831 162.372 233.458 162.372H236.298C236.616 162.372 236.92 162.506 237.135 162.74L238.228 163.929C238.667 164.406 239.417 164.42 239.873 163.958L241.108 162.71C241.321 162.494 241.612 162.372 241.916 162.372H244.636C245.264 162.372 245.773 161.864 245.773 161.236V153.488Z" fill="white"/>
<path d="M245.257 153.488C245.257 153.145 244.979 152.867 244.636 152.867H233.458C233.116 152.867 232.837 153.145 232.837 153.488V161.236C232.837 161.579 233.116 161.857 233.458 161.857H236.298C236.761 161.857 237.201 162.051 237.514 162.391L238.607 163.58C238.848 163.841 239.257 163.848 239.506 163.596L240.741 162.348C241.051 162.034 241.474 161.857 241.916 161.857H244.636C244.979 161.857 245.257 161.579 245.257 161.236V153.488Z" stroke="#C8CCD0" stroke-width="1.03082"/>
<path d="M239.433 159.156H238.501C238.499 159.021 238.498 158.938 238.498 158.908C238.498 158.602 238.548 158.349 238.648 158.152C238.748 157.954 238.947 157.731 239.247 157.484C239.546 157.237 239.726 157.075 239.784 156.998C239.874 156.877 239.919 156.744 239.919 156.598C239.919 156.395 239.839 156.222 239.678 156.079C239.52 155.933 239.305 155.86 239.035 155.86C238.774 155.86 238.556 155.935 238.381 156.086C238.205 156.237 238.085 156.467 238.019 156.776L237.076 156.657C237.103 156.214 237.288 155.839 237.632 155.53C237.978 155.221 238.431 155.066 238.991 155.066C239.58 155.066 240.049 155.223 240.398 155.537C240.746 155.849 240.921 156.212 240.921 156.627C240.921 156.858 240.856 157.075 240.727 157.28C240.6 157.485 240.327 157.765 239.908 158.118C239.691 158.301 239.556 158.448 239.503 158.559C239.452 158.671 239.428 158.87 239.433 159.156ZM238.501 160.558V159.516H239.528V160.558H238.501Z" fill="#F2720C"/>
<path d="M103.005 37.5216C103.005 36.8939 102.496 36.3851 101.868 36.3851H90.6906C90.0633 36.3851 89.5541 36.8939 89.5541 37.5216V45.2693C89.5541 45.8969 90.0633 46.4057 90.6906 46.4057H93.5305C93.8485 46.4057 94.152 46.5389 94.367 46.773L95.4601 47.962C95.8993 48.4396 96.6487 48.4532 97.1048 47.9919L98.3397 46.7431C98.5531 46.5272 98.8443 46.4057 99.1479 46.4057H101.868C102.496 46.4057 103.005 45.8969 103.005 45.2693V37.5216Z" fill="white"/>
<path d="M102.489 37.5215C102.489 37.1785 102.211 36.9005 101.868 36.9005H90.6906C90.3478 36.9005 90.0695 37.1785 90.0695 37.5215V45.2693C90.0695 45.6123 90.3478 45.8903 90.6906 45.8903H93.5305C93.9928 45.8903 94.4335 46.0839 94.7463 46.4241L95.8395 47.6131C96.0797 47.8741 96.4889 47.8815 96.7384 47.6294L97.9733 46.3807C98.2835 46.0669 98.7062 45.8903 99.1479 45.8903H101.868C102.211 45.8903 102.489 45.6123 102.489 45.2693V37.5215Z" stroke="#C8CCD0" stroke-width="1.03082"/>
<path d="M96.6652 43.1898H95.7333C95.7313 43.0539 95.7297 42.971 95.7297 42.9414C95.7297 42.6348 95.7797 42.3827 95.8797 42.1849C95.9797 41.9871 96.1791 41.7646 96.4791 41.5174C96.7786 41.2701 96.9579 41.1083 97.0162 41.0316C97.1064 40.9105 97.1512 40.777 97.1512 40.6311C97.1512 40.4284 97.0708 40.2554 96.91 40.112C96.7518 39.9661 96.5373 39.8932 96.2673 39.8932C96.0065 39.8932 95.7885 39.9686 95.6127 40.1194C95.4375 40.2702 95.3169 40.5001 95.2514 40.8091L94.3082 40.6905C94.335 40.2479 94.52 39.8722 94.8638 39.5631C95.2097 39.2541 95.6627 39.0996 96.2229 39.0996C96.8126 39.0996 97.2816 39.2566 97.63 39.5705C97.9784 39.882 98.1526 40.2455 98.1526 40.6608C98.1526 40.8907 98.0882 41.1083 97.9588 41.3134C97.8326 41.5186 97.5594 41.798 97.1404 42.1515C96.9234 42.3345 96.7883 42.4816 96.7347 42.5928C96.6837 42.704 96.6605 42.9031 96.6652 43.1898V43.1898ZM95.7333 44.5915V43.5495H96.7605V44.5915H95.7333Z" fill="#F2720C"/>
<path d="M221.232 176.729C221.232 178.612 219.706 180.138 217.823 180.138H64.4089C62.5261 180.138 61 178.612 61 176.729V143.773C61 141.891 62.5261 140.364 64.4089 140.364H68.5183C69.5161 140.364 70.4644 139.927 71.1118 139.167L75.8989 133.555C77.2029 132.026 79.5397 131.951 80.9391 133.393L86.7008 139.33C87.343 139.991 88.2254 140.364 89.1474 140.364H217.823C219.706 140.364 221.232 141.891 221.232 143.773V176.729Z" fill="white"/>
<path d="M220.717 176.729C220.717 178.327 219.421 179.623 217.823 179.623H64.4089C62.8111 179.623 61.5154 178.327 61.5154 176.729V143.773C61.5154 142.175 62.8111 140.879 64.4089 140.879H68.5183C69.6671 140.879 70.7582 140.376 71.504 139.502L76.2911 133.889C77.3982 132.592 79.3815 132.528 80.5695 133.752L86.3312 139.688C87.0703 140.45 88.0862 140.879 89.1474 140.879H217.823C219.421 140.879 220.717 142.175 220.717 143.773V176.729Z" stroke="#C8CCD0" stroke-width="1.03082"/>
<path d="M206.334 147.182H94.6487C93.6383 147.182 92.8192 148.001 92.8192 149.012V156.149C92.8192 157.159 93.6383 157.978 94.6487 157.978H206.334C207.345 157.978 208.164 157.159 208.164 156.149V149.012C208.164 148.001 207.345 147.182 206.334 147.182Z" fill="#EFF0F1"/>
<path d="M165.424 163.092H94.6487C93.6383 163.092 92.8192 163.911 92.8192 164.921V172.058C92.8192 173.069 93.6383 173.888 94.6487 173.888H165.424C166.434 173.888 167.253 173.069 167.253 172.058V164.921C167.253 163.911 166.434 163.092 165.424 163.092Z" fill="#EFF0F1"/>
<path d="M83.847 156.742L82.7141 155.609L77.4173 160.906L75.3355 158.824L74.2022 159.957L77.4173 163.172L83.847 156.742Z" fill="#6ECB64"/>
<path d="M83.044 166.766H74.8722C74.3661 166.766 74.1125 167.379 74.4702 167.736L78.8285 172.095C79.0609 172.327 79.4418 172.315 79.6577 172.067L83.4718 167.709C83.7929 167.341 83.5321 166.766 83.044 166.766Z" fill="#EFF0F1"/>
<path d="M74.7526 152.372H82.9244C83.4305 152.372 83.6841 151.76 83.3259 151.402L78.9676 147.044C78.7352 146.811 78.3548 146.824 78.1383 147.072L74.3248 151.43C74.0032 151.797 74.2645 152.372 74.7526 152.372V152.372Z" fill="#F48024"/>
<path d="M178.089 171.655H171.839C171.22 171.655 170.703 171.138 170.703 170.519V165.405C170.703 164.78 171.214 164.269 171.839 164.269H178.658C179.277 164.269 179.794 164.786 179.794 165.405V173.36L178.089 171.655ZM177.51 169.951L175.714 165.405H174.76L173.021 169.951H173.976L174.345 168.934H176.135L176.527 169.951H177.51ZM175.845 168.178H174.624L175.226 166.519L175.845 168.178Z" fill="#F48024"/>
<path fill-rule="evenodd" clip-rule="evenodd" d="M126.433 95.2184L128.838 94.1876L131.243 95.2184V96.9435C131.243 98.548 129.419 99.6855 128.838 99.6855C128.258 99.6855 126.433 98.548 126.433 96.9435V95.2184ZM128.543 97.0054L128.151 97.9676H129.525L129.134 97.0054C129.117 96.9265 129.154 96.8471 129.22 96.8028C129.412 96.6791 129.525 96.476 129.525 96.2493C129.525 95.8751 129.202 95.5622 128.831 95.5622C128.457 95.5622 128.151 95.8751 128.151 96.2493C128.151 96.476 128.264 96.6791 128.457 96.8028C128.525 96.8461 128.559 96.9265 128.543 97.0054Z" fill="#6A737C"/>
<path d="M74.4006 80.5118C74.4006 78.6285 75.9267 77.1024 77.81 77.1024H268.695C270.578 77.1024 272.104 78.6285 272.104 80.5118V113.469C272.104 115.351 270.578 116.877 268.695 116.877H265.999C265.001 116.877 264.053 117.315 263.405 118.074L259.899 122.185C258.595 123.714 256.259 123.789 254.859 122.347L250.555 117.912C249.913 117.251 249.03 116.877 248.108 116.877H77.81C75.9267 116.877 74.4006 115.351 74.4006 113.469V80.5118Z" fill="white"/>
<path d="M74.916 80.5118C74.916 78.9135 76.2117 77.6178 77.81 77.6178H268.695C270.293 77.6178 271.588 78.9135 271.588 80.5118V113.469C271.588 115.067 270.293 116.362 268.695 116.362H265.999C264.85 116.362 263.759 116.866 263.013 117.74L259.507 121.851C258.4 123.148 256.417 123.212 255.229 121.988L250.925 117.554C250.185 116.792 249.17 116.362 248.108 116.362H77.81C76.2117 116.362 74.916 115.067 74.916 113.469V80.5118Z" stroke="#C8CCD0" stroke-width="1.03082"/>
<path d="M113.056 87.4105H99.0871C97.3792 87.4105 95.9946 88.7951 95.9946 90.503V104.472C95.9946 106.18 97.3792 107.565 99.0871 107.565H113.056C114.764 107.565 116.149 106.18 116.149 104.472V90.503C116.149 88.7951 114.764 87.4105 113.056 87.4105Z" fill="#48A868" fill-opacity="0.2"/>
<path d="M107.884 90.7694H104.739C103.885 90.7694 103.192 91.4617 103.192 92.3156V97.3809C103.192 98.2348 103.885 98.9271 104.739 98.9271H107.884C108.738 98.9271 109.43 98.2348 109.43 97.3809V92.3156C109.43 91.4617 108.738 90.7694 107.884 90.7694Z" fill="#6ECB64"/>
<path d="M112.79 103.139V102.873C112.79 102.019 112.097 101.327 111.243 101.327H101.38C100.526 101.327 99.8334 102.019 99.8334 102.873V103.139C99.8334 103.993 100.526 104.686 101.38 104.686H111.243C112.097 104.686 112.79 103.993 112.79 103.139Z" fill="#6ECB64"/>
<path d="M86.2907 90.7694H83.145C82.291 90.7694 81.5988 91.4617 81.5988 92.3156V97.3809C81.5988 98.2348 82.291 98.9271 83.145 98.9271H86.2907C87.1447 98.9271 87.837 98.2348 87.837 97.3809V92.3156C87.837 91.4617 87.1447 90.7694 86.2907 90.7694Z" fill="#EFF0F1"/>
<path d="M91.1957 103.139V102.873C91.1957 102.019 90.5034 101.327 89.6494 101.327H79.7856C78.9317 101.327 78.2394 102.019 78.2394 102.873V103.139C78.2394 103.993 78.9317 104.686 79.7856 104.686H89.6494C90.5034 104.686 91.1957 103.993 91.1957 103.139Z" fill="#EFF0F1"/>
<path d="M128.998 90.7694H125.853C124.999 90.7694 124.306 91.4617 124.306 92.3156V97.3809C124.306 98.2348 124.999 98.9271 125.853 98.9271H128.998C129.852 98.9271 130.545 98.2348 130.545 97.3809V92.3156C130.545 91.4617 129.852 90.7694 128.998 90.7694Z" fill="#EFF0F1"/>
<path d="M133.903 103.139V102.873C133.903 102.019 133.211 101.327 132.357 101.327H122.493C121.639 101.327 120.947 102.019 120.947 102.873V103.139C120.947 103.993 121.639 104.686 122.493 104.686H132.357C133.211 104.686 133.903 103.993 133.903 103.139Z" fill="#EFF0F1"/>
<path d="M250.155 88.4589H140.888C140.034 88.4589 139.342 89.1511 139.342 90.0051V95.1592C139.342 96.0131 140.034 96.7054 140.888 96.7054H250.155C251.009 96.7054 251.701 96.0131 251.701 95.1592V90.0051C251.701 89.1511 251.009 88.4589 250.155 88.4589Z" fill="#EFF0F1"/>
<path d="M151.552 99.887H140.728C139.874 99.887 139.182 100.579 139.182 101.433V106.498C139.182 107.352 139.874 108.045 140.728 108.045H151.552C152.406 108.045 153.098 107.352 153.098 106.498V101.433C153.098 100.579 152.406 99.887 151.552 99.887Z" fill="#CFEAFE"/>
<path d="M169.307 99.887H158.483C157.629 99.887 156.937 100.579 156.937 101.433V106.498C156.937 107.352 157.629 108.045 158.483 108.045H169.307C170.161 108.045 170.853 107.352 170.853 106.498V101.433C170.853 100.579 170.161 99.887 169.307 99.887Z" fill="#CFEAFE"/>
<path d="M187.061 99.887H176.238C175.384 99.887 174.692 100.579 174.692 101.433V106.498C174.692 107.352 175.384 108.045 176.238 108.045H187.061C187.915 108.045 188.608 107.352 188.608 106.498V101.433C188.608 100.579 187.915 99.887 187.061 99.887Z" fill="#CFEAFE"/>
<path fill-rule="evenodd" clip-rule="evenodd" d="M256.268 96.6879L257.815 95.1417H263.484C264.045 95.1417 264.515 94.6722 264.515 94.1109V89.4722C264.515 88.9109 264.045 88.4414 263.484 88.4414H257.299C256.732 88.4414 256.268 88.9053 256.268 89.4722V96.6879ZM260.371 94.1418C260.077 94.1315 259.84 93.9202 259.85 93.5955C259.861 93.2708 260.108 93.0595 260.407 93.0698C260.716 93.0801 260.948 93.3017 260.938 93.6264C260.928 93.9511 260.691 94.1521 260.371 94.1418V94.1418ZM260.845 92.2461C260.821 92.3564 260.807 92.4683 260.804 92.5812C260.804 92.6018 260.788 92.6533 260.721 92.6533H260C259.928 92.6533 259.917 92.6069 259.917 92.5863C259.911 92.3296 259.975 92.0766 260.103 91.8544C260.211 91.6679 260.402 91.5174 260.649 91.3751C260.861 91.253 261.049 91.0081 261.053 90.7587C261.055 90.6185 261.006 90.4829 260.917 90.3752C260.804 90.2412 260.68 90.1691 260.443 90.1691C260.211 90.1691 260.015 90.2876 259.917 90.4371C259.831 90.5731 259.833 90.7216 259.834 90.8638C259.835 90.8834 259.835 90.9025 259.835 90.9215H258.948C258.948 90.3185 259.108 89.932 259.454 89.7052C259.741 89.5449 260.067 89.4665 260.397 89.4784C260.85 89.4784 261.211 89.5609 261.531 89.798C261.83 90.0144 261.984 90.3237 261.984 90.736C261.984 90.9937 261.897 91.1999 261.763 91.3751C261.685 91.4782 261.536 91.6173 261.319 91.7823L261.072 91.9369C260.966 92.0132 260.886 92.1214 260.845 92.2461V92.2461Z" fill="#6ECB64"/>
</g>
<defs>
<clipPath id="clip0_1_428">
<rect width="333.984" height="222.141" fill="white" transform="translate(0.00798035 0.046875)"/>
</clipPath>
</defs>
</svg>
