<svg width="185" height="222" viewBox="0 0 185 222" fill="none" xmlns="http://www.w3.org/2000/svg">
<g clip-path="url(#clip0_1_355)">
<path opacity="0.25" fill-rule="evenodd" clip-rule="evenodd" d="M1.29256 0C0.725401 0 0.265625 0.459776 0.265625 1.02694V7.09071C0.265625 7.65787 0.725405 8.11765 1.29256 8.11765H66.8857C67.4529 8.11765 67.9127 7.65787 67.9127 7.09071V1.02694C67.9127 0.459776 67.4529 0 66.8857 0H1.29256ZM77.0573 0C76.4902 0 76.0304 0.459776 76.0304 1.02694V7.09071C76.0304 7.65787 76.4902 8.11765 77.0573 8.11765H99.3564C99.9236 8.11765 100.384 7.65787 100.384 7.09071V1.02694C100.384 0.459776 99.9236 0 99.3564 0H77.0573ZM0.265625 55.1456C0.265625 54.5785 0.725401 54.1187 1.29256 54.1187H66.8857C67.4529 54.1187 67.9127 54.5785 67.9127 55.1456V61.2094C67.9127 61.7766 67.4529 62.2363 66.8857 62.2363H1.29256C0.725405 62.2363 0.265625 61.7766 0.265625 61.2094V55.1456ZM1.29256 70.3509C0.725401 70.3509 0.265625 70.8107 0.265625 71.3778V77.4416C0.265625 78.0088 0.725405 78.4686 1.29256 78.4686H66.8857C67.4529 78.4686 67.9127 78.0088 67.9127 77.4416V71.3778C67.9127 70.8107 67.4529 70.3509 66.8857 70.3509H1.29256ZM0.265625 87.6171C0.265625 87.0499 0.725401 86.5902 1.29256 86.5902H66.8857C67.4529 86.5902 67.9127 87.0499 67.9127 87.6171V93.6809C67.9127 94.248 67.4529 94.7078 66.8857 94.7078H1.29256C0.725405 94.7078 0.265625 94.248 0.265625 93.6809V87.6171ZM1.29256 108.235C0.725401 108.235 0.265625 108.695 0.265625 109.262V115.326C0.265625 115.893 0.725406 116.353 1.29256 116.353H126.416C126.983 116.353 127.442 115.893 127.442 115.326V109.262C127.442 108.695 126.983 108.235 126.416 108.235H1.29256ZM48.9734 125.498C48.9734 124.93 49.4331 124.471 50.0003 124.471H83.1229C83.6901 124.471 84.1498 124.93 84.1498 125.498V131.561C84.1498 132.129 83.6901 132.588 83.1229 132.588H50.0003C49.4331 132.588 48.9734 132.129 48.9734 131.561V125.498ZM1.29256 124.471C0.725401 124.471 0.265625 124.93 0.265625 125.498V131.561C0.265625 132.129 0.725401 132.588 1.29256 132.588H42.5328C43.1 132.588 43.5597 132.129 43.5597 131.561V125.498C43.5597 124.93 43.1 124.471 42.5328 124.471H1.29256ZM0.265625 141.732C0.265625 141.165 0.725401 140.705 1.29256 140.705H83.121C83.6882 140.705 84.148 141.165 84.148 141.732V147.796C84.148 148.363 83.6882 148.823 83.121 148.823H1.29256C0.725403 148.823 0.265625 148.363 0.265625 147.796V141.732ZM90.5869 140.705C90.0198 140.705 89.56 141.165 89.56 141.732V147.796C89.56 148.363 90.0198 148.823 90.5869 148.823H172.416C172.983 148.823 173.443 148.363 173.443 147.796V141.732C173.443 141.165 172.983 140.705 172.416 140.705H90.5869ZM0.265625 163.377C0.265625 162.81 0.725401 162.35 1.29256 162.35H34.4151C34.9823 162.35 35.4421 162.81 35.4421 163.377V169.441C35.4421 170.008 34.9823 170.468 34.4151 170.468H1.29256C0.725401 170.468 0.265625 170.008 0.265625 169.441V163.377ZM41.8797 162.35C41.3126 162.35 40.8528 162.81 40.8528 163.377V169.441C40.8528 170.008 41.3126 170.468 41.8797 170.468H58.767C59.3342 170.468 59.794 170.008 59.794 169.441V163.377C59.794 162.81 59.3342 162.35 58.767 162.35H41.8797ZM0.265625 179.616C0.265625 179.049 0.725401 178.589 1.29256 178.589H34.4151C34.9823 178.589 35.4421 179.049 35.4421 179.616V185.68C35.4421 186.247 34.9823 186.707 34.4151 186.707H1.29256C0.725401 186.707 0.265625 186.247 0.265625 185.68V179.616ZM1.29256 197.53C0.725401 197.53 0.265625 197.989 0.265625 198.557V204.62C0.265625 205.187 0.725393 205.647 1.29255 205.647H183.239C183.806 205.647 184.266 205.187 184.266 204.62V198.557C184.266 197.989 183.806 197.53 183.239 197.53H1.29256ZM0.265625 214.794C0.265625 214.227 0.725401 213.767 1.29256 213.767H131.827C132.394 213.767 132.854 214.227 132.854 214.794V220.858C132.854 221.425 132.394 221.885 131.827 221.885H1.29255C0.725394 221.885 0.265625 221.425 0.265625 220.858V214.794ZM1.29256 16.236C0.725401 16.236 0.265625 16.6958 0.265625 17.2629V23.3267C0.265625 23.8939 0.725399 24.3537 1.29256 24.3537H169.71C170.277 24.3537 170.737 23.8939 170.737 23.3267V17.2629C170.737 16.6958 170.277 16.236 169.71 16.236H1.29256ZM0.265625 33.4992C0.265625 32.9321 0.725401 32.4723 1.29256 32.4723H42.5328C43.1 32.4723 43.5597 32.9321 43.5597 33.4992V39.563C43.5597 40.1302 43.1 40.5899 42.5328 40.5899H1.29256C0.725401 40.5899 0.265625 40.1302 0.265625 39.563V33.4992ZM50.0003 32.4723C49.4331 32.4723 48.9734 32.9321 48.9734 33.4992V39.563C48.9734 40.1302 49.4331 40.5899 50.0003 40.5899H91.2405C91.8077 40.5899 92.2675 40.1302 92.2675 39.563V33.4992C92.2675 32.9321 91.8077 32.4723 91.2405 32.4723H50.0003Z" fill="url(#paint0_linear_1_355)"/>
</g>
<defs>
<linearGradient id="paint0_linear_1_355" x1="-86.8314" y1="-25.7258" x2="256.36" y2="41.854" gradientUnits="userSpaceOnUse">
<stop stop-color="#2E3235"/>
<stop offset="0.25" stop-color="#5A6771"/>
<stop offset="1" stop-color="#2E3235"/>
</linearGradient>
<clipPath id="clip0_1_355">
<rect width="184" height="222" fill="white" transform="translate(0.265625)"/>
</clipPath>
</defs>
</svg>
