<svg width="185" height="222" viewBox="0 0 185 222" fill="none" xmlns="http://www.w3.org/2000/svg">
<g clip-path="url(#clip0_1_358)">
<path opacity="0.25" fill-rule="evenodd" clip-rule="evenodd" d="M1.76131 0C1.19415 0 0.734375 0.459776 0.734375 1.02694V7.09071C0.734375 7.65787 1.19415 8.11765 1.76131 8.11765H67.3545C67.9217 8.11765 68.3815 7.65787 68.3815 7.09071V1.02694C68.3815 0.459776 67.9217 0 67.3545 0H1.76131ZM77.5261 0C76.959 0 76.4992 0.459776 76.4992 1.02694V7.09071C76.4992 7.65787 76.959 8.11765 77.5261 8.11765H99.8252C100.392 8.11765 100.852 7.65787 100.852 7.09071V1.02694C100.852 0.459776 100.392 0 99.8252 0H77.5261ZM0.734375 55.1456C0.734375 54.5785 1.19415 54.1187 1.76131 54.1187H67.3545C67.9217 54.1187 68.3815 54.5785 68.3815 55.1456V61.2094C68.3815 61.7766 67.9217 62.2363 67.3545 62.2363H1.76131C1.19415 62.2363 0.734375 61.7766 0.734375 61.2094V55.1456ZM1.76131 70.3509C1.19415 70.3509 0.734375 70.8107 0.734375 71.3778V77.4416C0.734375 78.0088 1.19415 78.4686 1.76131 78.4686H67.3545C67.9217 78.4686 68.3815 78.0088 68.3815 77.4416V71.3778C68.3815 70.8107 67.9217 70.3509 67.3545 70.3509H1.76131ZM0.734375 87.6171C0.734375 87.0499 1.19415 86.5902 1.76131 86.5902H67.3545C67.9217 86.5902 68.3815 87.0499 68.3815 87.6171V93.6809C68.3815 94.248 67.9217 94.7078 67.3545 94.7078H1.76131C1.19415 94.7078 0.734375 94.248 0.734375 93.6809V87.6171ZM1.76131 108.235C1.19415 108.235 0.734375 108.695 0.734375 109.262V115.326C0.734375 115.893 1.19416 116.353 1.76131 116.353H126.884C127.451 116.353 127.91 115.893 127.91 115.326V109.262C127.91 108.695 127.451 108.235 126.884 108.235H1.76131ZM49.4422 125.498C49.4422 124.93 49.9019 124.471 50.4691 124.471H83.5917C84.1589 124.471 84.6186 124.93 84.6186 125.498V131.561C84.6186 132.129 84.1589 132.588 83.5917 132.588H50.4691C49.9019 132.588 49.4422 132.129 49.4422 131.561V125.498ZM1.76131 124.471C1.19415 124.471 0.734375 124.93 0.734375 125.498V131.561C0.734375 132.129 1.19415 132.588 1.76131 132.588H43.0016C43.5688 132.588 44.0285 132.129 44.0285 131.561V125.498C44.0285 124.93 43.5688 124.471 43.0016 124.471H1.76131ZM0.734375 141.732C0.734375 141.165 1.19415 140.705 1.76131 140.705H83.5898C84.157 140.705 84.6168 141.165 84.6168 141.732V147.796C84.6168 148.363 84.157 148.823 83.5898 148.823H1.76131C1.19415 148.823 0.734375 148.363 0.734375 147.796V141.732ZM91.0557 140.705C90.4886 140.705 90.0288 141.165 90.0288 141.732V147.796C90.0288 148.363 90.4886 148.823 91.0557 148.823H172.884C173.451 148.823 173.911 148.363 173.911 147.796V141.732C173.911 141.165 173.451 140.705 172.884 140.705H91.0557ZM0.734375 163.377C0.734375 162.81 1.19415 162.35 1.76131 162.35H34.8839C35.4511 162.35 35.9109 162.81 35.9109 163.377V169.441C35.9109 170.008 35.4511 170.468 34.8839 170.468H1.76131C1.19415 170.468 0.734375 170.008 0.734375 169.441V163.377ZM42.3485 162.35C41.7814 162.35 41.3216 162.81 41.3216 163.377V169.441C41.3216 170.008 41.7814 170.468 42.3485 170.468H59.2358C59.803 170.468 60.2628 170.008 60.2628 169.441V163.377C60.2628 162.81 59.803 162.35 59.2358 162.35H42.3485ZM0.734375 179.616C0.734375 179.049 1.19415 178.589 1.76131 178.589H34.8839C35.4511 178.589 35.9109 179.049 35.9109 179.616V185.68C35.9109 186.247 35.4511 186.707 34.8839 186.707H1.76131C1.19415 186.707 0.734375 186.247 0.734375 185.68V179.616ZM1.76131 197.53C1.19415 197.53 0.734375 197.989 0.734375 198.557V204.62C0.734375 205.187 1.19414 205.647 1.7613 205.647H183.707C184.274 205.647 184.734 205.187 184.734 204.62V198.557C184.734 197.989 184.274 197.53 183.707 197.53H1.76131ZM0.734375 214.794C0.734375 214.227 1.19415 213.767 1.76131 213.767H132.295C132.862 213.767 133.322 214.227 133.322 214.794V220.858C133.322 221.425 132.862 221.885 132.295 221.885H1.7613C1.19414 221.885 0.734375 221.425 0.734375 220.858V214.794ZM1.76131 16.236C1.19415 16.236 0.734375 16.6958 0.734375 17.2629V23.3267C0.734375 23.8939 1.19415 24.3537 1.76131 24.3537H170.178C170.745 24.3537 171.205 23.8939 171.205 23.3267V17.2629C171.205 16.6958 170.745 16.236 170.178 16.236H1.76131ZM0.734375 33.4992C0.734375 32.9321 1.19415 32.4723 1.76131 32.4723H43.0016C43.5688 32.4723 44.0285 32.9321 44.0285 33.4992V39.563C44.0285 40.1302 43.5688 40.5899 43.0016 40.5899H1.76131C1.19415 40.5899 0.734375 40.1302 0.734375 39.563V33.4992ZM50.4691 32.4723C49.9019 32.4723 49.4422 32.9321 49.4422 33.4992V39.563C49.4422 40.1302 49.9019 40.5899 50.4691 40.5899H91.7093C92.2765 40.5899 92.7363 40.1302 92.7363 39.563V33.4992C92.7363 32.9321 92.2765 32.4723 91.7093 32.4723H50.4691Z" fill="url(#paint0_linear_1_358)"/>
</g>
<defs>
<linearGradient id="paint0_linear_1_358" x1="-86.3626" y1="-25.7258" x2="256.828" y2="41.854" gradientUnits="userSpaceOnUse">
<stop stop-color="#2E3235"/>
<stop offset="0.25" stop-color="#5A6771"/>
<stop offset="1" stop-color="#2E3235"/>
</linearGradient>
<clipPath id="clip0_1_358">
<rect width="184" height="222" fill="white" transform="translate(0.734375)"/>
</clipPath>
</defs>
</svg>
