<svg width="334" height="228" viewBox="0 0 334 228" fill="none" xmlns="http://www.w3.org/2000/svg">
<g clip-path="url(#clip0_1_509)">
<path d="M239.126 41.1545H263.351V77.7485H239.126V41.1545Z" fill="#0095FF"/>
<path d="M242.411 49.3821H256.327V59.6902H242.411V49.3821Z" fill="#0095FF"/>
<path d="M113.123 130.542H153.84V202.699H113.123V130.542Z" fill="#CFEAFE"/>
<path d="M27.5654 76.7942V114.32" stroke="#F2F9FF" stroke-width="0.426956"/>
<path d="M139.16 66.2068C139.16 65.4997 139.734 64.926 140.441 64.926H180.658C181.365 64.926 181.939 65.4997 181.939 66.2068V205.117H139.16V66.2068Z" fill="#6CBBF7"/>
<path fill-rule="evenodd" clip-rule="evenodd" d="M142.768 70.4187C142.768 69.9471 143.15 69.5647 143.622 69.5647H148.614C149.086 69.5647 149.468 69.9471 149.468 70.4187V75.411C149.468 75.8826 149.086 76.265 148.614 76.265H143.622C143.15 76.265 142.768 75.8826 142.768 75.411V70.4187ZM142.783 131.029C142.783 130.557 143.165 130.175 143.636 130.175H148.62C149.092 130.175 149.474 130.557 149.474 131.029V136.229C149.474 136.701 149.092 137.083 148.62 137.083H143.636C143.165 137.083 142.783 136.701 142.783 136.229V131.029ZM152.561 131.237C152.561 130.765 152.943 130.383 153.415 130.383H158.407C158.878 130.383 159.261 130.765 159.261 131.237V136.229C159.261 136.701 158.878 137.083 158.407 137.083H153.415C152.943 137.083 152.561 136.701 152.561 136.229V131.237ZM162.692 130.383C162.22 130.383 161.838 130.765 161.838 131.237V136.229C161.838 136.701 162.22 137.083 162.692 137.083H167.684C168.156 137.083 168.538 136.701 168.538 136.229V131.237C168.538 130.765 168.156 130.383 167.684 130.383H162.692ZM171.639 131.029C171.639 130.557 172.022 130.175 172.493 130.175H177.477C177.949 130.175 178.331 130.557 178.331 131.029V136.229C178.331 136.701 177.949 137.083 177.477 137.083H172.493C172.022 137.083 171.639 136.701 171.639 136.229V131.029ZM143.636 140.7C143.165 140.7 142.783 141.082 142.783 141.554V146.519C142.783 146.99 143.165 147.373 143.636 147.373H148.601C149.073 147.373 149.455 146.99 149.455 146.519V141.554C149.455 141.082 149.073 140.7 148.601 140.7H143.636ZM152.561 141.545C152.561 141.073 152.943 140.691 153.415 140.691H158.407C158.878 140.691 159.261 141.073 159.261 141.545V146.537C159.261 147.009 158.878 147.391 158.407 147.391H153.415C152.943 147.391 152.561 147.009 152.561 146.537V141.545ZM162.692 140.691C162.22 140.691 161.838 141.073 161.838 141.545V146.537C161.838 147.009 162.22 147.391 162.692 147.391H167.684C168.156 147.391 168.538 147.009 168.538 146.537V141.545C168.538 141.073 168.156 140.691 167.684 140.691H162.692ZM171.631 141.545C171.631 141.073 172.013 140.691 172.485 140.691H177.477C177.949 140.691 178.331 141.073 178.331 141.545V146.537C178.331 147.009 177.949 147.391 177.477 147.391H172.485C172.013 147.391 171.631 147.009 171.631 146.537V141.545ZM153.415 150.484C152.943 150.484 152.561 150.866 152.561 151.338V156.33C152.561 156.802 152.943 157.184 153.415 157.184H158.407C158.878 157.184 159.261 156.802 159.261 156.33V151.338C159.261 150.866 158.878 150.484 158.407 150.484H153.415ZM161.838 151.338C161.838 150.866 162.22 150.484 162.692 150.484H167.684C168.156 150.484 168.538 150.866 168.538 151.338V156.33C168.538 156.802 168.156 157.184 167.684 157.184H162.692C162.22 157.184 161.838 156.802 161.838 156.33V151.338ZM172.485 150.484C172.013 150.484 171.631 150.866 171.631 151.338V156.33C171.631 156.802 172.013 157.184 172.485 157.184H177.477C177.949 157.184 178.331 156.802 178.331 156.33V151.338C178.331 150.866 177.949 150.484 177.477 150.484H172.485ZM153.415 69.5647C152.943 69.5647 152.561 69.9471 152.561 70.4187V75.411C152.561 75.8826 152.943 76.265 153.415 76.265H158.407C158.878 76.265 159.261 75.8826 159.261 75.411V70.4187C159.261 69.9471 158.878 69.5647 158.407 69.5647H153.415ZM161.838 70.4187C161.838 69.9471 162.22 69.5647 162.692 69.5647H167.684C168.156 69.5647 168.538 69.9471 168.538 70.4187V75.411C168.538 75.8826 168.156 76.265 167.684 76.265H162.692C162.22 76.265 161.838 75.8826 161.838 75.411V70.4187ZM172.485 69.5647C172.013 69.5647 171.631 69.9471 171.631 70.4187V75.411C171.631 75.8826 172.013 76.265 172.485 76.265H177.477C177.949 76.265 178.331 75.8826 178.331 75.411V70.4187C178.331 69.9471 177.949 69.5647 177.477 69.5647H172.485ZM142.783 80.7269C142.783 80.2553 143.165 79.8728 143.636 79.8728H148.62C149.092 79.8728 149.474 80.2553 149.474 80.7269V85.2037C149.474 85.6753 149.092 86.0577 148.62 86.0577H143.636C143.165 86.0577 142.783 85.6753 142.783 85.2037V80.7269ZM153.415 79.8728C152.943 79.8728 152.561 80.2553 152.561 80.7269V85.2037C152.561 85.6753 152.943 86.0577 153.415 86.0577H158.407C158.878 86.0577 159.261 85.6753 159.261 85.2037V80.7269C159.261 80.2553 158.878 79.8728 158.407 79.8728H153.415ZM161.838 80.7269C161.838 80.2553 162.22 79.8728 162.692 79.8728H167.684C168.156 79.8728 168.538 80.2553 168.538 80.7269V85.2037C168.538 85.6753 168.156 86.0577 167.684 86.0577H162.692C162.22 86.0577 161.838 85.6753 161.838 85.2037V80.7269ZM172.493 79.8728C172.022 79.8728 171.639 80.2553 171.639 80.7269V85.2037C171.639 85.6753 172.022 86.0577 172.493 86.0577H177.477C177.949 86.0577 178.331 85.6753 178.331 85.2037V80.7269C178.331 80.2553 177.949 79.8728 177.477 79.8728H172.493ZM142.783 90.5196C142.783 90.048 143.165 89.6656 143.636 89.6656H148.62C149.092 89.6656 149.474 90.048 149.474 90.5196V95.4845C149.474 95.9561 149.092 96.3386 148.62 96.3386H143.636C143.165 96.3386 142.783 95.9561 142.783 95.4845V90.5196ZM153.415 89.6656C152.943 89.6656 152.561 90.048 152.561 90.5196V95.5119C152.561 95.9835 152.943 96.3659 153.415 96.3659H158.407C158.878 96.3659 159.261 95.9835 159.261 95.5119V90.5196C159.261 90.048 158.878 89.6656 158.407 89.6656H153.415ZM161.838 90.5196C161.838 90.048 162.22 89.6656 162.692 89.6656H167.684C168.156 89.6656 168.538 90.048 168.538 90.5196V95.5119C168.538 95.9835 168.156 96.3659 167.684 96.3659H162.692C162.22 96.3659 161.838 95.9835 161.838 95.5119V90.5196ZM172.493 89.6656C172.022 89.6656 171.639 90.048 171.639 90.5196V95.4845C171.639 95.9561 172.022 96.3386 172.493 96.3386H177.477C177.949 96.3386 178.331 95.9561 178.331 95.4845V90.5196C178.331 90.048 177.949 89.6656 177.477 89.6656H172.493Z" fill="#379EEC"/>
<path fill-rule="evenodd" clip-rule="evenodd" d="M274.7 135.749C273.717 133.212 271.254 131.414 268.371 131.414C265.502 131.414 263.05 133.193 262.057 135.709C261.541 135.6 261.132 135.541 260.864 135.541C258.264 135.541 256.158 137.65 256.158 140.252C256.158 142.854 258.264 144.962 260.864 144.962C261.36 144.962 262.302 145.024 263.507 145.102H263.508C268.313 145.416 277.302 146.003 278.904 144.053C280.061 143.192 280.81 141.815 280.81 140.263C280.81 137.655 278.696 135.541 276.089 135.541C275.605 135.541 275.139 135.614 274.7 135.749V135.749Z" fill="#F2F9FF"/>
<path fill-rule="evenodd" clip-rule="evenodd" d="M73.6909 142.964C72.7085 140.428 70.2454 138.629 67.3617 138.629C64.4935 138.629 62.0406 140.409 61.048 142.925C60.532 142.816 60.1233 142.757 59.8548 142.757C57.2556 142.757 55.1486 144.866 55.1486 147.467C55.1486 150.069 57.2556 152.178 59.8548 152.178C60.3511 152.178 61.2933 152.24 62.4983 152.318C67.3045 152.632 76.2932 153.218 77.8951 151.268C79.0516 150.408 79.8011 149.031 79.8011 147.478C79.8011 144.871 77.6874 142.757 75.0799 142.757C74.5965 142.757 74.13 142.829 73.6909 142.964V142.964Z" fill="#F2F9FF"/>
<path fill-rule="evenodd" clip-rule="evenodd" d="M208.212 87.8158C207.23 85.2795 204.767 83.4807 201.883 83.4807C199.015 83.4807 196.562 85.2604 195.569 87.7761C195.053 87.6674 194.645 87.6081 194.376 87.6081C191.777 87.6081 189.67 89.7171 189.67 92.3189C189.67 94.9207 191.777 97.0297 194.376 97.0297C194.872 97.0297 195.815 97.0911 197.02 97.1694H197.02C201.826 97.4833 210.815 98.0704 212.416 96.12C213.573 95.2598 214.322 93.8822 214.322 92.3297C214.322 89.7223 212.209 87.6081 209.601 87.6081C209.118 87.6081 208.651 87.6808 208.212 87.8158V87.8158Z" fill="#F2F9FF"/>
<path d="M67.003 179.346H72.6725V205.117H67.003V179.346Z" fill="#0095FF"/>
<path fill-rule="evenodd" clip-rule="evenodd" d="M221.613 112.799C220.807 110.718 218.786 109.243 216.42 109.243C214.067 109.243 212.054 110.703 211.24 112.767C210.816 112.677 210.481 112.629 210.26 112.629C208.128 112.629 206.4 114.359 206.4 116.493C206.4 118.628 208.128 120.358 210.26 120.358C210.668 120.358 211.441 120.409 212.43 120.473C216.373 120.731 223.748 121.212 225.061 119.612C226.011 118.907 226.626 117.776 226.626 116.502C226.626 114.363 224.891 112.629 222.752 112.629C222.356 112.629 221.973 112.689 221.613 112.799V112.799Z" fill="#F2F9FF"/>
<path d="M72.6725 146.354H114.936V205.117H72.6725V146.354Z" fill="#6CBBF7"/>
<path d="M84.5268 139.91C84.5268 139.203 85.1005 138.629 85.8076 138.629H100.77C101.477 138.629 102.051 139.203 102.051 139.91V146.354H84.5268V139.91Z" fill="#379FEF"/>
<path d="M111.505 149.445C111.976 149.445 112.359 149.827 112.359 150.298V151.166C112.359 151.637 111.976 152.02 111.505 152.02H76.1035C75.6319 152.02 75.2495 151.637 75.2495 151.166V150.298C75.2495 149.827 75.6319 149.445 76.1035 149.445H111.505Z" fill="#83C7FB"/>
<path d="M111.505 154.08C111.976 154.08 112.359 154.462 112.359 154.933V155.801C112.359 156.272 111.976 156.655 111.505 156.655H76.1035C75.6319 156.655 75.2495 156.272 75.2495 155.801V154.933C75.2495 154.462 75.6319 154.08 76.1035 154.08H111.505Z" fill="#83C7FB"/>
<path d="M111.505 158.715C111.976 158.715 112.359 159.097 112.359 159.568V160.436C112.359 160.907 111.976 161.29 111.505 161.29H76.1035C75.6319 161.29 75.2495 160.907 75.2495 160.436V159.568C75.2495 159.097 75.6319 158.715 76.1035 158.715H111.505Z" fill="#83C7FB"/>
<path d="M111.505 163.35C111.976 163.35 112.359 163.732 112.359 164.203V165.071C112.359 165.542 111.976 165.925 111.505 165.925H76.1035C75.6319 165.925 75.2495 165.542 75.2495 165.071V164.203C75.2495 163.732 75.6319 163.35 76.1035 163.35H111.505Z" fill="#83C7FB"/>
<path d="M111.505 167.984C111.976 167.984 112.359 168.367 112.359 168.838V169.706C112.359 170.177 111.976 170.56 111.505 170.56H76.1035C75.6319 170.56 75.2495 170.177 75.2495 169.706V168.838C75.2495 168.367 75.6319 167.984 76.1035 167.984H111.505Z" fill="#83C7FB"/>
<path d="M111.505 172.619C111.976 172.619 112.359 173.002 112.359 173.473V174.341C112.359 174.812 111.976 175.195 111.505 175.195H76.1035C75.6319 175.195 75.2495 174.812 75.2495 174.341V173.473C75.2495 173.002 75.6319 172.619 76.1035 172.619H111.505Z" fill="#83C7FB"/>
<path d="M111.505 177.254C111.976 177.254 112.359 177.637 112.359 178.108V178.976C112.359 179.447 111.976 179.83 111.505 179.83H76.1035C75.6319 179.83 75.2495 179.447 75.2495 178.976V178.108C75.2495 177.637 75.6319 177.254 76.1035 177.254H111.505Z" fill="#83C7FB"/>
<path d="M111.505 181.889C111.976 181.889 112.359 182.272 112.359 182.743V183.611C112.359 184.082 111.976 184.464 111.505 184.464H76.1035C75.6319 184.464 75.2495 184.082 75.2495 183.611V182.743C75.2495 182.272 75.6319 181.889 76.1035 181.889H111.505Z" fill="#83C7FB"/>
<path d="M111.505 186.524C111.976 186.524 112.359 186.907 112.359 187.378V188.246C112.359 188.717 111.976 189.099 111.505 189.099H76.1035C75.6319 189.099 75.2495 188.717 75.2495 188.246V187.378C75.2495 186.907 75.6319 186.524 76.1035 186.524H111.505Z" fill="#83C7FB"/>
<path d="M111.505 191.16C111.976 191.16 112.359 191.542 112.359 192.014V192.881C112.359 193.353 111.976 193.735 111.505 193.735H76.1035C75.6319 193.735 75.2495 193.353 75.2495 192.881V192.014C75.2495 191.542 75.6319 191.16 76.1035 191.16H111.505Z" fill="#83C7FB"/>
<path d="M111.505 195.795C111.976 195.795 112.359 196.177 112.359 196.649V197.516C112.359 197.988 111.976 198.37 111.505 198.37H76.1035C75.6319 198.37 75.2495 197.988 75.2495 197.516V196.649C75.2495 196.177 75.6319 195.795 76.1035 195.795H111.505Z" fill="#83C7FB"/>
<path d="M160.549 49.979V65.4412" stroke="#6CBBF7" stroke-width="0.515408"/>
<path d="M160.549 50.4945C160.976 50.4945 161.323 50.1483 161.323 49.7214C161.323 49.2944 160.976 48.9482 160.549 48.9482C160.122 48.9482 159.776 49.2944 159.776 49.7214C159.776 50.1483 160.122 50.4945 160.549 50.4945Z" fill="#6CBBF7"/>
<path d="M108.751 170.358C108.751 169.887 109.133 169.504 109.605 169.504H151.191C151.663 169.504 152.045 169.887 152.045 170.358V205.169H108.751V170.358Z" fill="#CFEAFE"/>
<path opacity="0.5" d="M148.437 187.077C148.722 187.077 148.953 187.308 148.953 187.593C148.953 187.877 148.722 188.108 148.437 188.108H111.843C111.559 188.108 111.328 187.877 111.328 187.593C111.328 187.308 111.559 187.077 111.843 187.077H148.437Z" fill="#CFEAFE"/>
<path opacity="0.5" d="M148.437 189.139C148.722 189.139 148.953 189.37 148.953 189.655C148.953 189.939 148.722 190.17 148.437 190.17H111.843C111.559 190.17 111.328 189.939 111.328 189.655C111.328 189.37 111.559 189.139 111.843 189.139H148.437Z" fill="#CFEAFE"/>
<path opacity="0.5" d="M148.437 191.201C148.722 191.201 148.953 191.432 148.953 191.716C148.953 192.001 148.722 192.231 148.437 192.231H111.843C111.559 192.231 111.328 192.001 111.328 191.716C111.328 191.432 111.559 191.201 111.843 191.201H148.437Z" fill="#CFEAFE"/>
<path opacity="0.5" d="M148.437 193.262C148.722 193.262 148.953 193.493 148.953 193.778C148.953 194.062 148.722 194.293 148.437 194.293H111.843C111.559 194.293 111.328 194.062 111.328 193.778C111.328 193.493 111.559 193.262 111.843 193.262H148.437Z" fill="#CFEAFE"/>
<path opacity="0.5" d="M148.437 195.324C148.722 195.324 148.953 195.555 148.953 195.839C148.953 196.124 148.722 196.355 148.437 196.355H111.843C111.559 196.355 111.328 196.124 111.328 195.839C111.328 195.555 111.559 195.324 111.843 195.324H148.437Z" fill="#CFEAFE"/>
<path opacity="0.5" d="M148.437 197.386C148.722 197.386 148.953 197.617 148.953 197.901C148.953 198.186 148.722 198.417 148.437 198.417H111.843C111.559 198.417 111.328 198.186 111.328 197.901C111.328 197.617 111.559 197.386 111.843 197.386H148.437Z" fill="#CFEAFE"/>
<path opacity="0.5" d="M148.437 185.016C148.722 185.016 148.953 185.247 148.953 185.531C148.953 185.816 148.722 186.047 148.437 186.047H111.843C111.559 186.047 111.328 185.816 111.328 185.531C111.328 185.247 111.559 185.016 111.843 185.016H148.437Z" fill="#CFEAFE"/>
<path opacity="0.5" d="M148.437 176.769C148.722 176.769 148.953 177 148.953 177.285C148.953 177.569 148.722 177.8 148.437 177.8H111.843C111.559 177.8 111.328 177.569 111.328 177.285C111.328 177 111.559 176.769 111.843 176.769H148.437Z" fill="#CFEAFE"/>
<path opacity="0.5" d="M148.437 178.831C148.722 178.831 148.953 179.062 148.953 179.346C148.953 179.631 148.722 179.862 148.437 179.862H111.843C111.559 179.862 111.328 179.631 111.328 179.346C111.328 179.062 111.559 178.831 111.843 178.831H148.437Z" fill="#CFEAFE"/>
<path opacity="0.5" d="M148.437 180.893C148.722 180.893 148.953 181.123 148.953 181.408C148.953 181.692 148.722 181.923 148.437 181.923H111.843C111.559 181.923 111.328 181.692 111.328 181.408C111.328 181.123 111.559 180.893 111.843 180.893H148.437Z" fill="#CFEAFE"/>
<path opacity="0.5" d="M148.437 182.954C148.722 182.954 148.953 183.185 148.953 183.47C148.953 183.754 148.722 183.985 148.437 183.985H111.843C111.559 183.985 111.328 183.754 111.328 183.47C111.328 183.185 111.559 182.954 111.843 182.954H148.437Z" fill="#CFEAFE"/>
<path opacity="0.5" d="M148.437 174.708C148.722 174.708 148.953 174.939 148.953 175.223C148.953 175.508 148.722 175.739 148.437 175.739H111.843C111.559 175.739 111.328 175.508 111.328 175.223C111.328 174.939 111.559 174.708 111.843 174.708H148.437Z" fill="#CFEAFE"/>
<path fill-rule="evenodd" clip-rule="evenodd" d="M222.656 131.664C222.656 130.956 223.23 130.383 223.937 130.383H239.93C240.637 130.383 241.211 130.956 241.211 131.664V136.592C241.292 136.576 241.375 136.568 241.461 136.568H249.723C250.43 136.568 251.003 137.141 251.003 137.848V205.117H241.211H240.18H222.656H212.348V137.848C212.348 137.141 212.922 136.568 213.629 136.568H221.375C222.082 136.568 222.656 137.141 222.656 137.848V131.664Z" fill="#6CBBF7"/>
<path d="M228.599 102.276V117.707" stroke="#6CBBF7" stroke-width="0.426956"/>
<path d="M228.599 102.693C229.06 102.693 229.433 102.32 229.433 101.859C229.433 101.398 229.06 101.025 228.599 101.025C228.139 101.025 227.765 101.398 227.765 101.859C227.765 102.32 228.139 102.693 228.599 102.693Z" fill="#6CBBF7"/>
<path d="M235.721 102.276V117.707" stroke="#6CBBF7" stroke-width="0.426956"/>
<path d="M235.721 102.693C236.182 102.693 236.555 102.32 236.555 101.859C236.555 101.398 236.182 101.025 235.721 101.025C235.26 101.025 234.887 101.398 234.887 101.859C234.887 102.32 235.26 102.693 235.721 102.693Z" fill="#6CBBF7"/>
<path d="M223.931 127.321C223.931 123.085 227.364 119.651 231.6 119.651C235.836 119.651 239.27 123.085 239.27 127.321V136.634H223.931V127.321Z" fill="#379FEF"/>
<path d="M215.44 143.01C215.44 141.729 216.479 140.691 217.76 140.691C219.04 140.691 220.079 141.729 220.079 143.01V149.453H215.44V143.01Z" fill="#379FEF"/>
<path d="M224.718 143.01C224.718 141.729 225.756 140.691 227.037 140.691C228.318 140.691 229.356 141.729 229.356 143.01V149.453H224.718V143.01Z" fill="#379FEF"/>
<path d="M234.51 142.753C234.51 141.614 235.434 140.691 236.572 140.691C237.711 140.691 238.634 141.614 238.634 142.753V149.453H234.51V142.753Z" fill="#379FEF"/>
<path d="M243.788 142.753C243.788 141.614 244.711 140.691 245.849 140.691C246.988 140.691 247.911 141.614 247.911 142.753V149.453H243.788V142.753Z" fill="#379FEF"/>
<path opacity="0.5" fill-rule="evenodd" clip-rule="evenodd" d="M284.919 123.371C284.406 122.046 283.118 121.105 281.611 121.105C280.112 121.105 278.83 122.036 278.311 123.351C278.041 123.294 277.828 123.263 277.687 123.263C276.329 123.263 275.228 124.365 275.228 125.725C275.228 127.085 276.329 128.187 277.687 128.187C277.947 128.187 278.439 128.219 279.069 128.26C281.581 128.424 286.279 128.731 287.117 127.712C287.721 127.262 288.113 126.542 288.113 125.73C288.113 124.367 287.008 123.263 285.645 123.263C285.392 123.263 285.149 123.301 284.919 123.371Z" fill="#F2F9FF"/>
<path d="M149.468 131.413C181.939 111.57 207.967 117.755 230.129 131.413" stroke="#CFEAFE" stroke-width="0.773111" stroke-linecap="round" stroke-dasharray="1.03 3.09"/>
<path d="M164.93 72.9147C225.491 57.7102 260.281 93.0156 245.849 142.752" stroke="#CFEAFE" stroke-width="0.773111" stroke-linecap="round" stroke-dasharray="1.03 3.09"/>
<path d="M96.4281 192.898C91.9946 140.929 116.136 112.826 160.417 114.156" stroke="#CFEAFE" stroke-width="0.773111" stroke-linecap="round" stroke-dasharray="1.03 3.09"/>
<path d="M129.201 24.2087H121.306C120.065 24.2087 119.059 25.2145 119.059 26.4553V34.8474C119.059 36.0881 120.065 37.0939 121.306 37.0939H129.201C130.442 37.0939 131.447 36.0881 131.447 34.8474V26.4553C131.447 25.2145 130.442 24.2087 129.201 24.2087Z" fill="white" stroke="#C8CCD0" stroke-width="1.03082"/>
<path fill-rule="evenodd" clip-rule="evenodd" d="M126.9 27.9696L127.668 28.7375C127.739 28.8083 127.739 28.918 127.668 28.9887L127.19 29.47L126.171 28.4509L126.649 27.9696C126.72 27.8988 126.829 27.8988 126.9 27.9696V27.9696ZM122.767 31.8551L125.775 28.8472L126.794 29.8664L123.786 32.8743H122.767V31.8551Z" fill="#0095FF"/>
<path d="M213.085 25.291H168.063C167.119 25.291 166.353 26.0564 166.353 27.0006V56.1237C166.353 57.0679 167.119 57.8333 168.063 57.8333H213.085C214.029 57.8333 214.795 57.0679 214.795 56.1237V27.0006C214.795 26.0564 214.029 25.291 213.085 25.291Z" fill="white" stroke="#C8CCD0" stroke-width="0.78445"/>
<path d="M215.531 22.5393H170.509C169.565 22.5393 168.8 23.3047 168.8 24.2489V53.372C168.8 54.3162 169.565 55.0816 170.509 55.0816H215.531C216.475 55.0816 217.241 54.3162 217.241 53.372V24.2489C217.241 23.3047 216.475 22.5393 215.531 22.5393Z" fill="white" stroke="#C8CCD0" stroke-width="0.78445"/>
<path d="M203.309 29.7908H173.253C172.603 29.7908 172.076 30.3176 172.076 30.9674V33.8118C172.076 34.4617 172.603 34.9885 173.253 34.9885H203.309C203.959 34.9885 204.486 34.4617 204.486 33.8118V30.9674C204.486 30.3176 203.959 29.7908 203.309 29.7908Z" fill="#CFEAFE"/>
<path d="M180.989 25.2046H173.253C172.603 25.2046 172.076 25.7314 172.076 26.3813V26.4739C172.076 27.1238 172.603 27.6506 173.253 27.6506H180.989C181.639 27.6506 182.166 27.1238 182.166 26.4739V26.3813C182.166 25.7314 181.639 25.2046 180.989 25.2046Z" fill="#F7CC46"/>
<path d="M211.258 36.8232H173.253C172.603 36.8232 172.076 37.3501 172.076 37.9999V38.3983C172.076 39.0482 172.603 39.575 173.253 39.575H211.258C211.908 39.575 212.435 39.0482 212.435 38.3983V37.9999C212.435 37.3501 211.908 36.8232 211.258 36.8232Z" fill="#EFF0F1"/>
<path d="M211.258 41.7151H173.253C172.603 41.7151 172.076 42.2419 172.076 42.8918V43.2902C172.076 43.94 172.603 44.4668 173.253 44.4668H211.258C211.908 44.4668 212.435 43.94 212.435 43.2902V42.8918C212.435 42.2419 211.908 41.7151 211.258 41.7151Z" fill="#EFF0F1"/>
<path d="M180.072 46.6072H173.559C172.909 46.6072 172.382 47.134 172.382 47.7839V50.6282C172.382 51.2781 172.909 51.8049 173.559 51.8049H180.072C180.722 51.8049 181.249 51.2781 181.249 50.6282V47.7839C181.249 47.134 180.722 46.6072 180.072 46.6072Z" fill="#CFEAFE"/>
<path d="M126.749 24.2087H120.236C119.586 24.2087 119.059 24.7356 119.059 25.3854V28.2298C119.059 28.8797 119.586 29.4065 120.236 29.4065H126.749C127.399 29.4065 127.926 28.8797 127.926 28.2298V25.3854C127.926 24.7356 127.399 24.2087 126.749 24.2087Z" fill="#CFEAFE"/>
<path d="M202.698 46.6072H196.184C195.534 46.6072 195.008 47.134 195.008 47.7839V50.6282C195.008 51.2781 195.534 51.8049 196.184 51.8049H202.698C203.347 51.8049 203.874 51.2781 203.874 50.6282V47.7839C203.874 47.134 203.347 46.6072 202.698 46.6072Z" fill="#CFEAFE"/>
<path d="M177.091 25.291H168.179C167.171 25.291 166.353 26.1082 166.353 27.1163V36.0288C166.353 37.0369 167.171 37.8541 168.179 37.8541H177.091C178.099 37.8541 178.916 37.0369 178.916 36.0288V27.1163C178.916 26.1082 178.099 25.291 177.091 25.291Z" fill="white" stroke="#C8CCD0" stroke-width="0.837537"/>
<g opacity="0.4">
<path d="M169.157 22.6007C169.075 22.5189 168.943 22.5189 168.861 22.6007C168.779 22.6824 168.779 22.815 168.861 22.8968L169.698 23.7343C169.78 23.8161 169.913 23.8161 169.995 23.7343C170.076 23.6525 170.076 23.5199 169.995 23.4382L169.157 22.6007Z" fill="black"/>
<path d="M169.847 24.6331H169.009C168.893 24.6331 168.8 24.7268 168.8 24.8425C168.8 24.9581 168.893 25.0518 169.009 25.0518H169.847C169.962 25.0518 170.056 24.9581 170.056 24.8425C170.056 24.7268 169.962 24.6331 169.847 24.6331Z" fill="black"/>
<path d="M174.034 25.0518H173.197C173.081 25.0518 172.987 24.9581 172.987 24.8425C172.987 24.7268 173.081 24.6331 173.197 24.6331H174.034C174.15 24.6331 174.244 24.7268 174.244 24.8425C174.244 24.9581 174.15 25.0518 174.034 25.0518Z" fill="black"/>
<path d="M174.182 22.8968C174.264 22.815 174.264 22.6824 174.182 22.6007C174.1 22.5189 173.968 22.5189 173.886 22.6007L173.048 23.4382C172.967 23.5199 172.967 23.6525 173.048 23.7343C173.13 23.8161 173.263 23.8161 173.345 23.7343L174.182 22.8968Z" fill="black"/>
</g>
<path d="M173.421 35.4386C173.234 35.5951 172.993 35.6722 172.75 35.6535H172.076V33.1409H172.913L173.332 29.9457C173.332 29.8619 173.428 29.7908 173.541 29.7908C173.655 29.7908 173.751 29.8619 173.751 29.9457V34.816C173.726 35.0586 173.608 35.2821 173.421 35.4386Z" fill="#FFC166"/>
<path d="M172.406 30.8524C172.593 31.009 172.834 31.0861 173.077 31.0674H173.751V28.5547H172.914L172.495 25.3595C172.495 25.2758 172.399 25.2046 172.285 25.2046C172.172 25.2046 172.076 25.2758 172.076 25.3595V30.2298C172.1 30.4725 172.219 30.6959 172.406 30.8524Z" fill="#FFC166"/>
<g opacity="0.7">
<path d="M172.704 36.8232C172.357 36.8232 172.076 37.1045 172.076 37.4514V38.7077C172.076 39.0546 172.357 39.3359 172.704 39.3359H173.332V36.8232H172.704Z" fill="#0077CC"/>
<path d="M178.567 36.8232H177.938V39.3359H178.567C178.913 39.3359 179.195 39.0546 179.195 38.7077V37.4514C179.195 37.1045 178.913 36.8232 178.567 36.8232Z" fill="#0077CC"/>
</g>
<path d="M221.37 41.7151H174.323C173.082 41.7151 172.076 42.7209 172.076 43.9616V51.8383C172.076 53.0791 173.082 54.0849 174.323 54.0849H221.37C222.611 54.0849 223.617 53.0791 223.617 51.8383V43.9616C223.617 42.7209 222.611 41.7151 221.37 41.7151Z" fill="white" stroke="#C8CCD0" stroke-width="1.03082"/>
<path d="M206.806 46.6072H173.928C173.074 46.6072 172.382 47.2994 172.382 48.1534V52.18C172.382 53.034 173.074 53.7262 173.928 53.7262H206.806C207.66 53.7262 208.352 53.034 208.352 52.18V48.1534C208.352 47.2994 207.66 46.6072 206.806 46.6072Z" fill="#EFF0F1"/>
<path d="M189.364 47.1226V46.6072H185.241V47.1226H183.695V48.6688C183.695 49.4935 184.416 50.215 185.241 50.215C185.241 50.215 185.499 51.2458 186.787 51.2458V51.7613H185.756C185.756 51.7613 185.241 52.5344 185.241 52.7921H189.364C189.364 52.5859 188.849 51.7613 188.849 51.7613H187.818V51.2458C189.107 51.2458 189.364 50.215 189.364 50.215C190.189 50.1119 190.911 49.4935 190.911 48.6688V47.1226H189.364ZM185.241 49.1842C184.983 49.1842 184.726 48.9265 184.726 48.6688V48.1534H185.241V49.1842ZM189.88 48.6688C189.88 48.9265 189.622 49.1842 189.364 49.1842V48.1534H189.88V48.6688ZM187.303 49.6996C187.03 49.6996 186.767 49.5909 186.574 49.3976C186.381 49.2043 186.272 48.942 186.272 48.6688C186.272 48.3956 186.381 48.1333 186.574 47.94C186.767 47.7467 187.03 47.638 187.303 47.638C187.576 47.638 187.838 47.7467 188.031 47.94C188.225 48.1333 188.334 48.3956 188.334 48.6688C188.334 48.942 188.225 49.2043 188.031 49.3976C187.838 49.5909 187.576 49.6996 187.303 49.6996Z" fill="#F7CC46"/>
<path d="M210.276 46.6072H196.814C195.816 46.6072 195.008 47.4158 195.008 48.4132V65.3311C195.008 66.3286 195.816 67.1371 196.814 67.1371H210.276C211.274 67.1371 212.082 66.3286 212.082 65.3311V48.4132C212.082 47.4158 211.274 46.6072 210.276 46.6072Z" fill="white" stroke="#C8CCD0" stroke-width="0.828682"/>
<path d="M155.363 38.0281H141.9C140.903 38.0281 140.094 38.8367 140.094 39.8341V56.752C140.094 57.7495 140.903 58.558 141.9 58.558H155.363C156.36 58.558 157.169 57.7495 157.169 56.752V39.8341C157.169 38.8367 156.36 38.0281 155.363 38.0281Z" fill="white" stroke="#C8CCD0" stroke-width="0.828682"/>
<path d="M124.283 62.0859H113.511C112.824 62.0859 112.268 62.6425 112.268 63.329C112.268 64.0155 112.824 64.572 113.511 64.572H124.283C124.97 64.572 125.527 64.0155 125.527 63.329C125.527 62.6425 124.97 62.0859 124.283 62.0859Z" fill="#EFF0F1"/>
<path d="M124.283 66.6438H113.511C112.824 66.6438 112.268 67.2003 112.268 67.8868C112.268 68.5733 112.824 69.1299 113.511 69.1299H124.283C124.97 69.1299 125.527 68.5733 125.527 67.8868C125.527 67.2003 124.97 66.6438 124.283 66.6438Z" fill="#EFF0F1"/>
<path d="M124.491 71.2014H113.303C112.731 71.2014 112.268 71.6652 112.268 72.2373C112.268 72.8094 112.731 73.2731 113.303 73.2731H124.491C125.063 73.2731 125.527 72.8094 125.527 72.2373C125.527 71.6652 125.063 71.2014 124.491 71.2014Z" fill="#EFF0F1"/>
<path d="M113.237 59.1522C113.93 59.1522 114.493 58.5897 114.493 57.8958C114.493 57.2019 113.93 56.6394 113.237 56.6394C112.543 56.6394 111.98 57.2019 111.98 57.8958C111.98 58.5897 112.543 59.1522 113.237 59.1522Z" fill="#0095FF"/>
<path fill-rule="evenodd" clip-rule="evenodd" d="M194.648 68.3547L214.255 62.9182C215.036 62.7012 215.846 63.1589 216.062 63.9407L217.633 69.6025C217.849 70.3843 217.391 71.1935 216.61 71.4105L196.796 76.9048C196.795 76.9048 196.794 76.9043 196.793 76.9027C196.793 76.9017 196.792 76.9012 196.791 76.9012C194.401 77.4542 192.002 76.1162 191.371 73.8365C190.738 71.5569 192.105 69.1747 194.438 68.4176C194.439 68.4176 194.44 68.416 194.44 68.415C194.439 68.4139 194.44 68.4124 194.441 68.4124L194.635 68.3583C194.637 68.3578 194.639 68.3573 194.641 68.3567C194.643 68.3562 194.645 68.3557 194.648 68.3547V68.3547Z" fill="white"/>
<mask id="mask0_1_509" style="mask-type:luminance" maskUnits="userSpaceOnUse" x="191" y="62" width="27" height="16">
<path fill-rule="evenodd" clip-rule="evenodd" d="M194.648 68.3547L214.255 62.9182C215.036 62.7012 215.846 63.1589 216.062 63.9407L217.633 69.6025C217.849 70.3843 217.391 71.1935 216.61 71.4105L196.796 76.9048C196.795 76.9048 196.794 76.9043 196.793 76.9027C196.793 76.9017 196.792 76.9012 196.791 76.9012C194.401 77.4542 192.002 76.1162 191.371 73.8365C190.738 71.5569 192.105 69.1747 194.438 68.4176C194.439 68.4176 194.44 68.416 194.44 68.415C194.439 68.4139 194.44 68.4124 194.441 68.4124L194.635 68.3583C194.637 68.3578 194.639 68.3573 194.641 68.3567C194.643 68.3562 194.645 68.3557 194.648 68.3547V68.3547Z" fill="white"/>
</mask>
<g mask="url(#mask0_1_509)">
<path d="M194.648 68.3547L194.843 69.0628H194.844L194.648 68.3547ZM194.635 68.3583L194.831 69.0659H194.832L194.635 68.3583ZM196.791 76.9012L196.625 76.1858L196.791 76.9012ZM194.438 68.4176L194.212 67.7192L194.438 68.4176ZM194.844 69.0628L214.451 63.6258L214.058 62.21L194.452 67.647L194.844 69.0628ZM215.355 64.1371L216.924 69.7988L218.34 69.4061L216.77 63.7444L215.355 64.1371ZM216.413 70.7024L196.6 76.1966L196.993 77.6124L216.806 72.1182L216.413 70.7024ZM196.625 76.1858C194.587 76.6574 192.597 75.5106 192.078 73.6402L190.662 74.0329C191.408 76.7218 194.214 78.251 196.956 77.6171L196.625 76.1858ZM192.078 73.6402C191.559 71.7698 192.675 69.7617 194.665 69.1164L194.212 67.7192C191.534 68.5876 189.917 71.3435 190.662 74.0329L192.078 73.6402ZM194.637 69.1201L194.831 69.0659L194.439 67.6506L194.245 67.7042L194.637 69.1201ZM194.832 69.0659C194.834 69.0654 194.836 69.0649 194.838 69.0644L194.445 67.6491C194.442 67.6496 194.44 67.6501 194.438 67.6511L194.832 69.0659ZM194.838 69.0644C194.839 69.0639 194.841 69.0634 194.843 69.0628L194.452 67.647C194.45 67.6475 194.448 67.6486 194.445 67.6491L194.838 69.0644ZM195.148 68.2186C195.255 68.6083 195.027 69.0118 194.637 69.1201L194.245 67.7042C193.853 67.813 193.623 68.2191 193.732 68.6113L195.148 68.2186ZM197.501 76.7069C197.394 76.3218 197.005 76.0982 196.625 76.1858L196.956 77.6171C196.579 77.7042 196.192 77.4815 196.086 77.0991L197.501 76.7069ZM196.6 76.1966C196.99 76.0889 197.393 76.3172 197.501 76.7069L196.086 77.0991C196.194 77.4913 196.6 77.7212 196.993 77.6124L196.6 76.1966ZM216.924 69.7988C217.033 70.1895 216.804 70.5941 216.413 70.7024L216.806 72.1182C217.979 71.793 218.665 70.5787 218.34 69.4061L216.924 69.7988ZM194.665 69.1164C195.036 68.9964 195.254 68.6036 195.148 68.2186L193.732 68.6113C193.626 68.2289 193.843 67.8388 194.212 67.7192L194.665 69.1164ZM214.451 63.6258C214.842 63.5171 215.246 63.7464 215.355 64.1371L216.77 63.7444C216.445 62.5718 215.231 61.8851 214.058 62.21L214.451 63.6258Z" fill="#C8CCD0"/>
</g>
<path d="M206.182 68.5032C206.964 68.2865 207.422 67.4771 207.205 66.6954C206.988 65.9136 206.179 65.4557 205.397 65.6725C204.615 65.8892 204.158 66.6986 204.374 67.4803C204.591 68.262 205.4 68.72 206.182 68.5032Z" fill="white"/>
<path d="M206.084 68.1495C206.67 67.987 207.014 67.3799 206.851 66.7936C206.689 66.2073 206.082 65.8639 205.495 66.0264C204.909 66.189 204.566 66.7961 204.728 67.3823C204.891 67.9686 205.498 68.3121 206.084 68.1495Z" stroke="#ADDAFC" stroke-width="0.734404"/>
<path d="M271.079 55.007L258.021 58.6278C257.328 58.8201 256.921 59.5384 257.113 60.2321L257.987 63.3816C258.179 64.0753 258.897 64.4817 259.591 64.2894L272.648 60.6685C273.342 60.4762 273.749 59.7579 273.556 59.0642L272.683 55.9147C272.49 55.221 271.772 54.8146 271.079 55.007Z" fill="#CFEAFE"/>
<path d="M149.839 52.9705H113.502C112.543 52.9705 111.767 53.7473 111.767 54.7056V60.7892C111.767 61.7475 112.543 62.5244 113.502 62.5244H149.839C150.798 62.5244 151.574 61.7475 151.574 60.7892V54.7056C151.574 53.7473 150.798 52.9705 149.839 52.9705Z" fill="white" stroke="#C8CCD0" stroke-width="0.796155"/>
<path d="M136.784 54.855H111.39C110.731 54.855 110.196 55.3897 110.196 56.0492V59.1592C110.196 59.8188 110.731 60.3534 111.39 60.3534H136.784C137.443 60.3534 137.978 59.8188 137.978 59.1592V56.0492C137.978 55.3897 137.443 54.855 136.784 54.855Z" fill="#EFF0F1"/>
<path d="M117.579 62.0859H112.53C112.385 62.0859 112.268 62.2033 112.268 62.3481V67.3968C112.268 67.5417 112.385 67.659 112.53 67.659H117.579C117.723 67.659 117.841 67.5417 117.841 67.3968V62.3481C117.841 62.2033 117.723 62.0859 117.579 62.0859Z" fill="url(#paint0_linear_1_509)"/>
<path d="M112.934 66.6438C112.934 67.1118 114.363 67.2989 114.363 67.2989C114.363 67.9741 114.077 68.7967 113.315 68.7967C112.553 68.7967 112.268 67.9741 112.268 67.2989L113.125 66.9242" stroke="white" stroke-width="0.256365" stroke-miterlimit="10"/>
<path d="M114.429 72.8481L114.609 72.6549V72.1673C114.609 71.6333 114.206 71.2014 113.708 71.2014H113.168C112.67 71.2014 112.268 71.6333 112.268 72.1673V72.6502L112.447 72.843" stroke="white" stroke-width="0.256365" stroke-miterlimit="10"/>
<path d="M59.461 81.4211C59.461 81.8433 59.1002 82.1809 58.6601 82.1809C58.2148 82.1809 57.8591 81.8386 57.8591 81.4211" stroke="white" stroke-width="0.256365" stroke-miterlimit="10"/>
<path d="M59.2141 80.8511V81.1536C59.2141 81.3077 59.4724 81.4278 59.4724 81.4278L59.9888 81.7025C60.5094 81.8855 60.9397 82.2561 60.9397 82.8143" stroke="white" stroke-width="0.256365" stroke-miterlimit="10"/>
<path d="M58.1055 80.8511V81.1536C58.1055 81.3077 57.8473 81.4278 57.8473 81.4278L57.3308 81.7025C56.8103 81.8855 56.3799 82.2561 56.3799 82.8143" stroke="white" stroke-width="0.256365" stroke-miterlimit="10"/>
<path d="M294.838 58.9761H258.5C257.542 58.9761 256.765 59.7529 256.765 60.7112V66.7949C256.765 67.7531 257.542 68.53 258.5 68.53H294.838C295.796 68.53 296.573 67.7531 296.573 66.7949V60.7112C296.573 59.7529 295.796 58.9761 294.838 58.9761Z" fill="white" stroke="#C8CCD0" stroke-width="0.796155"/>
<path d="M80.0723 75.2505H54.6791C54.0195 75.2505 53.4849 75.7852 53.4849 76.4447V79.5547C53.4849 80.2143 54.0195 80.749 54.6791 80.749H80.0723C80.7319 80.749 81.2666 80.2143 81.2666 79.5547V76.4447C81.2666 75.7852 80.7319 75.2505 80.0723 75.2505Z" fill="#EFF0F1"/>
<path d="M68.6555 77.1169H63.6068C63.462 77.1169 63.3446 77.2343 63.3446 77.3791V82.4279C63.3446 82.5727 63.462 82.69 63.6068 82.69H68.6555C68.8003 82.69 68.9177 82.5727 68.9177 82.4279V77.3791C68.9177 77.2343 68.8003 77.1169 68.6555 77.1169Z" fill="url(#paint1_linear_1_509)"/>
<path d="M56.5402 77.241C56.5402 77.7095 57.9689 77.8966 57.9689 77.8966C57.9689 78.5717 57.6829 79.3943 56.9211 79.3943C56.1593 79.3943 55.8738 78.5717 55.8738 77.8966L56.7309 77.5219" stroke="white" stroke-width="0.256365" stroke-miterlimit="10"/>
<path d="M59.6512 66.3665L59.8316 66.1732V65.6856C59.8316 65.1516 59.4285 64.7197 58.9307 64.7197H58.3905C57.8926 64.7197 57.4901 65.1516 57.4901 65.6856V66.168L57.67 66.3613" stroke="white" stroke-width="0.256365" stroke-miterlimit="10"/>
<path d="M59.461 67.8865C59.461 68.3086 59.1002 68.6462 58.6601 68.6462C58.2148 68.6462 57.8591 68.304 57.8591 67.8865" stroke="white" stroke-width="0.256365" stroke-miterlimit="10"/>
<path d="M59.2141 67.3164V67.619C59.2141 67.7731 59.4724 67.8931 59.4724 67.8931L59.9888 68.1673C60.5094 68.3503 60.9397 68.7214 60.9397 69.2796" stroke="white" stroke-width="0.256365" stroke-miterlimit="10"/>
<path d="M58.1055 67.3164V67.619C58.1055 67.7731 57.8473 67.8931 57.8473 67.8931L57.3308 68.1673C56.8103 68.3503 56.3799 68.7214 56.3799 69.2796" stroke="white" stroke-width="0.256365" stroke-miterlimit="10"/>
<path d="M99.9175 68.4834H63.5799C62.6216 68.4834 61.8448 69.2602 61.8448 70.2185V76.3022C61.8448 77.2605 62.6216 78.0373 63.5799 78.0373H99.9175C100.876 78.0373 101.653 77.2605 101.653 76.3022V70.2185C101.653 69.2602 100.876 68.4834 99.9175 68.4834Z" fill="white" stroke="#C8CCD0" stroke-width="0.796155"/>
<path d="M80.0723 61.7161H54.6791C54.0195 61.7161 53.4849 62.2507 53.4849 62.9103V66.0203C53.4849 66.6799 54.0195 67.2145 54.6791 67.2145H80.0723C80.7319 67.2145 81.2666 66.6799 81.2666 66.0203V62.9103C81.2666 62.2507 80.7319 61.7161 80.0723 61.7161Z" fill="#EFF0F1"/>
<path d="M68.6555 63.5823H63.6068C63.462 63.5823 63.3446 63.6997 63.3446 63.8445V68.8932C63.3446 69.038 63.462 69.1554 63.6068 69.1554H68.6555C68.8003 69.1554 68.9177 69.038 68.9177 68.8932V63.8445C68.9177 63.6997 68.8003 63.5823 68.6555 63.5823Z" fill="url(#paint2_linear_1_509)"/>
<path d="M56.5407 63.7065C56.5407 64.1745 57.9689 64.3616 57.9689 64.3616C57.9689 65.0368 57.6834 65.8594 56.9216 65.8594C56.1593 65.8594 55.8738 65.0368 55.8738 64.3616L56.7309 63.9869" stroke="white" stroke-width="0.256365" stroke-miterlimit="10"/>
<path d="M68.0111 73.1338L68.191 72.9405V72.4529C68.191 71.919 67.7884 71.4871 67.2906 71.4871H66.7499C66.2525 71.4871 65.8495 71.919 65.8495 72.4529V72.9354L66.0299 73.1286" stroke="white" stroke-width="0.256365" stroke-miterlimit="10"/>
<path d="M67.8204 74.6538C67.8204 75.0759 67.4601 75.4135 67.0195 75.4135C66.5747 75.4135 66.2185 75.0713 66.2185 74.6538" stroke="white" stroke-width="0.256365" stroke-miterlimit="10"/>
<path d="M67.5741 74.0837V74.3863C67.5741 74.5404 67.8323 74.6605 67.8323 74.6605L68.3482 74.9352C68.8693 75.1182 69.2991 75.4887 69.2991 76.0469" stroke="white" stroke-width="0.256365" stroke-miterlimit="10"/>
<path d="M66.4649 74.0837V74.3863C66.4649 74.5404 66.2067 74.6605 66.2067 74.6605L65.6907 74.9352C65.1697 75.1182 64.7398 75.4887 64.7398 76.0469" stroke="white" stroke-width="0.256365" stroke-miterlimit="10"/>
<path d="M82.6102 20.532H51.7312C51.0186 20.532 50.441 21.1096 50.441 21.8222V39.414C50.441 40.1266 51.0186 40.7043 51.7312 40.7043H82.6102C83.3228 40.7043 83.9004 40.1266 83.9004 39.414V21.8222C83.9004 21.1096 83.3228 20.532 82.6102 20.532Z" fill="white" stroke="#C8CCD0" stroke-width="0.892871"/>
<path fill-rule="evenodd" clip-rule="evenodd" d="M61.8448 73.6687L62.8173 72.6964H66.3819C66.735 72.6964 67.0303 72.4013 67.0303 72.0483V69.1316C67.0303 68.7785 66.735 68.4834 66.3819 68.4834H62.4932C62.1365 68.4834 61.8448 68.7751 61.8448 69.1316V73.6687ZM64.4249 72.0677C64.2399 72.0613 64.0909 71.9284 64.0971 71.7242C64.1038 71.52 64.2595 71.3872 64.4476 71.3936C64.6419 71.4001 64.7877 71.5395 64.781 71.7437C64.7749 71.9478 64.6254 72.0742 64.4249 72.0677V72.0677ZM64.7228 70.8757C64.7079 70.945 64.6991 71.0155 64.697 71.0864C64.697 71.0993 64.6872 71.1318 64.645 71.1318H64.1914C64.1461 71.1318 64.1394 71.1026 64.1394 71.0896C64.1352 70.9284 64.1754 70.7691 64.2564 70.6294C64.3239 70.5121 64.4445 70.4175 64.5996 70.328C64.7331 70.2513 64.8511 70.0973 64.8532 69.9404C64.8548 69.8524 64.8243 69.767 64.7682 69.6993C64.697 69.6151 64.6192 69.5697 64.4703 69.5697C64.3244 69.5697 64.2012 69.6442 64.1394 69.7382C64.0852 69.8238 64.0863 69.917 64.0873 70.0066C64.0873 70.0187 64.0878 70.0309 64.0878 70.0429H63.5302C63.5302 69.6637 63.6307 69.4206 63.8476 69.278C64.0286 69.1772 64.2337 69.1279 64.4409 69.1354C64.7259 69.1354 64.9527 69.1873 65.1537 69.3363C65.3418 69.4725 65.4392 69.6669 65.4392 69.9262C65.4392 70.0882 65.3841 70.2178 65.2995 70.328C65.2511 70.3928 65.1573 70.4803 65.0212 70.584L64.8656 70.6813C64.7986 70.7293 64.7486 70.7974 64.7228 70.8757V70.8757Z" fill="#6ECB64"/>
<path d="M72.3527 71.6459C72.7106 71.6459 73.0008 71.3557 73.0008 70.9978C73.0008 70.6398 72.7106 70.3496 72.3527 70.3496C71.9947 70.3496 71.7045 70.6398 71.7045 70.9978C71.7045 71.3557 71.9947 71.6459 72.3527 71.6459Z" fill="#6ECB64"/>
<path d="M64.8813 71.7702C65.2393 71.7702 65.5295 71.48 65.5295 71.122C65.5295 70.7641 65.2393 70.4739 64.8813 70.4739C64.5234 70.4739 64.2332 70.7641 64.2332 71.122C64.2332 71.48 64.5234 71.7702 64.8813 71.7702Z" fill="#6ECB64"/>
<path d="M71.7076 35.6413C72.0656 35.6413 72.3558 35.3511 72.3558 34.9931C72.3558 34.6352 72.0656 34.345 71.7076 34.345C71.3496 34.345 71.0595 34.6352 71.0595 34.9931C71.0595 35.3511 71.3496 35.6413 71.7076 35.6413Z" fill="#6ECB64"/>
<path d="M80.134 29.4838C80.492 29.4838 80.7822 29.1936 80.7822 28.8357C80.7822 28.4777 80.492 28.1875 80.134 28.1875C79.776 28.1875 79.4859 28.4777 79.4859 28.8357C79.4859 29.1936 79.776 29.4838 80.134 29.4838Z" fill="#6ECB64"/>
<path d="M54.2075 36.9377L61.3371 32.7246L71.7076 34.9932L80.134 28.8357" stroke="#6ECB64" stroke-width="0.324079"/>
<path d="M103.742 31.8708H72.8628C72.1502 31.8708 71.5726 32.4485 71.5726 33.1611V50.7529C71.5726 51.4655 72.1502 52.0431 72.8628 52.0431H103.742C104.454 52.0431 105.032 51.4655 105.032 50.7529V33.1611C105.032 32.4485 104.454 31.8708 103.742 31.8708Z" fill="white" stroke="#C8CCD0" stroke-width="0.892871"/>
<path d="M75.3392 48.9247C75.6971 48.9247 75.9873 48.6345 75.9873 48.2766C75.9873 47.9186 75.6971 47.6284 75.3392 47.6284C74.9812 47.6284 74.691 47.9186 74.691 48.2766C74.691 48.6345 74.9812 48.9247 75.3392 48.9247Z" fill="#F2720C"/>
<path d="M51.0891 21.8283C51.4471 21.8283 51.7373 21.5381 51.7373 21.1801C51.7373 20.8222 51.4471 20.532 51.0891 20.532C50.7312 20.532 50.441 20.8222 50.441 21.1801C50.441 21.5381 50.7312 21.8283 51.0891 21.8283Z" fill="#F2720C"/>
<path d="M92.8393 46.9801C93.1973 46.9801 93.4875 46.69 93.4875 46.332C93.4875 45.974 93.1973 45.6838 92.8393 45.6838C92.4814 45.6838 92.1912 45.974 92.1912 46.332C92.1912 46.69 92.4814 46.9801 92.8393 46.9801Z" fill="#F2720C"/>
<path d="M101.266 40.8227C101.624 40.8227 101.914 40.5325 101.914 40.1745C101.914 39.8166 101.624 39.5264 101.266 39.5264C100.908 39.5264 100.618 39.8166 100.618 40.1745C100.618 40.5325 100.908 40.8227 101.266 40.8227Z" fill="#F2720C"/>
<path d="M75.3392 48.2766L82.4688 44.0635L92.8393 46.3321L101.266 40.1746" stroke="#F2720C" stroke-width="0.324079"/>
<path d="M78.1502 37.8005H74.7836C74.4501 37.8005 74.1713 37.5217 74.1713 37.1883V34.4337C74.1713 34.097 74.447 33.8215 74.7836 33.8215H78.4564C78.7898 33.8215 79.0687 34.1003 79.0687 34.4337V38.7187L78.1502 37.8005ZM77.8384 36.8823L76.871 34.4337H76.3566L75.4201 36.8823H75.9345L76.1334 36.3344H77.0977L77.3085 36.8823H77.8384ZM76.9416 35.9273H76.2834L76.6076 35.0336L76.9416 35.9273Z" fill="#F48024"/>
<path d="M285.866 80.3882H255.827C254.586 80.3882 253.58 81.394 253.58 82.6347V110.097C253.58 111.338 254.586 112.343 255.827 112.343H285.866C287.107 112.343 288.113 111.338 288.113 110.097V82.6347C288.113 81.394 287.107 80.3882 285.866 80.3882Z" fill="white" stroke="#D6D9DC" stroke-width="1.03082"/>
<path d="M259.422 84.4806L258.937 83.9961L256.875 86.0577L258.937 88.1194L259.422 87.6349L257.844 86.0577L259.422 84.4806Z" fill="#6ECB64"/>
<path d="M71.5726 32.3553L72.0571 31.8708L74.1187 33.9325L72.0571 35.9941L71.5726 35.5096L73.1497 33.9325L71.5726 32.3553Z" fill="#6ECB64"/>
<path d="M284.247 91.7271H257.961C257.25 91.7271 256.673 92.3039 256.673 93.0156C256.673 93.7272 257.25 94.3041 257.961 94.3041H284.247C284.959 94.3041 285.536 93.7272 285.536 93.0156C285.536 92.3039 284.959 91.7271 284.247 91.7271Z" fill="#EFF0F1"/>
<path d="M284.247 105.128H257.961C257.25 105.128 256.673 105.705 256.673 106.416C256.673 107.128 257.25 107.705 257.961 107.705H284.247C284.959 107.705 285.536 107.128 285.536 106.416C285.536 105.705 284.959 105.128 284.247 105.128Z" fill="#EFF0F1"/>
<path d="M284.247 97.9121H257.961C257.25 97.9121 256.673 98.489 256.673 99.2006C256.673 99.9123 257.25 100.489 257.961 100.489H284.247C284.959 100.489 285.536 99.9123 285.536 99.2006C285.536 98.489 284.959 97.9121 284.247 97.9121Z" fill="#EFF0F1"/>
<path d="M188.381 115.178C167.25 35.8055 72.9302 97.3967 90.454 139.402" stroke="#CFEAFE" stroke-width="0.773111" stroke-linecap="round" stroke-dasharray="1.03 3.09"/>
<path d="M78.3321 155.467C86.7565 167.041 97.2636 175.471 109.266 181.455" stroke="#CFEAFE" stroke-width="0.773111" stroke-linecap="round" stroke-dasharray="1.03 3.09"/>
<path d="M242.947 35.4783H221.387C220.568 35.4783 219.904 36.1425 219.904 36.9619V41.8048C219.904 42.6242 220.568 43.2884 221.387 43.2884H242.947C243.766 43.2884 244.43 42.6242 244.43 41.8048V36.9619C244.43 36.1425 243.766 35.4783 242.947 35.4783Z" fill="white" stroke="#C8CCD0" stroke-width="0.680776"/>
<path d="M269.807 80.3882H254.602C254.038 80.3882 253.58 80.8454 253.58 81.4093V83.8778C253.58 84.4418 254.038 84.899 254.602 84.899H269.807C270.371 84.899 270.828 84.4418 270.828 83.8778V81.4093C270.828 80.8454 270.371 80.3882 269.807 80.3882Z" fill="#EFF0F1"/>
<path d="M223.146 40.4447C223.805 40.4447 224.34 39.9101 224.34 39.2507C224.34 38.5912 223.805 38.0566 223.146 38.0566C222.486 38.0566 221.952 38.5912 221.952 39.2507C221.952 39.9101 222.486 40.4447 223.146 40.4447Z" fill="#F7CC46"/>
<path d="M254.18 24.0337H232.621C231.801 24.0337 231.137 24.6979 231.137 25.5174V30.7193C231.137 31.5387 231.801 32.203 232.621 32.203H254.18C255 32.203 255.664 31.5387 255.664 30.7193V25.5174C255.664 24.6979 255 24.0337 254.18 24.0337Z" fill="white" stroke="#C8CCD0" stroke-width="0.680776"/>
<path d="M272.899 91.7271H257.694C257.13 91.7271 256.673 92.1842 256.673 92.7482V95.4713C256.673 96.0353 257.13 96.4925 257.694 96.4925H272.899C273.463 96.4925 273.92 96.0353 273.92 95.4713V92.7482C273.92 92.1842 273.463 91.7271 272.899 91.7271Z" fill="#EFF0F1"/>
<path d="M257.867 107.516C258.526 107.516 259.061 106.981 259.061 106.322C259.061 105.662 258.526 105.128 257.867 105.128C257.207 105.128 256.673 105.662 256.673 106.322C256.673 106.981 257.207 107.516 257.867 107.516Z" fill="#B5B8BC"/>
<path d="M279.716 97.9121H258.157C257.337 97.9121 256.673 98.5764 256.673 99.3958V104.239C256.673 105.058 257.337 105.722 258.157 105.722H279.716C280.535 105.722 281.2 105.058 281.2 104.239V99.3958C281.2 98.5764 280.535 97.9121 279.716 97.9121Z" fill="white" stroke="#C8CCD0" stroke-width="0.680776"/>
<path d="M253.302 47.9841H238.097C237.533 47.9841 237.076 48.4413 237.076 49.0053V51.4738C237.076 52.0378 237.533 52.4949 238.097 52.4949H253.302C253.866 52.4949 254.323 52.0378 254.323 51.4738V49.0053C254.323 48.4413 253.866 47.9841 253.302 47.9841Z" fill="#EFF0F1"/>
<path d="M234.29 51.4337C234.95 51.4337 235.484 50.8991 235.484 50.2397C235.484 49.5802 234.95 49.0457 234.29 49.0457C233.631 49.0457 233.096 49.5802 233.096 50.2397C233.096 50.8991 233.631 51.4337 234.29 51.4337Z" fill="#CAA789"/>
<path d="M221.661 38.9931C222.632 38.9931 223.419 38.2063 223.419 37.2357C223.419 36.2651 222.632 35.4783 221.661 35.4783C220.691 35.4783 219.904 36.2651 219.904 37.2357C219.904 38.2063 220.691 38.9931 221.661 38.9931Z" fill="#FEE3CF" stroke="#F48024" stroke-width="1.03082"/>
<path d="M227.689 40.5102C228.66 40.5102 229.447 39.7233 229.447 38.7528C229.447 37.7822 228.66 36.9954 227.689 36.9954C226.719 36.9954 225.932 37.7822 225.932 38.7528C225.932 39.7233 226.719 40.5102 227.689 40.5102Z" fill="#FEE3CF" stroke="#F48024" stroke-width="1.03082"/>
<path d="M77.5224 156.06C78.493 156.06 79.2798 155.273 79.2798 154.303C79.2798 153.332 78.493 152.545 77.5224 152.545C76.5519 152.545 75.765 153.332 75.765 154.303C75.765 155.273 76.5519 156.06 77.5224 156.06Z" fill="#E7FFE4" stroke="#6ECB64" stroke-width="1.03082"/>
<path d="M232.894 27.5485C233.865 27.5485 234.652 26.7617 234.652 25.7911C234.652 24.8205 233.865 24.0337 232.894 24.0337C231.924 24.0337 231.137 24.8205 231.137 25.7911C231.137 26.7617 231.924 27.5485 232.894 27.5485Z" fill="#E7FFE4" stroke="#6ECB64" stroke-width="1.03082"/>
<path d="M397.456 70.27C397.456 72.1533 395.93 73.6795 394.047 73.6795H240.574C238.691 73.6795 237.165 72.1533 237.165 70.27V37.4025C237.165 35.5192 238.691 33.9931 240.574 33.9931H244.673C245.679 33.9931 246.633 33.5488 247.281 32.7793L252.056 27.1052C253.362 25.5538 255.725 25.478 257.127 26.9423L262.873 32.9422C263.517 33.6132 264.406 33.9931 265.335 33.9931H394.047C395.93 33.9931 397.456 35.5192 397.456 37.4025V70.27Z" fill="white"/>
<path d="M394.047 73.1642H240.574C238.976 73.1642 237.68 71.8684 237.68 70.2701V37.4026C237.68 35.8043 238.976 34.5086 240.574 34.5086H244.673C245.831 34.5086 246.93 33.9973 247.675 33.1113L252.451 27.4367C253.559 26.1203 255.565 26.0559 256.755 27.2986L262.501 33.2984C263.241 34.0715 264.265 34.5086 265.335 34.5086H394.047C395.645 34.5086 396.941 35.8043 396.941 37.4026V70.2701C396.941 71.8684 395.645 73.1642 394.047 73.1642V73.1642Z" stroke="#C8CCD0" stroke-width="1.03082"/>
<path d="M273.671 161.807H161.985C160.975 161.807 160.156 162.626 160.156 163.637V170.773C160.156 171.784 160.975 172.603 161.985 172.603H273.671C274.681 172.603 275.5 171.784 275.5 170.773V163.637C275.5 162.626 274.681 161.807 273.671 161.807Z" fill="#EFF0F1"/>
<path d="M303.653 46.4673H232.878C231.868 46.4673 231.048 47.2864 231.048 48.2968V55.4336C231.048 56.444 231.868 57.2631 232.878 57.2631H303.653C304.663 57.2631 305.483 56.444 305.483 55.4336V48.2968C305.483 47.2864 304.663 46.4673 303.653 46.4673Z" fill="#EFF0F1"/>
<path d="M246.721 49.1175L245.588 47.9841L240.291 53.281L238.209 51.1992L237.076 52.3326L240.291 55.5477L246.721 49.1175Z" fill="#6ECB64"/>
<path d="M150.38 181.391H142.209C141.703 181.391 141.449 182.003 141.807 182.361L146.165 186.719C146.397 186.952 146.778 186.939 146.994 186.692L150.808 182.334C151.129 181.966 150.869 181.391 150.38 181.391Z" fill="#EFF0F1"/>
<path d="M142.089 166.997H150.261C150.767 166.997 151.021 166.385 150.662 166.027L146.304 161.668C146.072 161.436 145.691 161.449 145.475 161.696L141.661 166.054C141.34 166.422 141.601 166.997 142.089 166.997V166.997Z" fill="#F48024"/>
<path d="M245.426 186.28H239.176C238.557 186.28 238.039 185.763 238.039 185.144V180.03C238.039 179.405 238.551 178.893 239.176 178.893H245.994C246.613 178.893 247.131 179.411 247.131 180.03V187.985L245.426 186.28ZM244.846 184.576L243.051 180.03H242.096L240.358 184.576H241.312L241.681 183.558H243.471L243.863 184.576H244.846ZM243.182 182.803H241.96L242.562 181.144L243.182 182.803Z" fill="#F48024"/>
<path fill-rule="evenodd" clip-rule="evenodd" d="M94.8113 111.389L97.2167 110.359L99.6216 111.389V113.115C99.6216 114.719 97.797 115.856 97.2167 115.856C96.6358 115.856 94.8113 114.719 94.8113 113.115V111.389ZM96.9208 113.176L96.5291 114.139H97.9037L97.512 113.176C97.495 113.098 97.5326 113.018 97.5981 112.974C97.7903 112.85 97.9037 112.647 97.9037 112.42C97.9037 112.046 97.5805 111.733 97.2095 111.733C96.8353 111.733 96.5291 112.046 96.5291 112.42C96.5291 112.647 96.6425 112.85 96.8353 112.974C96.9028 113.017 96.9368 113.098 96.9208 113.176Z" fill="#6A737C"/>
<path d="M42.7788 96.6829C42.7788 94.7996 44.3052 93.2734 46.188 93.2734H237.073C238.956 93.2734 240.482 94.7996 240.482 96.6829V129.64C240.482 131.522 238.956 133.048 237.073 133.048H234.377C233.379 133.048 232.431 133.486 231.783 134.245L228.277 138.356C226.973 139.885 224.637 139.96 223.237 138.518L218.933 134.083C218.291 133.422 217.408 133.048 216.487 133.048H46.188C44.3052 133.048 42.7788 131.522 42.7788 129.64V96.6829Z" fill="white"/>
<path d="M46.188 93.7888H237.073C238.671 93.7888 239.966 95.0846 239.966 96.6828V129.64C239.966 131.238 238.671 132.533 237.073 132.533H234.377C233.228 132.533 232.137 133.037 231.391 133.911L227.885 138.022C226.778 139.319 224.795 139.383 223.607 138.159L219.303 133.725C218.564 132.963 217.548 132.533 216.487 132.533H46.188C44.5898 132.533 43.2942 131.238 43.2942 129.64V96.6828C43.2942 95.0846 44.5898 93.7888 46.188 93.7888V93.7888Z" stroke="#C8CCD0" stroke-width="1.03082"/>
<path d="M81.4346 103.582H67.4653C65.7574 103.582 64.3728 104.966 64.3728 106.674V120.643C64.3728 122.351 65.7574 123.736 67.4653 123.736H81.4346C83.1425 123.736 84.527 122.351 84.527 120.643V106.674C84.527 104.966 83.1425 103.582 81.4346 103.582Z" fill="#48A868" fill-opacity="0.2"/>
<path d="M164.848 161.807H161.702C160.848 161.807 160.156 162.499 160.156 163.353V168.419C160.156 169.273 160.848 169.965 161.702 169.965H164.848C165.702 169.965 166.394 169.273 166.394 168.419V163.353C166.394 162.499 165.702 161.807 164.848 161.807Z" fill="#6ECB64"/>
<path d="M160.156 179.53V179.263C160.156 178.409 159.463 177.717 158.609 177.717H148.746C147.892 177.717 147.199 178.409 147.199 179.263V179.53C147.199 180.384 147.892 181.076 148.746 181.076H158.609C159.463 181.076 160.156 180.384 160.156 179.53Z" fill="#6ECB64"/>
<path d="M54.6687 106.94H51.523C50.669 106.94 49.9767 107.633 49.9767 108.487V113.552C49.9767 114.406 50.669 115.098 51.523 115.098H54.6687C55.5227 115.098 56.2149 114.406 56.2149 113.552V108.487C56.2149 107.633 55.5227 106.94 54.6687 106.94Z" fill="#EFF0F1"/>
<path d="M59.5739 119.31V119.044C59.5739 118.19 58.8816 117.498 58.0277 117.498H48.1638C47.3099 117.498 46.6176 118.19 46.6176 119.044V119.31C46.6176 120.164 47.3099 120.857 48.1638 120.857H58.0277C58.8816 120.857 59.5739 120.164 59.5739 119.31Z" fill="#EFF0F1"/>
<path d="M97.3767 106.94H94.2309C93.377 106.94 92.6847 107.633 92.6847 108.487V113.552C92.6847 114.406 93.377 115.098 94.2309 115.098H97.3767C98.2306 115.098 98.9229 114.406 98.9229 113.552V108.487C98.9229 107.633 98.2306 106.94 97.3767 106.94Z" fill="#EFF0F1"/>
<path d="M102.282 119.31V119.044C102.282 118.19 101.589 117.498 100.735 117.498H90.8715C90.0176 117.498 89.3253 118.19 89.3253 119.044V119.31C89.3253 120.164 90.0176 120.857 90.8715 120.857H100.735C101.589 120.857 102.282 120.164 102.282 119.31Z" fill="#EFF0F1"/>
<path d="M218.533 104.63H109.266C108.412 104.63 107.72 105.322 107.72 106.176V111.33C107.72 112.184 108.412 112.876 109.266 112.876H218.533C219.387 112.876 220.079 112.184 220.079 111.33V106.176C220.079 105.322 219.387 104.63 218.533 104.63Z" fill="#EFF0F1"/>
<path d="M119.93 116.058H109.107C108.253 116.058 107.56 116.75 107.56 117.604V122.669C107.56 123.523 108.253 124.216 109.107 124.216H119.93C120.784 124.216 121.476 123.523 121.476 122.669V117.604C121.476 116.75 120.784 116.058 119.93 116.058Z" fill="#CFEAFE"/>
<path d="M76.7426 103.582H65.9191C65.0651 103.582 64.3728 104.274 64.3728 105.128V110.193C64.3728 111.047 65.0651 111.739 65.9191 111.739H76.7426C77.5966 111.739 78.2889 111.047 78.2889 110.193V105.128C78.2889 104.274 77.5966 103.582 76.7426 103.582Z" fill="#CFEAFE"/>
<path d="M83.9403 106.94H73.1167C72.2628 106.94 71.5705 107.633 71.5705 108.487V113.552C71.5705 114.406 72.2628 115.098 73.1167 115.098H83.9403C84.7943 115.098 85.4865 114.406 85.4865 113.552V108.487C85.4865 107.633 84.7943 106.94 83.9403 106.94Z" fill="#CFEAFE"/>
<path fill-rule="evenodd" clip-rule="evenodd" d="M81.1679 125.744L82.7141 124.198H88.3836C88.9449 124.198 89.4144 123.728 89.4144 123.167V118.528C89.4144 117.967 88.9449 117.498 88.3836 117.498H82.1987C81.6318 117.498 81.1679 117.961 81.1679 118.528V125.744ZM85.2706 123.198C84.9768 123.188 84.7397 122.976 84.75 122.652C84.7603 122.327 85.0077 122.116 85.3066 122.126C85.6159 122.136 85.8478 122.358 85.8375 122.683C85.8272 123.007 85.5901 123.208 85.2706 123.198V123.198ZM85.7447 121.302C85.721 121.413 85.7071 121.524 85.7035 121.637C85.7035 121.658 85.6881 121.709 85.6211 121.709H84.8995C84.8273 121.709 84.817 121.663 84.817 121.642C84.8103 121.386 84.8747 121.133 85.0026 120.911C85.1103 120.724 85.302 120.574 85.5489 120.431C85.7607 120.309 85.9488 120.064 85.9524 119.815C85.9545 119.675 85.9061 119.539 85.8169 119.431C85.7035 119.297 85.5798 119.225 85.3427 119.225C85.1108 119.225 84.9149 119.344 84.817 119.493C84.7309 119.629 84.7325 119.778 84.734 119.92C84.7345 119.94 84.7345 119.959 84.7345 119.978H83.848C83.848 119.375 84.0078 118.988 84.3531 118.761C84.6407 118.601 84.967 118.523 85.2963 118.535C85.7499 118.535 86.1107 118.617 86.4302 118.854C86.7292 119.071 86.8838 119.38 86.8838 119.792C86.8838 120.05 86.7962 120.256 86.6622 120.431C86.5849 120.534 86.4354 120.673 86.2189 120.838L85.9715 120.993C85.8654 121.069 85.7855 121.178 85.7447 121.302V121.302Z" fill="#6ECB64"/>
<path d="M51.7341 110.455C52.7047 110.455 53.4915 109.668 53.4915 108.698C53.4915 107.727 52.7047 106.94 51.7341 106.94C50.7636 106.94 49.9767 107.727 49.9767 108.698C49.9767 109.668 50.7636 110.455 51.7341 110.455Z" fill="#FEE3CF" stroke="#F48024" stroke-width="1.03082"/>
<path d="M61.3313 121.012C62.3019 121.012 63.0887 120.226 63.0887 119.255C63.0887 118.284 62.3019 117.498 61.3313 117.498C60.3607 117.498 59.5739 118.284 59.5739 119.255C59.5739 120.226 60.3607 121.012 61.3313 121.012Z" fill="#E7FFE4" stroke="#6ECB64" stroke-width="1.03082"/>
</g>
<defs>
<linearGradient id="paint0_linear_1_509" x1="108.974" y1="65.3325" x2="122.907" y2="65.3325" gradientUnits="userSpaceOnUse">
<stop stop-color="#FFB935"/>
<stop offset="1" stop-color="#FFD943"/>
</linearGradient>
<linearGradient id="paint1_linear_1_509" x1="60.0511" y1="80.3635" x2="73.9842" y2="80.3635" gradientUnits="userSpaceOnUse">
<stop stop-color="#FFB935"/>
<stop offset="1" stop-color="#FFD943"/>
</linearGradient>
<linearGradient id="paint2_linear_1_509" x1="60.0517" y1="66.8288" x2="73.9842" y2="66.8288" gradientUnits="userSpaceOnUse">
<stop stop-color="#FFB935"/>
<stop offset="1" stop-color="#FFD943"/>
</linearGradient>
<clipPath id="clip0_1_509">
<rect width="333.984" height="222.141" fill="white" transform="translate(0 0.5)"/>
</clipPath>
</defs>
</svg>
