<svg width="186" height="47" viewBox="0 0 186 47" fill="none" xmlns="http://www.w3.org/2000/svg">
<g clip-path="url(#clip0_1_14)">
<path d="M43.1916 24.2324L41.1279 23.9776C39.5356 23.863 38.8095 23.2515 38.8095 22.0286C38.8095 20.691 39.7776 19.8248 41.7394 19.8248C43.0769 19.8248 44.2999 20.2069 45.1534 20.8057L46.3763 19.5827C45.0297 18.6184 43.3927 18.1462 41.7394 18.2452C38.9369 18.2452 36.9751 19.7101 36.9751 22.0286C36.9751 24.2324 38.3127 25.3406 40.8859 25.5699L43.0769 25.8247C44.5419 25.9394 45.2807 26.5508 45.2807 27.7737C45.2807 29.3661 43.9304 30.0922 41.854 30.0922C40.2744 30.0922 38.7967 29.7228 37.8286 28.6272L36.6057 29.8501C38.0706 31.2005 39.7904 31.6845 41.9814 31.6845C45.1661 31.6845 47.2298 30.2196 47.2298 27.7737C46.9877 25.3279 45.4081 24.4617 43.2043 24.2324H43.1916ZM59.4589 18.3726C57.3825 18.3726 56.0322 18.7292 54.9367 20.1942L56.1596 21.4171C56.8857 20.3216 57.7392 19.9522 59.4589 19.9522C61.7774 19.9522 62.7583 20.933 62.7583 22.7547V23.9903H58.8475C55.9176 23.9903 54.3252 25.4553 54.3252 27.7737C54.3252 28.7546 54.6947 29.7228 55.3061 30.4616C56.1596 31.3151 57.1405 31.6845 58.9621 31.6845C60.6819 31.6845 61.65 31.3151 62.7583 30.3342V31.5571H64.7073V22.7674C64.5799 19.8375 62.8729 18.3598 59.4589 18.3598V18.3726V18.3726ZM62.7583 26.9075C62.7583 28.0158 62.5035 28.7546 62.1468 29.1113C61.2933 29.8502 60.3124 29.9775 59.2169 29.9775C57.1405 29.9775 56.287 29.2387 56.287 27.7737C56.287 26.3088 57.2551 25.4553 59.2169 25.4553H62.8729L62.7455 26.9202L62.7583 26.9075V26.9075ZM72.0448 20.0796C73.2677 20.0796 73.9938 20.4362 74.9747 21.5445L76.1976 20.3216C74.8473 18.8566 73.7518 18.3598 71.9174 18.3598C68.6181 18.3598 66.185 20.5636 66.185 25.0859C66.185 29.4807 68.6181 31.8119 71.9174 31.8119C73.7518 31.8119 74.8473 31.3151 76.1976 29.8501L74.8473 28.6272C73.8792 29.7228 73.1403 30.0922 71.9174 30.0922C70.6945 30.0922 69.599 29.6081 68.8601 28.6272C68.2487 27.7737 68.0066 26.7929 68.0066 25.0859C68.0066 23.4935 68.2614 22.398 68.8601 21.5445C69.2503 21.0809 69.7381 20.7092 70.2886 20.4559C70.8392 20.2027 71.4388 20.0742 72.0448 20.0796V20.0796ZM88.4141 18.4872H86.0956L80.2358 24.2196V12.6401H78.274V31.4552H80.2358V26.6909L82.5543 24.3598L86.9491 31.4552H89.2676L83.8918 23.0222L88.4141 18.4999V18.4872V18.4872ZM97.3312 18.1178C95.3821 18.1178 94.0446 18.8566 93.1783 19.8248C91.9554 21.0477 91.5987 22.64 91.5987 25.0859C91.5987 27.5317 91.9554 29.1113 93.1783 30.3342C93.7205 30.8874 94.3691 31.325 95.085 31.6206C95.801 31.9162 96.5694 32.0636 97.3439 32.054C99.2929 32.054 100.758 31.3151 101.497 30.3342C102.72 29.1113 103.076 27.5317 103.076 25.0859C103.076 22.64 102.72 21.0477 101.497 19.8248C100.758 18.8566 99.4203 18.1178 97.3439 18.1178H97.3312V18.1178ZM98.9235 28.2578C98.5541 28.64 98.07 28.8693 97.3439 28.8693C96.6051 28.8693 96.121 28.6272 95.7516 28.2578C95.0127 27.5317 95.0127 26.3088 95.0127 24.9585C95.0127 23.4935 95.1401 22.398 95.7516 21.6592C95.9618 21.4547 96.2113 21.2952 96.485 21.19C96.7587 21.0849 97.0509 21.0365 97.3439 21.0477C98.07 21.0477 98.5541 21.3025 98.9235 21.6592C99.6624 22.398 99.6624 23.4935 99.6624 24.9712C99.7897 26.4234 99.6624 27.6464 98.9235 28.2578ZM112.121 18.2452L109.446 26.6782L106.63 18.2452H103.064L108.083 31.8119H110.758L115.802 18.2452H112.121V18.2452ZM121.42 18.1178C117.866 18.1178 115.548 20.5636 115.548 25.0859C115.548 30.589 118.605 32.054 121.79 32.054C124.223 32.054 125.56 31.3151 126.91 29.9775L124.834 28.0158C123.981 28.8693 123.242 29.2387 121.777 29.2387C119.828 29.2387 118.847 28.0158 118.847 26.1814H127.28V24.7164C127.28 20.8057 125.203 18.1178 121.42 18.1178V18.1178ZM118.847 23.7356C118.847 23.1241 118.974 22.7674 119.216 22.2706C119.573 21.4171 120.312 20.8057 121.535 20.8057C122.63 20.8057 123.484 21.4171 123.853 22.2706C124.108 22.7674 124.108 23.1241 124.223 23.7356H118.847ZM132.286 19.5827V18.2452H128.987V31.8119H132.414V23.6209C132.414 21.9012 133.509 21.1751 134.605 21.1751C135.471 21.1751 135.828 21.4299 136.439 22.0286L139.012 19.4681C138.031 18.4872 137.178 18.2452 135.828 18.2452C134.248 18.1178 133.025 18.7292 132.286 19.5827V19.5827ZM139.152 16.7802V31.8119H142.579V21.0477H145.025V18.4999H142.579V17.035C142.579 16.2961 142.936 15.8121 143.802 15.8121H145.14V13.0096H143.191C140.375 13.0096 139.152 14.9586 139.152 16.793V16.7802V16.7802ZM159.789 18.1178C157.827 18.1178 156.477 18.8566 155.624 19.8248C154.401 21.0477 154.044 22.64 154.044 25.0859C154.044 27.5317 154.401 29.1113 155.624 30.3342C156.164 30.8859 156.811 31.3226 157.524 31.6181C158.238 31.9136 159.004 32.0619 159.776 32.054C161.738 32.054 163.216 31.3151 163.942 30.3342C165.165 29.1113 165.522 27.5317 165.522 25.0859C165.522 22.64 165.165 21.0477 163.942 19.8248C163.203 18.8566 161.738 18.1178 159.776 18.1178H159.789V18.1178ZM161.369 28.2578C160.999 28.64 160.515 28.8693 159.776 28.8693C159.05 28.8693 158.566 28.6272 158.197 28.2578C157.458 27.5317 157.458 26.3088 157.458 24.9585C157.458 23.4935 157.585 22.398 158.197 21.6592C158.566 21.3025 159.05 21.0477 159.776 21.0477C160.515 21.0477 160.999 21.3025 161.369 21.6592C162.108 22.398 162.108 23.4935 162.108 24.9712C162.108 26.4234 162.108 27.6464 161.369 28.2578V28.2578ZM181.534 18.2452L179.33 26.6782L176.528 18.2452H174.082L171.279 26.6782L169.076 18.2452H165.522L169.674 31.8119H172.49L175.292 23.2515L178.107 31.8119H180.923L185.075 18.2452H181.534V18.2452ZM150.235 27.6464V12.8694H146.821V27.9011C146.821 29.8502 148.044 31.8119 150.732 31.8119H152.681V28.9967H151.458C150.605 28.9967 150.235 28.4998 150.235 27.6464V27.6464ZM52.2488 20.5636L53.9558 18.8566H50.2871V14.5764H48.338V28.1432C48.338 30.0922 49.4336 31.6845 51.6374 31.6845H52.9749V30.0922H52.0068C50.7839 30.0922 50.1724 29.3661 50.1724 28.1432V20.691L52.2488 20.5636V20.5636Z" fill="white"/>
<path d="M26.7586 34.5508V24.3599H30.5803V38.3725H0.00732422V24.3599H3.82894V34.5508H26.7586Z" fill="#BCBBBB"/>
<path d="M6.88624 24.4873L24.2109 27.0351L24.4657 23.9778L7.52317 20.6657L6.88624 24.4873V24.4873ZM9.1792 15.825L24.4657 22.9587L25.8669 19.9014L10.5805 12.7677L9.1792 15.825V15.825ZM13.5104 8.30914L26.5039 19.1371L28.6695 16.5893L15.676 5.7614L13.5104 8.30914V8.30914ZM21.7905 0.411133L19.1154 2.44933L29.179 15.9524L31.8541 13.9142L21.7905 0.411133ZM6.37669 32.0032H24.2109V28.1815H6.37669V32.0032ZM36.9496 45.8374V35.8248H43.319V37.8375H39.4591V39.8375H42.6693V41.8629H39.4591V45.8119H36.9496V45.8374V45.8374ZM44.6183 41.9776V39.6846C44.6183 38.1432 44.8476 37.3279 45.4591 36.6783C46.147 35.9522 47.026 35.6592 48.5164 35.6592C50.0832 35.6592 51.0259 36.0159 51.7011 36.8566C52.1851 37.4681 52.389 38.2579 52.389 39.6846V41.9776C52.389 43.519 52.1597 44.3342 51.5482 44.9967C50.8603 45.71 49.9941 46.0158 48.5036 46.0158C46.924 46.0158 45.9814 45.6591 45.319 44.8183C44.8094 44.1941 44.6183 43.4171 44.6183 41.9776ZM49.8922 41.7865V39.8757C49.8922 38.1432 49.5992 37.6719 48.5036 37.6719C47.4081 37.6719 47.1151 38.1432 47.1151 39.8757V41.7865C47.1151 43.519 47.4081 44.003 48.5164 44.003C49.5992 44.003 49.8922 43.519 49.8922 41.7865V41.7865ZM56.1087 41.9648V45.8374H53.6119V35.8248H57.5354C58.9367 35.8248 59.6628 36.0159 60.1978 36.5509C60.7073 37.0604 60.9239 37.7356 60.9239 38.8439C60.9239 40.5636 60.4526 41.3916 59.2042 41.761L61.3697 45.8247H58.5927L56.7711 41.9521H56.1087V41.9648ZM56.0577 40.0795H57.2806C58.1723 40.0795 58.4526 39.7993 58.4526 38.933C58.4526 38.0923 58.1596 37.812 57.2806 37.812H56.0577V40.0795V40.0795ZM67.5862 45.8374V37.8502H65.013V35.8248H72.6563V37.8375H70.083V45.8247H67.5862V45.8374V45.8374ZM73.9301 45.8374V35.8248H80.4014V37.8375H76.4014V39.7738H79.7772V41.7865H76.4014V43.812H80.4778V45.8247H73.9301V45.8374ZM86.9364 44.0667H83.7517L83.2167 45.8374H80.5161L84.1211 35.8248H86.5415L90.1593 45.8247H87.4841L86.9364 44.054V44.0667ZM86.3504 42.0922L85.3568 38.7165L84.3377 42.0922H86.3504V42.0922ZM90.758 45.8374V35.8248H93.0637L95.4586 40.7929L97.8534 35.8248H100.172V45.8247H97.7898V40.4235L96.2611 43.5827H94.656L93.1274 40.4235V45.8247H90.7452L90.758 45.8374V45.8374ZM101.166 44.1559L103.051 42.9457C103.509 43.7101 104.095 44.0158 105.153 44.0158C106.044 44.0158 106.465 43.6973 106.465 43.0222C106.465 42.4871 106.185 42.2069 105.446 42.0285C103.701 41.5954 103.331 41.468 102.809 41.1368C102.006 40.6145 101.637 39.863 101.637 38.7292C101.637 36.7292 102.86 35.6719 105.14 35.6719C106.872 35.6719 107.955 36.2197 108.643 37.4299L106.809 38.5891C106.325 37.9012 105.853 37.6592 105.102 37.6592C104.401 37.6592 104.019 37.9776 104.019 38.5636C104.019 39.2388 104.401 39.519 105.751 39.8502C107.025 40.1814 107.331 40.2833 107.841 40.6145C108.516 41.0604 108.847 41.7865 108.847 42.9075C108.847 44.003 108.579 44.7164 108.006 45.2005C107.369 45.7355 106.376 46.0158 105.127 46.0158C103.981 46.0158 102.911 45.761 102.21 45.3024C101.761 45.0261 101.399 44.6287 101.166 44.1559V44.1559Z" fill="#F48024"/>
</g>
<defs>
<clipPath id="clip0_1_14">
<rect width="186" height="45.8594" fill="white" transform="translate(0 0.15625)"/>
</clipPath>
</defs>
</svg>
