<svg width="18" height="19" viewBox="0 0 18 19" fill="none" xmlns="http://www.w3.org/2000/svg">
<g clip-path="url(#clip0_1_141)">
<path d="M1 18.75L4 15.75H15C16.09 15.75 17 14.84 17 13.75V4.75C17 3.66 16.09 2.75 15 2.75H3C2.46957 2.75 1.96086 2.96071 1.58579 3.33579C1.21071 3.71086 1 4.21957 1 4.75V18.75ZM8.96 13.81C8.39 13.79 7.93 13.38 7.95 12.75C7.97 12.12 8.45 11.71 9.03 11.73C9.63 11.75 10.08 12.18 10.06 12.81C10.04 13.44 9.58 13.83 8.96 13.81ZM9.88 10.13C9.83364 10.3438 9.80686 10.5614 9.8 10.78C9.8 10.82 9.77 10.92 9.64 10.92H8.24C8.1 10.92 8.08 10.83 8.08 10.79C8.07 10.29 8.19 9.8 8.44 9.37C8.64 9.01 9.02 8.72 9.5 8.44C9.91 8.21 10.28 7.73 10.28 7.24C10.28 6.97 10.19 6.71 10.02 6.5C9.8 6.24 9.56 6.1 9.1 6.1C8.65 6.1 8.27 6.33 8.08 6.62C7.91 6.89 7.92 7.17 7.92 7.45V7.56H6.2C6.2 6.39 6.51 5.64 7.18 5.2C7.73838 4.88899 8.37127 4.73682 9.01 4.76C9.89 4.76 10.59 4.92 11.21 5.38C11.79 5.8 12.09 6.4 12.09 7.2C12.09 7.7 11.92 8.1 11.66 8.44C11.51 8.64 11.22 8.91 10.8 9.24L10.32 9.54C10.12 9.68 9.96 9.89 9.88 10.14V10.13Z" fill="#2F3337"/>
</g>
<defs>
<clipPath id="clip0_1_141">
<rect width="18" height="18" fill="white" transform="translate(0 0.75)"/>
</clipPath>
</defs>
</svg>
