<svg width="18" height="19" viewBox="0 0 18 19" fill="none" xmlns="http://www.w3.org/2000/svg">
<g clip-path="url(#clip0_1_102)">
<path d="M2 4.78125L9 1.78125L16 4.78125V9.80125C16 14.4713 10.69 17.7812 9 17.7812C7.31 17.7812 2 14.4713 2 9.80125V4.78125ZM8.14 9.98125L7 12.7812H11L9.86 9.98125C9.8391 9.86922 9.85167 9.75352 9.89613 9.64859C9.94059 9.54366 10.015 9.45416 10.11 9.39125C10.67 9.03125 11 8.44125 11 7.78125C11 6.69125 10.06 5.78125 8.98 5.78125C8.45304 5.78652 7.94946 5.99956 7.5787 6.37406C7.20794 6.74856 6.99997 7.25426 7 7.78125C7 8.44125 7.33 9.03125 7.89 9.39125C8.09 9.52125 8.19 9.75125 8.14 9.98125Z" fill="#2F3337"/>
</g>
<defs>
<clipPath id="clip0_1_102">
<rect width="18" height="18" fill="white" transform="translate(0 0.78125)"/>
</clipPath>
</defs>
</svg>
