<svg width="18" height="19" viewBox="0 0 18 19" fill="none" xmlns="http://www.w3.org/2000/svg">
<g clip-path="url(#clip0_1_157)">
<path d="M10 16.2031V12.2031H8V16.2031H2V4.20312C2 3.10312 2.9 2.20312 4 2.20312H10C11.09 2.20312 12 3.11312 12 4.20312V6.20312H14C15.09 6.20312 16 7.11312 16 8.20312V16.2031H10ZM4 4.20312V6.20312H6V4.20312H4ZM4 8.20312V10.2031H6V8.20312H4ZM8 4.20312V6.20312H10V4.20312H8ZM8 8.20312V10.2031H10V8.20312H8ZM4 12.2031V14.2031H6V12.2031H4ZM12 12.2031V14.2031H14V12.2031H12ZM12 8.20312V10.2031H14V8.20312H12Z" fill="#2F3337"/>
</g>
<defs>
<clipPath id="clip0_1_157">
<rect width="18" height="18" fill="white" transform="translate(0 0.203125)"/>
</clipPath>
</defs>
</svg>
