<svg width="18" height="18" viewBox="0 0 18 18" fill="none" xmlns="http://www.w3.org/2000/svg">
<g clip-path="url(#clip0_1_126)">
<path d="M17 14C17 14.44 16.55 15 16 15H9C8.73478 15 8.48043 14.8946 8.29289 14.7071C8.10536 14.5196 8 14.2652 8 14H2C1.46 14 1 13.44 1 13C1 10.37 4 9 4 9C4 9 4.23 8.6 4 8C3.16 7.38 2.94 7.41 3 5C3.06 2.58 4.37 2 5.5 2C6.63 2 7.94 2.58 8 5C8.06 7.41 7.84 7.38 7 8C6.77 8.59 7 9 7 9C7 9 8.55 9.71 9.42 11.09C10.2 10.37 11 9.99 11 9.99C11 9.99 11.23 9.59 11 8.99C10.16 8.38 9.94 8.41 10 5.99C10.06 3.58 11.37 2.99 12.5 2.99C13.63 2.99 14.94 3.58 15 5.99C15.05 8.41 14.84 8.38 14 8.99C13.77 9.59 14 9.99 14 9.99C14 9.99 17 11.37 17 13.99V14Z" fill="#2F3337"/>
</g>
<defs>
<clipPath id="clip0_1_126">
<rect width="18" height="18" fill="white"/>
</clipPath>
</defs>
</svg>
