<svg width="18" height="19" viewBox="0 0 18 19" fill="none" xmlns="http://www.w3.org/2000/svg">
<g clip-path="url(#clip0_1_107)">
<path d="M3 1.15625C2.46957 1.15625 1.96086 1.36696 1.58579 1.74204C1.21071 2.11711 1 2.62582 1 3.15625V4.15625H17V3.15625C17 2.62582 16.7893 2.11711 16.4142 1.74204C16.0391 1.36696 15.5304 1.15625 15 1.15625H3ZM2 5.15625H16V15.1562C16 15.6867 15.7893 16.1954 15.4142 16.5705C15.0391 16.9455 14.5304 17.1562 14 17.1562H4C3.46957 17.1562 2.96086 16.9455 2.58579 16.5705C2.21071 16.1954 2 15.6867 2 15.1562V5.15625ZM6 8.15625C6 8.42147 6.10536 8.67582 6.29289 8.86336C6.48043 9.05089 6.73478 9.15625 7 9.15625H11C11.2652 9.15625 11.5196 9.05089 11.7071 8.86336C11.8946 8.67582 12 8.42147 12 8.15625C12 7.89103 11.8946 7.63668 11.7071 7.44914C11.5196 7.26161 11.2652 7.15625 11 7.15625H7C6.73478 7.15625 6.48043 7.26161 6.29289 7.44914C6.10536 7.63668 6 7.89103 6 8.15625Z" fill="#2F3337"/>
</g>
<defs>
<clipPath id="clip0_1_107">
<rect width="18" height="18" fill="white" transform="translate(0 0.15625)"/>
</clipPath>
</defs>
</svg>
