<svg width="18" height="19" viewBox="0 0 18 19" fill="none" xmlns="http://www.w3.org/2000/svg">
<g clip-path="url(#clip0_1_807)">
<path d="M9 17.9844C11.1217 17.9844 13.1566 17.1415 14.6569 15.6412C16.1571 14.1409 17 12.1061 17 9.98438C17 7.86264 16.1571 5.82781 14.6569 4.32752C13.1566 2.82723 11.1217 1.98438 9 1.98438C6.87827 1.98438 4.84344 2.82723 3.34315 4.32752C1.84285 5.82781 1 7.86264 1 9.98438C1 12.1061 1.84285 14.1409 3.34315 15.6412C4.84344 17.1415 6.87827 17.9844 9 17.9844V17.9844ZM9.25 14.5344C9.17483 14.6681 9.0699 14.7828 8.94331 14.8695C8.81672 14.9562 8.67188 15.0126 8.52 15.0344C8.2 15.0344 7.9 14.9744 7.67 14.7444L4.67 11.7444C4.50937 11.5497 4.42829 11.3015 4.44302 11.0496C4.45774 10.7976 4.56719 10.5606 4.74941 10.3859C4.93162 10.2113 5.17313 10.112 5.42547 10.108C5.67782 10.104 5.92235 10.1956 6.11 10.3644L8.16 12.3644L11.72 6.08437C11.99 5.61437 12.61 5.43437 13.08 5.70437C13.55 5.97437 13.73 6.59437 13.46 7.06437L9.25 14.5344V14.5344Z" fill="#48A868"/>
</g>
<defs>
<clipPath id="clip0_1_807">
<rect width="18" height="18" fill="white" transform="translate(0 0.984375)"/>
</clipPath>
</defs>
</svg>
