<svg width="18" height="19" viewBox="0 0 18 19" fill="none" xmlns="http://www.w3.org/2000/svg">
<g clip-path="url(#clip0_1_179)">
<path d="M7.21999 11.8767C7.71337 12.2411 8.25972 12.5278 8.83999 12.7267L9.44999 10.9267C8.59721 10.6339 7.86472 10.0682 7.36591 9.3171C6.86709 8.56601 6.62977 7.67144 6.69068 6.77186C6.75159 5.87228 7.10734 5.01787 7.70285 4.34088C8.29837 3.66389 9.10043 3.20208 9.9849 3.02694C10.8694 2.85179 11.7869 2.97309 12.5955 3.37204C13.404 3.77099 14.0586 4.42536 14.4577 5.23384C14.8568 6.04231 14.9783 6.95982 14.8034 7.84432C14.6285 8.72883 14.1668 9.531 13.49 10.1267L14.75 11.5467C15.6806 10.7256 16.3338 9.6362 16.6195 8.42847C16.9051 7.22074 16.8093 5.95415 16.3451 4.80317C15.8809 3.6522 15.0712 2.67349 14.0276 2.00187C12.984 1.33025 11.7578 0.998782 10.5179 1.05312C9.27802 1.10746 8.08551 1.54493 7.10465 2.30527C6.12378 3.06561 5.40282 4.1114 5.0411 5.29857C4.67937 6.48574 4.69468 7.75586 5.08491 8.93397C5.47514 10.1121 6.22109 11.1402 7.21999 11.8767V11.8767ZM10.65 6.27667C10.164 5.90695 9.62449 5.61357 9.04999 5.40667L8.39999 7.19667C9.24791 7.50371 9.97095 8.08173 10.4571 8.84124C10.9433 9.60074 11.1656 10.4994 11.0894 11.3979C11.0133 12.2965 10.643 13.1449 10.0359 13.8118C9.42885 14.4786 8.61885 14.9267 7.73136 15.0867C6.84386 15.2467 5.92838 15.1096 5.12668 14.6966C4.32498 14.2837 3.68179 13.618 3.29669 12.8025C2.9116 11.9871 2.80609 11.0675 2.99651 10.186C3.18692 9.30453 3.66264 8.51044 4.34999 7.92667L3.11999 6.47667C2.17474 7.28125 1.5023 8.35919 1.19535 9.56195C0.888391 10.7647 0.962031 12.0331 1.40612 13.1922C1.8502 14.3513 2.64287 15.3442 3.67489 16.034C4.7069 16.7238 5.92744 17.0765 7.16831 17.0435C8.40918 17.0106 9.60928 16.5936 10.6032 15.85C11.5972 15.1064 12.336 14.0728 12.7179 12.8918C13.0999 11.7107 13.1061 10.4402 12.7357 9.25543C12.3653 8.07067 11.6366 7.02994 10.65 6.27667V6.27667Z" fill="#2F3337"/>
</g>
<defs>
<clipPath id="clip0_1_179">
<rect width="18" height="18" fill="white" transform="translate(0 0.046875)"/>
</clipPath>
</defs>
</svg>
