<svg width="48" height="48" viewBox="0 0 48 48" fill="none" xmlns="http://www.w3.org/2000/svg">
<g clip-path="url(#clip0_1_264)">
<path opacity="0.2" d="M5.01 14.7096C5.00734 13.2155 5.59764 11.7814 6.65131 10.7221C7.70498 9.66279 9.13591 9.06487 10.63 9.05957H19.38C22.48 9.05957 25 11.5896 25 14.7096V34.5096L20.06 42.5196C19.9711 42.6655 19.8464 42.7863 19.6975 42.8703C19.5487 42.9544 19.3809 42.9989 19.21 42.9996H15.18C15.005 42.9985 14.8333 42.9515 14.6821 42.8633C14.5309 42.7751 14.4055 42.6488 14.3185 42.497C14.2314 42.3451 14.1857 42.1731 14.186 41.9981C14.1863 41.823 14.2325 41.6511 14.32 41.4996L18.36 34.5096H10.63C9.13591 34.5043 7.70498 33.9064 6.65131 32.8471C5.59764 31.7878 5.00734 30.3537 5.01 28.8596V14.6996V14.7096ZM28 14.7096C27.9947 13.9703 28.1356 13.2373 28.4146 12.5527C28.6935 11.8681 29.105 11.2454 29.6254 10.7204C30.1458 10.1953 30.7648 9.77829 31.4469 9.49328C32.129 9.20826 32.8607 9.06087 33.6 9.05957H41.32C44.42 9.05957 46.95 11.5896 46.95 14.7096V34.5096L43 42.4496C42.9161 42.616 42.7874 42.7557 42.6284 42.8529C42.4694 42.9501 42.2864 43.0009 42.1 42.9996H38.08C37.9076 42.9991 37.7382 42.9541 37.5884 42.8689C37.4385 42.7837 37.3132 42.6611 37.2247 42.5132C37.1361 42.3653 37.0873 42.197 37.083 42.0246C37.0787 41.8523 37.119 41.6817 37.2 41.5296L40.97 34.5096H33.59C32.8516 34.507 32.121 34.3586 31.44 34.073C30.7591 33.7874 30.1412 33.3702 29.6219 32.8452C29.1025 32.3203 28.6919 31.698 28.4136 31.0141C28.1353 30.3301 27.9947 29.598 28 28.8596V14.6996V14.7096Z" fill="#0A95FF"/>
<path d="M1 11.66C0.997369 10.788 1.16651 9.92406 1.49778 9.11745C1.82904 8.31085 2.31594 7.57738 2.93066 6.95894C3.54538 6.34051 4.2759 5.8492 5.0805 5.51309C5.8851 5.17697 6.74802 5.00262 7.62 5H16.41C17.282 5.00262 18.1449 5.17697 18.9495 5.51309C19.7541 5.8492 20.4846 6.34051 21.0993 6.95894C21.7141 7.57738 22.201 8.31085 22.5322 9.11745C22.8635 9.92406 23.0326 10.788 23.03 11.66V30.95C23.0291 31.4695 22.8837 31.9784 22.61 32.42L18.14 39.67C17.8886 40.0776 17.5369 40.4138 17.1184 40.6467C16.7 40.8795 16.2289 41.0012 15.75 41H13.66C13.161 41.0012 12.6707 40.8691 12.2399 40.6172C11.8092 40.3654 11.4535 40.003 11.2098 39.5676C10.966 39.1321 10.8431 38.6395 10.8537 38.1406C10.8643 37.6417 11.008 37.1547 11.27 36.73L12.81 34.23C12.8873 34.1087 12.9305 33.9688 12.935 33.825C12.9395 33.6812 12.9051 33.5388 12.8355 33.4129C12.7659 33.287 12.6637 33.1822 12.5395 33.1095C12.4153 33.0369 12.2739 32.999 12.13 33H7.63C5.73 33 4.06 32.06 2.9 30.73C1.69668 29.3672 1.02247 27.6178 1 25.8V11.66ZM7.62 7C7.01066 7.00262 6.40781 7.12523 5.84586 7.36084C5.28392 7.59645 4.77388 7.94043 4.34487 8.37315C3.91586 8.80588 3.57629 9.31886 3.34553 9.88282C3.11478 10.4468 2.99737 11.0507 3 11.66V25.8C3 27.1 3.53 28.42 4.4 29.41C4.79217 29.8895 5.28243 30.2794 5.83783 30.5537C6.39323 30.8279 7.0009 30.9801 7.62 31H12.12C12.6198 30.997 13.1114 31.1278 13.5436 31.3789C13.9758 31.63 14.3329 31.9923 14.5778 32.428C14.8227 32.8638 14.9465 33.3571 14.9364 33.8569C14.9262 34.3567 14.7824 34.8446 14.52 35.27L12.98 37.77C12.9027 37.8913 12.8595 38.0312 12.855 38.175C12.8505 38.3188 12.8849 38.4612 12.9545 38.5871C13.0241 38.713 13.1263 38.8178 13.2505 38.8905C13.3747 38.9631 13.5161 39.001 13.66 39H15.76C15.8963 38.9998 16.0304 38.9649 16.1494 38.8984C16.2684 38.8318 16.3684 38.736 16.44 38.62L20.91 31.37C20.9882 31.2438 21.0297 31.0984 21.03 30.95V11.65C21.0327 10.4211 20.5477 9.24137 19.6816 8.36962C18.8155 7.49786 17.6389 7.00529 16.41 7H7.62ZM24 11.66C23.9974 10.7872 24.1668 9.92241 24.4987 9.11515C24.8306 8.30789 25.3184 7.57398 25.9342 6.95541C26.55 6.33684 27.2817 5.84575 28.0874 5.51022C28.8932 5.17469 29.7572 5.00131 30.63 5H38.38C39.252 5.00262 40.1149 5.17697 40.9195 5.51309C41.7241 5.8492 42.4546 6.34051 43.0693 6.95894C43.6841 7.57738 44.171 8.31085 44.5022 9.11745C44.8335 9.92406 45.0026 10.788 45 11.66V31.5C45 32 44.86 32.5 44.6 32.94L40.64 39.63C40.3909 40.0494 40.0366 40.3964 39.6121 40.6367C39.1876 40.877 38.7078 41.0022 38.22 41H36.15C35.651 41.0012 35.1607 40.8691 34.7299 40.6172C34.2992 40.3654 33.9435 40.003 33.6998 39.5676C33.4561 39.1321 33.3331 38.6395 33.3437 38.1406C33.3543 37.6417 33.498 37.1547 33.76 36.73L35.3 34.23C35.3773 34.1087 35.4205 33.9688 35.425 33.825C35.4295 33.6812 35.3951 33.5388 35.3255 33.4129C35.2559 33.287 35.1537 33.1822 35.0295 33.1095C34.9053 33.0369 34.7639 32.999 34.62 33H30.62C28.72 33 27.07 32.06 25.9 30.73C24.6967 29.3672 24.0225 27.6178 24 25.8V11.66ZM30.63 7C30.0198 7.00131 29.4159 7.12296 28.8528 7.35798C28.2897 7.593 27.7785 7.93677 27.3484 8.36963C26.9183 8.80248 26.5779 9.31591 26.3465 9.88052C26.1151 10.4451 25.9974 11.0498 26 11.66V25.8C26 27.1 26.53 28.42 27.4 29.41C27.7933 29.8907 28.2851 30.2814 28.8424 30.5557C29.3996 30.83 30.0092 30.9815 30.63 31H34.62C35.1182 31.0005 35.6071 31.134 36.0365 31.3866C36.4659 31.6391 36.8201 32.0017 37.0627 32.4368C37.3052 32.8719 37.4272 33.3639 37.4162 33.8619C37.4052 34.3599 37.2615 34.846 37 35.27L35.46 37.77C35.3827 37.8913 35.3395 38.0312 35.335 38.175C35.3305 38.3188 35.3649 38.4612 35.4345 38.5871C35.5041 38.713 35.6063 38.8178 35.7305 38.8905C35.8547 38.9631 35.9961 39.001 36.14 39H38.21C38.3516 39.0013 38.4911 38.9649 38.6141 38.8946C38.7371 38.8243 38.8392 38.7227 38.91 38.6L42.88 31.92C42.9547 31.7928 42.9928 31.6475 42.99 31.5V11.66C42.9953 10.4311 42.5129 9.25031 41.6487 8.37667C40.7844 7.50304 39.6089 7.00793 38.38 7H30.62H30.63Z" fill="#0A95FF"/>
</g>
<defs>
<clipPath id="clip0_1_264">
<rect width="48" height="48" fill="white"/>
</clipPath>
</defs>
</svg>
