<svg width="18" height="19" viewBox="0 0 18 19" fill="none" xmlns="http://www.w3.org/2000/svg">
<g clip-path="url(#clip0_1_184)">
<path d="M5 3.42188C4.46957 3.42188 3.96086 3.63259 3.58579 4.00766C3.21071 4.38273 3 4.89144 3 5.42188V12.4219C3 13.5219 3.9 14.4219 5 14.4219H15C15.5304 14.4219 16.0391 14.2112 16.4142 13.8361C16.7893 13.461 17 12.9523 17 12.4219V5.42188C17 4.89144 16.7893 4.38273 16.4142 4.00766C16.0391 3.63259 15.5304 3.42188 15 3.42188H5ZM5 5.92188C5 5.64187 5.22 5.42188 5.5 5.42188H14.5C14.6326 5.42188 14.7598 5.47455 14.8536 5.56832C14.9473 5.66209 15 5.78927 15 5.92188C15 6.05448 14.9473 6.18166 14.8536 6.27543C14.7598 6.3692 14.6326 6.42188 14.5 6.42188H5.5C5.36739 6.42188 5.24021 6.3692 5.14645 6.27543C5.05268 6.18166 5 6.05448 5 5.92188ZM5.5 8.42188H14.5C14.6326 8.42188 14.7598 8.47455 14.8536 8.56832C14.9473 8.66209 15 8.78927 15 8.92188C15 9.05448 14.9473 9.18166 14.8536 9.27543C14.7598 9.3692 14.6326 9.42188 14.5 9.42188H5.5C5.36739 9.42188 5.24021 9.3692 5.14645 9.27543C5.05268 9.18166 5 9.05448 5 8.92188C5 8.78927 5.05268 8.66209 5.14645 8.56832C5.24021 8.47455 5.36739 8.42188 5.5 8.42188V8.42188ZM5 11.9219C5 11.6419 5.22 11.4219 5.5 11.4219H11.5C11.6326 11.4219 11.7598 11.4746 11.8536 11.5683C11.9473 11.6621 12 11.7893 12 11.9219C12 12.0545 11.9473 12.1817 11.8536 12.2754C11.7598 12.3692 11.6326 12.4219 11.5 12.4219H5.5C5.36739 12.4219 5.24021 12.3692 5.14645 12.2754C5.05268 12.1817 5 12.0545 5 11.9219Z" fill="#2F3337"/>
<path opacity="0.4" d="M15.09 15.4218H4.74C4.37802 15.4205 4.01986 15.3477 3.68606 15.2077C3.35226 15.0676 3.04939 14.8631 2.79483 14.6057C2.54026 14.3484 2.33901 14.0433 2.20261 13.708C2.06622 13.3727 1.99737 13.0138 2 12.6518V5.32178C1.39 5.91178 1 6.74178 1 7.66178V13.1618C1 14.9618 2.45 16.4218 4.24 16.4218H12.74C13.66 16.4218 14.5 16.0418 15.09 15.4218Z" fill="#2F3337"/>
</g>
<defs>
<clipPath id="clip0_1_184">
<rect width="18" height="18" fill="white" transform="translate(0 0.421875)"/>
</clipPath>
</defs>
</svg>
