<svg width="48" height="49" viewBox="0 0 48 49" fill="none" xmlns="http://www.w3.org/2000/svg">
<g clip-path="url(#clip0_1_297)">
<path opacity="0.2" d="M5.01 14.7877C5.00734 13.2936 5.59764 11.8595 6.65131 10.8002C7.70498 9.74091 9.13591 9.14299 10.63 9.1377H19.38C22.48 9.1377 25 11.6677 25 14.7877V34.5877L20.06 42.5977C19.9711 42.7437 19.8464 42.8644 19.6975 42.9485C19.5487 43.0325 19.3809 43.077 19.21 43.0777H15.18C15.005 43.0766 14.8333 43.0297 14.6821 42.9415C14.5309 42.8533 14.4055 42.7269 14.3185 42.5751C14.2314 42.4233 14.1857 42.2512 14.186 42.0762C14.1863 41.9012 14.2325 41.7293 14.32 41.5777L18.36 34.5877H10.63C9.13591 34.5824 7.70498 33.9845 6.65131 32.9252C5.59764 31.8659 5.00734 30.4318 5.01 28.9377V14.7777V14.7877ZM28 14.7877C27.9947 14.0485 28.1356 13.3155 28.4146 12.6309C28.6935 11.9463 29.105 11.3235 29.6254 10.7985C30.1458 10.2734 30.7648 9.85642 31.4469 9.5714C32.129 9.28639 32.8607 9.13899 33.6 9.1377H41.32C44.42 9.1377 46.95 11.6677 46.95 14.7877V34.5877L43 42.5277C42.9161 42.6941 42.7874 42.8338 42.6284 42.931C42.4694 43.0282 42.2864 43.079 42.1 43.0777H38.08C37.9076 43.0772 37.7382 43.0322 37.5884 42.947C37.4385 42.8618 37.3132 42.7393 37.2247 42.5913C37.1361 42.4434 37.0873 42.2751 37.083 42.1028C37.0787 41.9304 37.119 41.7599 37.2 41.6077L40.97 34.5877H33.59C32.8516 34.5851 32.121 34.4367 31.44 34.1511C30.7591 33.8655 30.1412 33.4483 29.6219 32.9234C29.1025 32.3984 28.6919 31.7762 28.4136 31.0922C28.1353 30.4083 27.9947 29.6761 28 28.9377V14.7777V14.7877Z" fill="#0A95FF"/>
<path d="M1 11.7381C0.997369 10.8661 1.16651 10.0022 1.49778 9.19558C1.82904 8.38897 2.31594 7.65551 2.93066 7.03707C3.54538 6.41863 4.2759 5.92733 5.0805 5.59121C5.8851 5.25509 6.74802 5.08075 7.62 5.07812H16.41C17.282 5.08075 18.1449 5.25509 18.9495 5.59121C19.7541 5.92733 20.4846 6.41863 21.0993 7.03707C21.7141 7.65551 22.201 8.38897 22.5322 9.19558C22.8635 10.0022 23.0326 10.8661 23.03 11.7381V31.0281C23.0291 31.5476 22.8837 32.0566 22.61 32.4981L18.14 39.7481C17.8886 40.1557 17.5369 40.492 17.1184 40.7248C16.7 40.9577 16.2289 41.0793 15.75 41.0781H13.66C13.161 41.0794 12.6707 40.9472 12.2399 40.6954C11.8092 40.4435 11.4535 40.0811 11.2098 39.6457C10.966 39.2103 10.8431 38.7176 10.8537 38.2187C10.8643 37.7198 11.008 37.2328 11.27 36.8081L12.81 34.3081C12.8873 34.1868 12.9305 34.0469 12.935 33.9031C12.9395 33.7593 12.9051 33.6169 12.8355 33.491C12.7659 33.3651 12.6637 33.2603 12.5395 33.1877C12.4153 33.115 12.2739 33.0772 12.13 33.0781H7.63C5.73 33.0781 4.06 32.1381 2.9 30.8081C1.69668 29.4454 1.02247 27.696 1 25.8781V11.7381ZM7.62 7.07812C7.01066 7.08075 6.40781 7.20336 5.84586 7.43897C5.28392 7.67457 4.77388 8.01856 4.34487 8.45128C3.91586 8.884 3.57629 9.39699 3.34553 9.96095C3.11478 10.5249 2.99737 11.1288 3 11.7381V25.8781C3 27.1781 3.53 28.4981 4.4 29.4881C4.79217 29.9676 5.28243 30.3575 5.83783 30.6318C6.39323 30.906 7.0009 31.0582 7.62 31.0781H12.12C12.6198 31.0751 13.1114 31.2059 13.5436 31.4571C13.9758 31.7082 14.3329 32.0704 14.5778 32.5062C14.8227 32.9419 14.9465 33.4353 14.9364 33.935C14.9262 34.4348 14.7824 34.9227 14.52 35.3481L12.98 37.8481C12.9027 37.9694 12.8595 38.1094 12.855 38.2532C12.8505 38.397 12.8849 38.5393 12.9545 38.6652C13.0241 38.7911 13.1263 38.8959 13.2505 38.9686C13.3747 39.0413 13.5161 39.0791 13.66 39.0781H15.76C15.8963 39.078 16.0304 39.043 16.1494 38.9765C16.2684 38.91 16.3684 38.8142 16.44 38.6981L20.91 31.4481C20.9882 31.322 21.0297 31.1765 21.03 31.0281V11.7281C21.0327 10.4992 20.5477 9.3195 19.6816 8.44774C18.8155 7.57598 17.6389 7.08342 16.41 7.07812H7.62ZM24 11.7381C23.9974 10.8653 24.1668 10.0005 24.4987 9.19327C24.8306 8.38601 25.3184 7.65211 25.9342 7.03354C26.55 6.41497 27.2817 5.92387 28.0874 5.58834C28.8932 5.25281 29.7572 5.07944 30.63 5.07812H38.38C39.252 5.08075 40.1149 5.25509 40.9195 5.59121C41.7241 5.92733 42.4546 6.41863 43.0693 7.03707C43.6841 7.65551 44.171 8.38897 44.5022 9.19558C44.8335 10.0022 45.0026 10.8661 45 11.7381V31.5781C45 32.0781 44.86 32.5781 44.6 33.0181L40.64 39.7081C40.3909 40.1275 40.0366 40.4745 39.6121 40.7148C39.1876 40.9551 38.7078 41.0803 38.22 41.0781H36.15C35.651 41.0794 35.1607 40.9472 34.7299 40.6954C34.2992 40.4435 33.9435 40.0811 33.6998 39.6457C33.4561 39.2103 33.3331 38.7176 33.3437 38.2187C33.3543 37.7198 33.498 37.2328 33.76 36.8081L35.3 34.3081C35.3773 34.1868 35.4205 34.0469 35.425 33.9031C35.4295 33.7593 35.3951 33.6169 35.3255 33.491C35.2559 33.3651 35.1537 33.2603 35.0295 33.1877C34.9053 33.115 34.7639 33.0772 34.62 33.0781H30.62C28.72 33.0781 27.07 32.1381 25.9 30.8081C24.6967 29.4454 24.0225 27.696 24 25.8781V11.7381ZM30.63 7.07812C30.0198 7.07943 29.4159 7.20108 28.8528 7.4361C28.2897 7.67112 27.7785 8.0149 27.3484 8.44775C26.9183 8.8806 26.5779 9.39403 26.3465 9.95864C26.1151 10.5232 25.9974 11.128 26 11.7381V25.8781C26 27.1781 26.53 28.4981 27.4 29.4881C27.7933 29.9688 28.2851 30.3595 28.8424 30.6338C29.3996 30.9081 30.0092 31.0596 30.63 31.0781H34.62C35.1182 31.0787 35.6071 31.2121 36.0365 31.4647C36.4659 31.7172 36.8201 32.0798 37.0627 32.5149C37.3052 32.95 37.4272 33.442 37.4162 33.94C37.4052 34.4381 37.2615 34.9241 37 35.3481L35.46 37.8481C35.3827 37.9694 35.3395 38.1094 35.335 38.2532C35.3305 38.397 35.3649 38.5393 35.4345 38.6652C35.5041 38.7911 35.6063 38.8959 35.7305 38.9686C35.8547 39.0413 35.9961 39.0791 36.14 39.0781H38.21C38.3516 39.0794 38.4911 39.043 38.6141 38.9728C38.7371 38.9025 38.8392 38.8008 38.91 38.6781L42.88 31.9981C42.9547 31.8709 42.9928 31.7256 42.99 31.5781V11.7381C42.9953 10.5092 42.5129 9.32843 41.6487 8.4548C40.7844 7.58116 39.6089 7.08606 38.38 7.07812H30.62H30.63Z" fill="#0A95FF"/>
</g>
<defs>
<clipPath id="clip0_1_297">
<rect width="48" height="48" fill="white" transform="translate(0 0.078125)"/>
</clipPath>
</defs>
</svg>
