<svg width="18" height="19" viewBox="0 0 18 19" fill="none" xmlns="http://www.w3.org/2000/svg">
<g clip-path="url(#clip0_1_173)">
<path d="M5 3.35938C4.46957 3.35938 3.96086 3.57009 3.58579 3.94516C3.21071 4.32023 3 4.82894 3 5.35938V15.3594C3 16.4594 3.9 17.3594 5 17.3594H12C12.5304 17.3594 13.0391 17.1487 13.4142 16.7736C13.7893 16.3985 14 15.8898 14 15.3594V5.35938C14 4.82894 13.7893 4.32023 13.4142 3.94516C13.0391 3.57009 12.5304 3.35938 12 3.35938H5ZM7 6.35938C7 6.62459 6.89464 6.87895 6.70711 7.06648C6.51957 7.25402 6.26522 7.35938 6 7.35938C5.73478 7.35938 5.48043 7.25402 5.29289 7.06648C5.10536 6.87895 5 6.62459 5 6.35938C5 6.09416 5.10536 5.8398 5.29289 5.65227C5.48043 5.46473 5.73478 5.35937 6 5.35938C6.26522 5.35937 6.51957 5.46473 6.70711 5.65227C6.89464 5.8398 7 6.09416 7 6.35938V6.35938ZM5 10.8594C5 10.5794 5.22 10.3594 5.5 10.3594H11.5C11.6326 10.3594 11.7598 10.4121 11.8536 10.5058C11.9473 10.5996 12 10.7268 12 10.8594C12 10.992 11.9473 11.1192 11.8536 11.2129C11.7598 11.3067 11.6326 11.3594 11.5 11.3594H5.5C5.36739 11.3594 5.24021 11.3067 5.14645 11.2129C5.05268 11.1192 5 10.992 5 10.8594ZM5.5 12.3594H11.5C11.6326 12.3594 11.7598 12.4121 11.8536 12.5058C11.9473 12.5996 12 12.7268 12 12.8594C12 12.992 11.9473 13.1192 11.8536 13.2129C11.7598 13.3067 11.6326 13.3594 11.5 13.3594H5.5C5.36739 13.3594 5.24021 13.3067 5.14645 13.2129C5.05268 13.1192 5 12.992 5 12.8594C5 12.7268 5.05268 12.5996 5.14645 12.5058C5.24021 12.4121 5.36739 12.3594 5.5 12.3594V12.3594ZM5 14.8594C5 14.5794 5.22 14.3594 5.5 14.3594H11.5C11.6326 14.3594 11.7598 14.4121 11.8536 14.5058C11.9473 14.5996 12 14.7268 12 14.8594C12 14.992 11.9473 15.1192 11.8536 15.2129C11.7598 15.3067 11.6326 15.3594 11.5 15.3594H5.5C5.36739 15.3594 5.24021 15.3067 5.14645 15.2129C5.05268 15.1192 5 14.992 5 14.8594Z" fill="#2F3337"/>
<path opacity="0.4" d="M5.89999 2.35938H12.25C12.9793 2.35938 13.6788 2.64911 14.1945 3.16483C14.7103 3.68056 15 4.38003 15 5.10938V14.4594C15.62 13.8594 16 13.0294 16 12.1094V4.60938C16 2.80938 14.54 1.35938 12.75 1.35938H8.24999C7.32999 1.35938 6.49999 1.73937 5.89999 2.35938Z" fill="#2F3337"/>
</g>
<defs>
<clipPath id="clip0_1_173">
<rect width="18" height="18" fill="white" transform="translate(0 0.359375)"/>
</clipPath>
</defs>
</svg>
