<svg width="48" height="49" viewBox="0 0 48 49" fill="none" xmlns="http://www.w3.org/2000/svg">
<g clip-path="url(#clip0_1_275)">
<path opacity="0.2" d="M5.01 14.8346C5.00734 13.3405 5.59764 11.9064 6.65131 10.8471C7.70498 9.78779 9.13591 9.18987 10.63 9.18457H19.38C22.48 9.18457 25 11.7146 25 14.8346V34.6346L20.06 42.6446C19.9711 42.7905 19.8464 42.9113 19.6975 42.9953C19.5487 43.0794 19.3809 43.1239 19.21 43.1246H15.18C15.005 43.1235 14.8333 43.0765 14.6821 42.9883C14.5309 42.9001 14.4055 42.7738 14.3185 42.622C14.2314 42.4701 14.1857 42.2981 14.186 42.1231C14.1863 41.948 14.2325 41.7761 14.32 41.6246L18.36 34.6346H10.63C9.13591 34.6293 7.70498 34.0314 6.65131 32.9721C5.59764 31.9128 5.00734 30.4787 5.01 28.9846V14.8246V14.8346ZM28 14.8346C27.9947 14.0953 28.1356 13.3623 28.4146 12.6777C28.6935 11.9931 29.105 11.3704 29.6254 10.8454C30.1458 10.3203 30.7648 9.90329 31.4469 9.61828C32.129 9.33326 32.8607 9.18587 33.6 9.18457H41.32C44.42 9.18457 46.95 11.7146 46.95 14.8346V34.6346L43 42.5746C42.9161 42.741 42.7874 42.8807 42.6284 42.9779C42.4694 43.0751 42.2864 43.1259 42.1 43.1246H38.08C37.9076 43.1241 37.7382 43.0791 37.5884 42.9939C37.4385 42.9087 37.3132 42.7861 37.2247 42.6382C37.1361 42.4903 37.0873 42.322 37.083 42.1496C37.0787 41.9773 37.119 41.8067 37.2 41.6546L40.97 34.6346H33.59C32.8516 34.632 32.121 34.4836 31.44 34.198C30.7591 33.9124 30.1412 33.4952 29.6219 32.9702C29.1025 32.4453 28.6919 31.823 28.4136 31.1391C28.1353 30.4551 27.9947 29.723 28 28.9846V14.8246V14.8346Z" fill="#0A95FF"/>
<path d="M1 11.785C0.997369 10.913 1.16651 10.0491 1.49778 9.24245C1.82904 8.43585 2.31594 7.70238 2.93066 7.08394C3.54538 6.46551 4.2759 5.9742 5.0805 5.63809C5.8851 5.30197 6.74802 5.12762 7.62 5.125H16.41C17.282 5.12762 18.1449 5.30197 18.9495 5.63809C19.7541 5.9742 20.4846 6.46551 21.0993 7.08394C21.7141 7.70238 22.201 8.43585 22.5322 9.24245C22.8635 10.0491 23.0326 10.913 23.03 11.785V31.075C23.0291 31.5945 22.8837 32.1034 22.61 32.545L18.14 39.795C17.8886 40.2026 17.5369 40.5388 17.1184 40.7717C16.7 41.0045 16.2289 41.1262 15.75 41.125H13.66C13.161 41.1262 12.6707 40.9941 12.2399 40.7422C11.8092 40.4904 11.4535 40.128 11.2098 39.6926C10.966 39.2571 10.8431 38.7645 10.8537 38.2656C10.8643 37.7667 11.008 37.2797 11.27 36.855L12.81 34.355C12.8873 34.2337 12.9305 34.0938 12.935 33.95C12.9395 33.8062 12.9051 33.6638 12.8355 33.5379C12.7659 33.412 12.6637 33.3072 12.5395 33.2345C12.4153 33.1619 12.2739 33.124 12.13 33.125H7.63C5.73 33.125 4.06 32.185 2.9 30.855C1.69668 29.4922 1.02247 27.7428 1 25.925V11.785ZM7.62 7.125C7.01066 7.12762 6.40781 7.25023 5.84586 7.48584C5.28392 7.72145 4.77388 8.06543 4.34487 8.49815C3.91586 8.93088 3.57629 9.44386 3.34553 10.0078C3.11478 10.5718 2.99737 11.1757 3 11.785V25.925C3 27.225 3.53 28.545 4.4 29.535C4.79217 30.0145 5.28243 30.4044 5.83783 30.6787C6.39323 30.9529 7.0009 31.1051 7.62 31.125H12.12C12.6198 31.122 13.1114 31.2528 13.5436 31.5039C13.9758 31.755 14.3329 32.1173 14.5778 32.553C14.8227 32.9888 14.9465 33.4821 14.9364 33.9819C14.9262 34.4817 14.7824 34.9696 14.52 35.395L12.98 37.895C12.9027 38.0163 12.8595 38.1562 12.855 38.3C12.8505 38.4438 12.8849 38.5862 12.9545 38.7121C13.0241 38.838 13.1263 38.9428 13.2505 39.0155C13.3747 39.0881 13.5161 39.126 13.66 39.125H15.76C15.8963 39.1248 16.0304 39.0899 16.1494 39.0234C16.2684 38.9568 16.3684 38.861 16.44 38.745L20.91 31.495C20.9882 31.3688 21.0297 31.2234 21.03 31.075V11.775C21.0327 10.5461 20.5477 9.36637 19.6816 8.49462C18.8155 7.62286 17.6389 7.13029 16.41 7.125H7.62ZM24 11.785C23.9974 10.9122 24.1668 10.0474 24.4987 9.24015C24.8306 8.43289 25.3184 7.69898 25.9342 7.08041C26.55 6.46184 27.2817 5.97075 28.0874 5.63522C28.8932 5.29969 29.7572 5.12631 30.63 5.125H38.38C39.252 5.12762 40.1149 5.30197 40.9195 5.63809C41.7241 5.9742 42.4546 6.46551 43.0693 7.08394C43.6841 7.70238 44.171 8.43585 44.5022 9.24245C44.8335 10.0491 45.0026 10.913 45 11.785V31.625C45 32.125 44.86 32.625 44.6 33.065L40.64 39.755C40.3909 40.1744 40.0366 40.5214 39.6121 40.7617C39.1876 41.002 38.7078 41.1272 38.22 41.125H36.15C35.651 41.1262 35.1607 40.9941 34.7299 40.7422C34.2992 40.4904 33.9435 40.128 33.6998 39.6926C33.4561 39.2571 33.3331 38.7645 33.3437 38.2656C33.3543 37.7667 33.498 37.2797 33.76 36.855L35.3 34.355C35.3773 34.2337 35.4205 34.0938 35.425 33.95C35.4295 33.8062 35.3951 33.6638 35.3255 33.5379C35.2559 33.412 35.1537 33.3072 35.0295 33.2345C34.9053 33.1619 34.7639 33.124 34.62 33.125H30.62C28.72 33.125 27.07 32.185 25.9 30.855C24.6967 29.4922 24.0225 27.7428 24 25.925V11.785ZM30.63 7.125C30.0198 7.12631 29.4159 7.24796 28.8528 7.48298C28.2897 7.718 27.7785 8.06177 27.3484 8.49463C26.9183 8.92748 26.5779 9.44091 26.3465 10.0055C26.1151 10.5701 25.9974 11.1748 26 11.785V25.925C26 27.225 26.53 28.545 27.4 29.535C27.7933 30.0157 28.2851 30.4064 28.8424 30.6807C29.3996 30.955 30.0092 31.1065 30.63 31.125H34.62C35.1182 31.1255 35.6071 31.259 36.0365 31.5116C36.4659 31.7641 36.8201 32.1267 37.0627 32.5618C37.3052 32.9969 37.4272 33.4889 37.4162 33.9869C37.4052 34.4849 37.2615 34.971 37 35.395L35.46 37.895C35.3827 38.0163 35.3395 38.1562 35.335 38.3C35.3305 38.4438 35.3649 38.5862 35.4345 38.7121C35.5041 38.838 35.6063 38.9428 35.7305 39.0155C35.8547 39.0881 35.9961 39.126 36.14 39.125H38.21C38.3516 39.1263 38.4911 39.0899 38.6141 39.0196C38.7371 38.9493 38.8392 38.8477 38.91 38.725L42.88 32.045C42.9547 31.9178 42.9928 31.7725 42.99 31.625V11.785C42.9953 10.5561 42.5129 9.37531 41.6487 8.50167C40.7844 7.62804 39.6089 7.13293 38.38 7.125H30.62H30.63Z" fill="#0A95FF"/>
</g>
<defs>
<clipPath id="clip0_1_275">
<rect width="48" height="48" fill="white" transform="translate(0 0.125)"/>
</clipPath>
</defs>
</svg>
