<svg width="48" height="49" viewBox="0 0 48 49" fill="none" xmlns="http://www.w3.org/2000/svg">
<g clip-path="url(#clip0_1_286)">
<path opacity="0.2" d="M5.01 15.2408C5.00734 13.7467 5.59764 12.3126 6.65131 11.2533C7.70498 10.194 9.13591 9.59612 10.63 9.59082H19.38C22.48 9.59082 25 12.1208 25 15.2408V35.0408L20.06 43.0508C19.9711 43.1968 19.8464 43.3176 19.6975 43.4016C19.5487 43.4856 19.3809 43.5301 19.21 43.5308H15.18C15.005 43.5298 14.8333 43.4828 14.6821 43.3946C14.5309 43.3064 14.4055 43.1801 14.3185 43.0282C14.2314 42.8764 14.1857 42.7043 14.186 42.5293C14.1863 42.3543 14.2325 42.1824 14.32 42.0308L18.36 35.0408H10.63C9.13591 35.0355 7.70498 34.4376 6.65131 33.3783C5.59764 32.319 5.00734 30.8849 5.01 29.3908V15.2308V15.2408ZM28 15.2408C27.9947 14.5016 28.1356 13.7686 28.4146 13.084C28.6935 12.3994 29.105 11.7767 29.6254 11.2516C30.1458 10.7266 30.7648 10.3095 31.4469 10.0245C32.129 9.73951 32.8607 9.59212 33.6 9.59082H41.32C44.42 9.59082 46.95 12.1208 46.95 15.2408V35.0408L43 42.9808C42.9161 43.1473 42.7874 43.2869 42.6284 43.3841C42.4694 43.4813 42.2864 43.5321 42.1 43.5308H38.08C37.9076 43.5304 37.7382 43.4853 37.5884 43.4001C37.4385 43.3149 37.3132 43.1924 37.2247 43.0445C37.1361 42.8965 37.0873 42.7282 37.083 42.5559C37.0787 42.3835 37.119 42.213 37.2 42.0608L40.97 35.0408H33.59C32.8516 35.0382 32.121 34.8898 31.44 34.6042C30.7591 34.3186 30.1412 33.9014 29.6219 33.3765C29.1025 32.8516 28.6919 32.2293 28.4136 31.5453C28.1353 30.8614 27.9947 30.1292 28 29.3908V15.2308V15.2408Z" fill="#0A95FF"/>
<path d="M1 12.1912C0.997369 11.3193 1.16651 10.4553 1.49778 9.6487C1.82904 8.8421 2.31594 8.10863 2.93066 7.49019C3.54538 6.87176 4.2759 6.38045 5.0805 6.04434C5.8851 5.70822 6.74802 5.53387 7.62 5.53125H16.41C17.282 5.53387 18.1449 5.70822 18.9495 6.04434C19.7541 6.38045 20.4846 6.87176 21.0993 7.49019C21.7141 8.10863 22.201 8.8421 22.5322 9.6487C22.8635 10.4553 23.0326 11.3193 23.03 12.1912V31.4813C23.0291 32.0007 22.8837 32.5097 22.61 32.9512L18.14 40.2012C17.8886 40.6088 17.5369 40.9451 17.1184 41.1779C16.7 41.4108 16.2289 41.5324 15.75 41.5312H13.66C13.161 41.5325 12.6707 41.4003 12.2399 41.1485C11.8092 40.8967 11.4535 40.5343 11.2098 40.0988C10.966 39.6634 10.8431 39.1707 10.8537 38.6718C10.8643 38.1729 11.008 37.686 11.27 37.2612L12.81 34.7612C12.8873 34.6399 12.9305 34.5 12.935 34.3562C12.9395 34.2124 12.9051 34.0701 12.8355 33.9442C12.7659 33.8183 12.6637 33.7135 12.5395 33.6408C12.4153 33.5681 12.2739 33.5303 12.13 33.5312H7.63C5.73 33.5312 4.06 32.5912 2.9 31.2612C1.69668 29.8985 1.02247 28.1491 1 26.3312V12.1912ZM7.62 7.53125C7.01066 7.53387 6.40781 7.65648 5.84586 7.89209C5.28392 8.1277 4.77388 8.47168 4.34487 8.9044C3.91586 9.33713 3.57629 9.85011 3.34553 10.4141C3.11478 10.978 2.99737 11.5819 3 12.1912V26.3312C3 27.6312 3.53 28.9512 4.4 29.9412C4.79217 30.4207 5.28243 30.8107 5.83783 31.0849C6.39323 31.3592 7.0009 31.5114 7.62 31.5312H12.12C12.6198 31.5282 13.1114 31.6591 13.5436 31.9102C13.9758 32.1613 14.3329 32.5235 14.5778 32.9593C14.8227 33.395 14.9465 33.8884 14.9364 34.3881C14.9262 34.8879 14.7824 35.3758 14.52 35.8013L12.98 38.3013C12.9027 38.4226 12.8595 38.5625 12.855 38.7063C12.8505 38.8501 12.8849 38.9924 12.9545 39.1183C13.0241 39.2442 13.1263 39.349 13.2505 39.4217C13.3747 39.4944 13.5161 39.5322 13.66 39.5312H15.76C15.8963 39.5311 16.0304 39.4961 16.1494 39.4296C16.2684 39.3631 16.3684 39.2673 16.44 39.1512L20.91 31.9013C20.9882 31.7751 21.0297 31.6297 21.03 31.4813V12.1812C21.0327 10.9524 20.5477 9.77262 19.6816 8.90087C18.8155 8.02911 17.6389 7.53654 16.41 7.53125H7.62ZM24 12.1912C23.9974 11.3184 24.1668 10.4537 24.4987 9.6464C24.8306 8.83914 25.3184 8.10523 25.9342 7.48666C26.55 6.86809 27.2817 6.377 28.0874 6.04147C28.8932 5.70594 29.7572 5.53256 30.63 5.53125H38.38C39.252 5.53387 40.1149 5.70822 40.9195 6.04434C41.7241 6.38045 42.4546 6.87176 43.0693 7.49019C43.6841 8.10863 44.171 8.8421 44.5022 9.6487C44.8335 10.4553 45.0026 11.3193 45 12.1912V32.0312C45 32.5312 44.86 33.0312 44.6 33.4712L40.64 40.1613C40.3909 40.5806 40.0366 40.9276 39.6121 41.1679C39.1876 41.4082 38.7078 41.5335 38.22 41.5312H36.15C35.651 41.5325 35.1607 41.4003 34.7299 41.1485C34.2992 40.8967 33.9435 40.5343 33.6998 40.0988C33.4561 39.6634 33.3331 39.1707 33.3437 38.6718C33.3543 38.1729 33.498 37.686 33.76 37.2612L35.3 34.7612C35.3773 34.6399 35.4205 34.5 35.425 34.3562C35.4295 34.2124 35.3951 34.0701 35.3255 33.9442C35.2559 33.8183 35.1537 33.7135 35.0295 33.6408C34.9053 33.5681 34.7639 33.5303 34.62 33.5312H30.62C28.72 33.5312 27.07 32.5912 25.9 31.2612C24.6967 29.8985 24.0225 28.1491 24 26.3312V12.1912ZM30.63 7.53125C30.0198 7.53256 29.4159 7.65421 28.8528 7.88923C28.2897 8.12425 27.7785 8.46802 27.3484 8.90088C26.9183 9.33373 26.5779 9.84716 26.3465 10.4118C26.1151 10.9764 25.9974 11.5811 26 12.1912V26.3312C26 27.6312 26.53 28.9512 27.4 29.9412C27.7933 30.422 28.2851 30.8127 28.8424 31.087C29.3996 31.3613 30.0092 31.5128 30.63 31.5312H34.62C35.1182 31.5318 35.6071 31.6652 36.0365 31.9178C36.4659 32.1704 36.8201 32.5329 37.0627 32.968C37.3052 33.4032 37.4272 33.8951 37.4162 34.3932C37.4052 34.8912 37.2615 35.3773 37 35.8013L35.46 38.3013C35.3827 38.4226 35.3395 38.5625 35.335 38.7063C35.3305 38.8501 35.3649 38.9924 35.4345 39.1183C35.5041 39.2442 35.6063 39.349 35.7305 39.4217C35.8547 39.4944 35.9961 39.5322 36.14 39.5312H38.21C38.3516 39.5325 38.4911 39.4962 38.6141 39.4259C38.7371 39.3556 38.8392 39.2539 38.91 39.1312L42.88 32.4513C42.9547 32.3241 42.9928 32.1787 42.99 32.0312V12.1912C42.9953 10.9624 42.5129 9.78156 41.6487 8.90792C40.7844 8.03429 39.6089 7.53918 38.38 7.53125H30.62H30.63Z" fill="#0A95FF"/>
</g>
<defs>
<clipPath id="clip0_1_286">
<rect width="48" height="48" fill="white" transform="translate(0 0.53125)"/>
</clipPath>
</defs>
</svg>
