<svg width="18" height="19" viewBox="0 0 18 19" fill="none" xmlns="http://www.w3.org/2000/svg">
<g clip-path="url(#clip0_1_200)">
<path d="M4.2 1.81443C5.10421 1.45885 6.09255 1.37499 7.04375 1.57312C7.99494 1.77125 8.8676 2.24277 9.55463 2.9298C10.2417 3.61683 10.7132 4.48949 10.9113 5.44068C11.1094 6.39187 11.0256 7.38022 10.67 8.28443L17 14.6144L14.12 17.4944L7.78 11.1544C6.87889 11.5015 5.89645 11.5796 4.95181 11.3794C4.00717 11.1791 3.14092 10.7091 2.45812 10.0263C1.77532 9.3435 1.30529 8.47726 1.10505 7.53262C0.904811 6.58798 0.982953 5.60553 1.33 4.70442L4.55 7.90443L7.43 5.03443L4.2 1.81443Z" fill="#2F3337"/>
</g>
<defs>
<clipPath id="clip0_1_200">
<rect width="18" height="18" fill="white" transform="translate(0 0.484375)"/>
</clipPath>
</defs>
</svg>
