<svg width="188" height="37" viewBox="0 0 188 37" fill="none" xmlns="http://www.w3.org/2000/svg">
<g clip-path="url(#clip0_1_309)">
<path d="M42.5 22.9996L40.3 22.7996C38.6 22.6996 38 21.9996 38 20.7996C38 19.3996 39 18.5996 41 18.5996C42.3 18.4996 43.6 18.8996 44.6 19.6996L45.9 18.3996C44.5 17.3996 42.8 16.8996 41.1 16.9996C38.2 16.9996 36.2 18.4996 36.2 20.8996C36.2 23.0996 37.6 24.2996 40.2 24.4996L42.4 24.6996C44 24.7996 44.6 25.4996 44.6 26.6996C44.6 28.2996 43.2 29.0996 41 29.0996C39.4 29.1996 37.9 28.5996 36.8 27.4996L35.5 28.7996C37 30.1996 39 30.7996 41 30.6996C44.2 30.6996 46.5 29.1996 46.5 26.5996C46.5 23.9996 44.9 23.1996 42.5 22.9996ZM58.3 16.8996C56.1 16.8996 54.8 17.2996 53.6 18.7996L54.9 20.0996C55.7 18.9996 57 18.3996 58.3 18.5996C60.8 18.5996 61.7 19.5996 61.7 21.4996V22.7996H57.7C54.7 22.7996 53.1 24.2996 53.1 26.6996C53.1 27.6996 53.4 28.6996 54.1 29.3996C54.9 30.2996 56 30.5996 57.9 30.5996C59.3 30.6996 60.8 30.1996 61.8 29.1996V30.4996H63.8V21.3996C63.7 18.4996 61.9 16.8996 58.3 16.8996V16.8996ZM61.7 25.7996C61.8 26.5996 61.6 27.4996 61 28.0996C60.5862 28.4437 60.1072 28.7008 59.5918 28.8554C59.0763 29.0101 58.5349 29.0591 58 28.9996C55.9 28.9996 54.9 28.2996 54.9 26.6996C54.9 25.0996 55.9 24.2996 57.9 24.2996H61.7V25.7996V25.7996ZM71.4 18.6996C72.6 18.6996 73.8 19.1996 74.5 20.1996L75.8 18.8996C75.2724 18.2474 74.6 17.727 73.8363 17.3799C73.0725 17.0327 72.2384 16.8683 71.4 16.8996C68 16.8996 65.5 19.1996 65.5 23.7996C65.5 28.3996 68.1 30.6996 71.4 30.6996C73.1 30.7996 74.7 29.9996 75.8 28.6996L74.5 27.3996C73.8 28.3996 72.6 28.8996 71.4 28.8996C70.2 28.9996 69 28.3996 68.3 27.3996C67.6 26.2996 67.3 25.0996 67.4 23.7996C67.3 22.4996 67.6 21.2996 68.3 20.1996C69 19.1996 70.2 18.5996 71.4 18.6996V18.6996ZM88.2 17.0996H85.8L79.7 22.9996V11.0996H77.7V30.4996H79.7V25.5996L82.1 23.1996L86.6 30.4996H89L83.4 21.8996L88.2 17.0996V17.0996ZM97.4 16.9396C95.8 16.8396 94.2 17.4396 93.1 18.6396C91.8 19.9396 91.5 21.5396 91.5 24.0396C91.5 26.5396 91.8 28.1396 93.1 29.4396C94.2 30.5396 95.8 31.1396 97.4 31.1396C99 31.2396 100.6 30.6396 101.7 29.4396C103 28.1396 103.3 26.5396 103.3 24.0396C103.3 21.5396 103 19.9396 101.7 18.6396C101.155 18.0544 100.486 17.5982 99.7419 17.3041C98.9981 17.01 98.198 16.8855 97.4 16.9396V16.9396ZM99.1 27.4396C98.2 28.2396 96.8 28.2396 95.9 27.4396C95.2 26.7396 95.1 25.4396 95.1 24.0396C95.1 22.6396 95.2 21.3396 95.9 20.6396C96.8 19.8396 98.2 19.8396 99.1 20.6396C99.8 21.3396 99.9 22.5396 99.9 24.0396C99.9 25.5396 99.8 26.7396 99.1 27.4396ZM112.7 17.0396L109.9 25.6396L107.1 17.0396H103.4L108.6 31.0396H111.3L116.4 17.0396H112.7ZM122.3 16.9396C118.7 16.9396 116.2 19.5396 116.2 24.0396C116.2 29.7396 119.4 31.2396 122.7 31.2396C124.7 31.3396 126.7 30.5396 128 29.0396L125.9 26.9396C125.1 27.8396 123.9 28.3396 122.7 28.2396C121.1 28.3396 119.7 27.1396 119.6 25.5396V25.1396H128.3V23.5396C128.4 19.7396 126.2 16.9396 122.3 16.9396V16.9396ZM119.6 22.7396C119.6 22.2396 119.7 21.7396 119.9 21.2396C120.3 20.3396 121.2 19.8396 122.2 19.8396C123.2 19.7396 124.1 20.3396 124.5 21.2396C124.7 21.7396 124.8 22.2396 124.8 22.7396H119.6V22.7396ZM132.93 18.4396V17.1396H129.53V31.1396H133.03V22.7396C132.93 21.4396 133.83 20.3396 135.13 20.1396H135.33C136.03 20.1396 136.73 20.4396 137.13 20.9396L139.73 18.3396C139.312 17.8897 138.799 17.5393 138.228 17.3143C137.657 17.0893 137.042 16.9954 136.43 17.0396C135.13 16.9396 133.83 17.4396 132.93 18.4396V18.4396ZM140.53 15.6396V31.0396H144.03V20.0396H146.63V17.3396H144.03V15.8396C143.93 15.2396 144.33 14.6396 144.93 14.5396H146.53V11.5396H144.53C144.018 11.5263 143.508 11.6141 143.03 11.7979C142.551 11.9817 142.114 12.2579 141.743 12.6108C141.371 12.9637 141.073 13.3863 140.865 13.8545C140.657 14.3228 140.543 14.8274 140.53 15.3396V15.6396V15.6396ZM160.8 16.9396C159.2 16.8396 157.6 17.4396 156.5 18.6396C155.2 19.9396 154.9 21.5396 154.9 24.0396C154.9 26.5396 155.2 28.1396 156.5 29.4396C157.6 30.5396 159.2 31.1396 160.8 31.1396C162.4 31.2396 164 30.6396 165.1 29.4396C166.4 28.1396 166.7 26.5396 166.7 24.0396C166.7 21.5396 166.4 19.9396 165.1 18.6396C164.555 18.0544 163.886 17.5982 163.142 17.3041C162.398 17.01 161.598 16.8855 160.8 16.9396V16.9396ZM162.5 27.4396C161.6 28.2396 160.2 28.2396 159.3 27.4396C158.6 26.7396 158.5 25.4396 158.5 24.0396C158.5 22.6396 158.6 21.3396 159.3 20.6396C160.2 19.8396 161.6 19.8396 162.5 20.6396C163.2 21.3396 163.3 22.5396 163.3 24.0396C163.3 25.5396 163.2 26.7396 162.5 27.4396ZM183.2 17.0396L180.9 25.6396L178 17.0396H175.5L172.7 25.7396L170.4 17.1396H166.7L171 31.1396H173.9L176.8 22.3396L179.7 31.1396H182.7L187 17.1396L183.2 17.0396V17.0396ZM151.98 26.8396V11.6396H148.48V27.0396C148.453 27.5388 148.525 28.0384 148.691 28.5098C148.858 28.9812 149.116 29.4151 149.45 29.7867C149.784 30.1582 150.189 30.4602 150.64 30.6752C151.091 30.8902 151.581 31.014 152.08 31.0396H154.58V28.0396H153.28C152.68 28.1396 152.18 27.8396 151.98 27.2396V26.8396V26.8396ZM53.2 17.3996H49.5V12.9996H47.5V26.8996C47.5 28.8996 48.6 30.4996 50.9 30.4996H52.3V28.7996H51.3C50 28.7996 49.5 28.0996 49.5 26.7996V19.0996H51.4L53.2 17.3996V17.3996Z" fill="#232629"/>
<path d="M26.5 33V24H30.5V37H0.5V24H4.5V33H26.5Z" fill="#BCBBBB"/>
<path d="M23.6 25.99L24.28 23.04L8.18 19.69L7.5 23L23.6 25.99V25.99ZM9.6 15.2L24.6 22.2L26 19.2L11 12.2L9.6 15.2ZM13.8 7.8L26.5 18.4L28.6 15.9L15.9 5.3L13.8 7.8V7.8ZM22 0L19.3 2L29.2 15.3L31.9 13.3L22 0ZM7.5 30H23.5V27H7.5V30Z" fill="#F48024"/>
</g>
<defs>
<clipPath id="clip0_1_309">
<rect width="187" height="37" fill="white" transform="translate(0.5)"/>
</clipPath>
</defs>
</svg>
