<svg width="49" height="48" viewBox="0 0 49 48" fill="none" xmlns="http://www.w3.org/2000/svg">
<g clip-path="url(#clip0_2_813)">
<path opacity="0.2" d="M12.125 22C11.5946 22 11.0859 22.2107 10.7108 22.5858C10.3357 22.9609 10.125 23.4696 10.125 24V43C10.125 44.0609 10.5464 45.0783 11.2966 45.8284C12.0467 46.5786 13.0641 47 14.125 47H38.125C39.1859 47 40.2033 46.5786 40.9534 45.8284C41.7036 45.0783 42.125 44.0609 42.125 43V26C42.125 24.9391 41.7036 23.9217 40.9534 23.1716C40.2033 22.4214 39.1859 22 38.125 22H12.125ZM18.125 29C18.1254 28.1308 18.3525 27.2768 18.7836 26.5222C19.2148 25.7675 19.8353 25.1383 20.5838 24.6965C21.3323 24.2548 22.1831 24.0158 23.0521 24.0031C23.9212 23.9904 24.7785 24.2045 25.5396 24.6243C26.3007 25.044 26.9392 25.6549 27.3922 26.3967C27.8452 27.1385 28.097 27.9855 28.1228 28.8543C28.1486 29.723 27.9474 30.5835 27.5392 31.3509C27.131 32.1182 26.5299 32.7659 25.795 33.23L25.845 33.58C25.995 34.42 26.205 35.38 26.455 36.44C26.5306 36.7422 26.5367 37.0577 26.4728 37.3626C26.4089 37.6675 26.2767 37.954 26.0861 38.2004C25.8955 38.4468 25.6515 38.6468 25.3724 38.7853C25.0934 38.9238 24.7865 38.9972 24.475 39H21.775C21.4635 38.9972 21.1566 38.9238 20.8776 38.7853C20.5985 38.6468 20.3545 38.4468 20.1639 38.2004C19.9733 37.954 19.8411 37.6675 19.7772 37.3626C19.7133 37.0577 19.7194 36.7422 19.795 36.44C20.085 35.24 20.315 34.14 20.455 33.24L20.265 33.1C19.6045 32.6394 19.065 32.0261 18.6925 31.3123C18.3199 30.5985 18.1252 29.8052 18.125 29Z" fill="#27348B"/>
<path d="M23.125 24C22.0612 24.0004 21.0252 24.3401 20.1677 24.9697C19.3102 25.5993 18.6758 26.486 18.3568 27.5009C18.0379 28.5158 18.0509 29.6059 18.3941 30.6129C18.7373 31.6198 19.3927 32.4911 20.265 33.1L20.465 33.23C20.315 34.14 20.085 35.23 19.795 36.44C19.7194 36.7422 19.7133 37.0577 19.7772 37.3626C19.8411 37.6675 19.9733 37.954 20.1639 38.2004C20.3545 38.4468 20.5985 38.6468 20.8776 38.7853C21.1566 38.9238 21.4635 38.9972 21.775 39H24.475C25.795 39 26.775 37.74 26.455 36.44C26.2252 35.4932 26.0251 34.5394 25.855 33.58L25.795 33.23C26.7124 32.6518 27.417 31.791 27.8025 30.7774C28.188 29.7638 28.2335 28.6523 27.9322 27.6106C27.6308 26.5689 26.999 25.6533 26.1319 25.0021C25.2648 24.3508 24.2094 23.9991 23.125 24V24ZM23.125 26C23.759 25.9998 24.3768 26.2006 24.8897 26.5734C25.4025 26.9462 25.7841 27.4719 25.9795 28.075C26.175 28.6781 26.1744 29.3277 25.9778 29.9305C25.7811 30.5332 25.3986 31.0582 24.885 31.43L24.725 31.54C24.3946 31.7481 24.1324 32.0484 23.9707 32.4038C23.809 32.7592 23.7549 33.1542 23.815 33.54C23.975 34.52 24.215 35.66 24.515 36.91C24.525 36.96 24.495 37 24.475 37H21.775C21.755 37 21.725 36.96 21.735 36.91C22.035 35.66 22.275 34.51 22.435 33.55C22.4928 33.1892 22.4506 32.8196 22.3131 32.4811C22.1756 32.1426 21.948 31.8483 21.655 31.63L21.525 31.54C20.9737 31.1935 20.5502 30.6772 20.3182 30.0688C20.0863 29.4604 20.0585 28.7931 20.2392 28.1676C20.4198 27.5421 20.7991 26.9923 21.3197 26.6013C21.8402 26.2103 22.4739 25.9992 23.125 26ZM12.125 12.44V18H9.125C8.32935 18 7.56629 18.3161 7.00368 18.8787C6.44107 19.4413 6.125 20.2044 6.125 21V42C6.125 42.7956 6.44107 43.5587 7.00368 44.1213C7.56629 44.6839 8.32935 45 9.125 45H37.125C37.9206 45 38.6837 44.6839 39.2463 44.1213C39.8089 43.5587 40.125 42.7956 40.125 42V21C40.125 20.2044 39.8089 19.4413 39.2463 18.8787C38.6837 18.3161 37.9206 18 37.125 18H34.125V12.44C34.125 6.2 29.485 1 23.125 1C16.765 1 12.125 6.19 12.125 12.44ZM23.125 3C28.265 3 32.125 7.18 32.125 12.44V18H14.125V12.44C14.125 7.18 17.985 3 23.125 3ZM9.125 20H37.125C37.3902 20 37.6446 20.1054 37.8321 20.2929C38.0196 20.4804 38.125 20.7348 38.125 21V42C38.125 42.2652 38.0196 42.5196 37.8321 42.7071C37.6446 42.8946 37.3902 43 37.125 43H9.125C8.85978 43 8.60543 42.8946 8.41789 42.7071C8.23036 42.5196 8.125 42.2652 8.125 42V21C8.125 20.7348 8.23036 20.4804 8.41789 20.2929C8.60543 20.1054 8.85978 20 9.125 20V20Z" fill="#27348B"/>
</g>
<defs>
<clipPath id="clip0_2_813">
<rect width="48" height="48" fill="white" transform="translate(0.125)"/>
</clipPath>
</defs>
</svg>
