<svg width="49" height="49" viewBox="0 0 49 49" fill="none" xmlns="http://www.w3.org/2000/svg">
<g clip-path="url(#clip0_1_408)">
<path opacity="0.2" d="M14.375 28.2812C14.9659 28.2813 15.5511 28.1649 16.0971 27.9387C16.643 27.7126 17.1391 27.3811 17.557 26.9632C17.9748 26.5454 18.3063 26.0493 18.5325 25.5033C18.7586 24.9574 18.875 24.3722 18.875 23.7812C18.875 23.1903 18.7586 22.6051 18.5325 22.0592C18.3063 21.5132 17.9748 21.0171 17.557 20.5993C17.1391 20.1814 16.643 19.8499 16.0971 19.6238C15.5511 19.3976 14.9659 19.2812 14.375 19.2812C13.1815 19.2813 12.0369 19.7554 11.193 20.5993C10.3491 21.4432 9.875 22.5878 9.875 23.7812C9.875 24.9747 10.3491 26.1193 11.193 26.9632C12.0369 27.8071 13.1815 28.2812 14.375 28.2812V28.2812ZM7.875 30.2812C7.875 30.016 7.98036 29.7617 8.16789 29.5741C8.35543 29.3866 8.60978 29.2812 8.875 29.2812H19.875C20.1402 29.2812 20.3946 29.3866 20.5821 29.5741C20.7696 29.7617 20.875 30.016 20.875 30.2812V35.2812H31.875V30.2812C31.875 30.016 31.9804 29.7617 32.1679 29.5741C32.3554 29.3866 32.6098 29.2812 32.875 29.2812H44.875C45.1402 29.2812 45.3946 29.3866 45.5821 29.5741C45.7696 29.7617 45.875 30.016 45.875 30.2812V40.2812C45.875 40.8117 45.6643 41.3204 45.2892 41.6955C44.9141 42.0705 44.4054 42.2812 43.875 42.2812H33.875V47.2812C33.875 47.5465 33.7696 47.8008 33.5821 47.9884C33.3946 48.1759 33.1402 48.2812 32.875 48.2812H20.875C20.6098 48.2812 20.3554 48.1759 20.1679 47.9884C19.9804 47.8008 19.875 47.5465 19.875 47.2812V42.2812H8.875C8.60978 42.2812 8.35543 42.1759 8.16789 41.9884C7.98036 41.8008 7.875 41.5465 7.875 41.2812V30.2812ZM32.875 23.7812C32.875 24.9747 33.3491 26.1193 34.193 26.9632C35.0369 27.8071 36.1815 28.2812 37.375 28.2812C38.5685 28.2812 39.7131 27.8071 40.557 26.9632C41.4009 26.1193 41.875 24.9747 41.875 23.7812C41.875 22.5878 41.4009 21.4432 40.557 20.5993C39.7131 19.7554 38.5685 19.2812 37.375 19.2812C36.1815 19.2812 35.0369 19.7554 34.193 20.5993C33.3491 21.4432 32.875 22.5878 32.875 23.7812V23.7812ZM25.375 34.2812C26.5685 34.2812 27.7131 33.8071 28.557 32.9632C29.4009 32.1193 29.875 30.9747 29.875 29.7812C29.875 28.5878 29.4009 27.4432 28.557 26.5993C27.7131 25.7554 26.5685 25.2812 25.375 25.2812C24.1815 25.2812 23.0369 25.7554 22.193 26.5993C21.3491 27.4432 20.875 28.5878 20.875 29.7812C20.875 30.9747 21.3491 32.1193 22.193 32.9632C23.0369 33.8071 24.1815 34.2812 25.375 34.2812V34.2812Z" fill="#27348B"/>
<path d="M17.275 26.361C18.066 25.5085 18.5921 24.4445 18.7894 23.2984C18.9868 22.1523 18.8468 20.9736 18.3865 19.9056C17.9262 18.8376 17.1655 17.9264 16.1969 17.2828C15.2282 16.6392 14.0935 16.291 12.9306 16.2805C11.7677 16.27 10.6268 16.5977 9.64669 17.2237C8.6666 17.8497 7.88957 18.7471 7.41011 19.8066C6.93064 20.8661 6.76942 22.0421 6.94605 23.1916C7.12268 24.341 7.62955 25.4144 8.405 26.281C6.515 26.341 4.875 27.801 4.875 29.731V40.281C4.875 40.5463 4.98036 40.8006 5.16789 40.9882C5.35543 41.1757 5.60978 41.281 5.875 41.281H14.875C15.1402 41.281 15.3946 41.1757 15.5821 40.9882C15.7696 40.8006 15.875 40.5463 15.875 40.281C15.875 40.0158 15.7696 39.7615 15.5821 39.5739C15.3946 39.3864 15.1402 39.281 14.875 39.281H10.875V32.281C10.875 32.0158 10.7696 31.7615 10.5821 31.5739C10.3946 31.3864 10.1402 31.281 9.875 31.281C9.60978 31.281 9.35543 31.3864 9.16789 31.5739C8.98036 31.7615 8.875 32.0158 8.875 32.281V39.281H6.875V29.731C6.875 29.001 7.545 28.281 8.515 28.281H16.875C17.1062 28.2829 17.3309 28.2047 17.5109 28.0595C17.6909 27.9144 17.815 27.7114 17.8621 27.485C17.9093 27.2587 17.8766 27.023 17.7695 26.8181C17.6625 26.6131 17.4877 26.4516 17.275 26.361ZM12.875 18.281C13.9359 18.281 14.9533 18.7025 15.7034 19.4526C16.4536 20.2028 16.875 21.2202 16.875 22.281C16.875 23.3419 16.4536 24.3593 15.7034 25.1095C14.9533 25.8596 13.9359 26.281 12.875 26.281C11.8141 26.281 10.7967 25.8596 10.0466 25.1095C9.29643 24.3593 8.875 23.3419 8.875 22.281C8.875 21.2202 9.29643 20.2028 10.0466 19.4526C10.7967 18.7025 11.8141 18.281 12.875 18.281V18.281ZM29.345 32.281C30.1178 31.4179 30.6242 30.3496 30.8031 29.2049C30.9819 28.0603 30.8256 26.8883 30.3529 25.8306C29.8802 24.7729 29.1114 23.8747 28.1393 23.2444C27.1673 22.6141 26.0335 22.2787 24.875 22.2787C23.7165 22.2787 22.5827 22.6141 21.6107 23.2444C20.6386 23.8747 19.8698 24.7729 19.3971 25.8306C18.9244 26.8883 18.7681 28.0603 18.9469 29.2049C19.1258 30.3496 19.6322 31.4179 20.405 32.281C19.4795 32.2987 18.5963 32.6722 17.9389 33.324C17.2816 33.9757 16.9005 34.8557 16.875 35.781V46.281C16.875 46.5463 16.9804 46.8006 17.1679 46.9882C17.3554 47.1757 17.6098 47.281 17.875 47.281H31.875C32.1402 47.281 32.3946 47.1757 32.5821 46.9882C32.7696 46.8006 32.875 46.5463 32.875 46.281V35.781C32.875 33.841 31.235 32.361 29.345 32.281ZM20.875 28.281C20.875 27.2202 21.2964 26.2028 22.0466 25.4526C22.7967 24.7025 23.8141 24.281 24.875 24.281C25.9359 24.281 26.9533 24.7025 27.7034 25.4526C28.4536 26.2028 28.875 27.2202 28.875 28.281C28.875 29.3419 28.4536 30.3593 27.7034 31.1095C26.9533 31.8596 25.9359 32.281 24.875 32.281C23.8141 32.281 22.7967 31.8596 22.0466 31.1095C21.2964 30.3593 20.875 29.3419 20.875 28.281ZM20.575 34.281H29.175C30.175 34.281 30.875 35.031 30.875 35.781V45.281H28.875V38.281C28.875 38.0158 28.7696 37.7615 28.5821 37.5739C28.3946 37.3864 28.1402 37.281 27.875 37.281C27.6098 37.281 27.3554 37.3864 27.1679 37.5739C26.9804 37.7615 26.875 38.0158 26.875 38.281V45.281H22.875V38.281C22.875 38.0158 22.7696 37.7615 22.5821 37.5739C22.3946 37.3864 22.1402 37.281 21.875 37.281C21.6098 37.281 21.3554 37.3864 21.1679 37.5739C20.9804 37.7615 20.875 38.0158 20.875 38.281V45.281H18.875V35.781C18.875 35.031 19.575 34.281 20.575 34.281V34.281ZM42.875 22.281C42.875 23.821 42.295 25.221 41.345 26.281C42.2698 26.273 43.1603 26.6314 43.8217 27.2778C44.4831 27.9243 44.8618 28.8063 44.875 29.731V40.281C44.875 40.5463 44.7696 40.8006 44.5821 40.9882C44.3946 41.1757 44.1402 41.281 43.875 41.281H34.875C34.6098 41.281 34.3554 41.1757 34.1679 40.9882C33.9804 40.8006 33.875 40.5463 33.875 40.281C33.875 40.0158 33.9804 39.7615 34.1679 39.5739C34.3554 39.3864 34.6098 39.281 34.875 39.281H38.875V32.281C38.875 32.0158 38.9804 31.7615 39.1679 31.5739C39.3554 31.3864 39.6098 31.281 39.875 31.281C40.1402 31.281 40.3946 31.3864 40.5821 31.5739C40.7696 31.7615 40.875 32.0158 40.875 32.281V39.281H42.875V29.731C42.8619 29.3385 42.6954 28.9667 42.4112 28.6955C42.127 28.4244 41.7478 28.2756 41.355 28.281H32.875C32.6438 28.2829 32.4191 28.2047 32.2391 28.0595C32.0591 27.9144 31.935 27.7114 31.8879 27.485C31.8407 27.2587 31.8734 27.023 31.9805 26.8181C32.0875 26.6131 32.2623 26.4516 32.475 26.361C31.8107 25.6445 31.3315 24.7766 31.0789 23.8327C30.8263 22.8889 30.8081 21.8976 31.0258 20.9451C31.2435 19.9926 31.6905 19.1076 32.328 18.3672C32.9655 17.6267 33.7742 17.0531 34.6837 16.6963C35.5933 16.3394 36.5763 16.2101 37.5472 16.3196C38.5182 16.4291 39.4477 16.774 40.2549 17.3244C41.0622 17.8748 41.7229 18.6141 42.1795 19.4779C42.6361 20.3417 42.8749 21.304 42.875 22.281V22.281ZM40.875 22.281C40.875 21.2202 40.4536 20.2028 39.7034 19.4526C38.9533 18.7025 37.9359 18.281 36.875 18.281C35.8141 18.281 34.7967 18.7025 34.0466 19.4526C33.2964 20.2028 32.875 21.2202 32.875 22.281C32.875 23.3419 33.2964 24.3593 34.0466 25.1095C34.7967 25.8596 35.8141 26.281 36.875 26.281C37.9359 26.281 38.9533 25.8596 39.7034 25.1095C40.4536 24.3593 40.875 23.3419 40.875 22.281Z" fill="#27348B"/>
<g opacity="0.35">
<path d="M17.875 10.2812C17.875 10.016 17.9804 9.76168 18.1679 9.57414C18.3554 9.38661 18.6098 9.28125 18.875 9.28125H30.875C31.1402 9.28125 31.3946 9.38661 31.5821 9.57414C31.7696 9.76168 31.875 10.016 31.875 10.2812C31.875 10.5465 31.7696 10.8008 31.5821 10.9884C31.3946 11.1759 31.1402 11.2812 30.875 11.2812H18.875C18.6098 11.2812 18.3554 11.1759 18.1679 10.9884C17.9804 10.8008 17.875 10.5465 17.875 10.2812ZM18.875 5.28125C18.6098 5.28125 18.3554 5.38661 18.1679 5.57414C17.9804 5.76168 17.875 6.01603 17.875 6.28125C17.875 6.54647 17.9804 6.80082 18.1679 6.98836C18.3554 7.17589 18.6098 7.28125 18.875 7.28125H30.875C31.1402 7.28125 31.3946 7.17589 31.5821 6.98836C31.7696 6.80082 31.875 6.54647 31.875 6.28125C31.875 6.01603 31.7696 5.76168 31.5821 5.57414C31.3946 5.38661 31.1402 5.28125 30.875 5.28125H18.875ZM14.875 1.28125C14.6098 1.28125 14.3554 1.38661 14.1679 1.57414C13.9804 1.76168 13.875 2.01603 13.875 2.28125V14.2812C13.875 14.5465 13.9804 14.8008 14.1679 14.9884C14.3554 15.1759 14.6098 15.2812 14.875 15.2812H19.965L24.165 19.4813C24.2613 19.5786 24.3765 19.6552 24.5035 19.7063C24.6306 19.7573 24.7668 19.7817 24.9037 19.778C25.0406 19.7742 25.1752 19.7424 25.2993 19.6845C25.4234 19.6266 25.5342 19.5438 25.625 19.4412L29.325 15.2812H34.875C35.1402 15.2812 35.3946 15.1759 35.5821 14.9884C35.7696 14.8008 35.875 14.5465 35.875 14.2812V2.28125C35.875 2.01603 35.7696 1.76168 35.5821 1.57414C35.3946 1.38661 35.1402 1.28125 34.875 1.28125H14.875ZM15.875 13.2812V3.28125H33.875V13.2812H28.875C28.733 13.2814 28.5927 13.3118 28.4634 13.3705C28.3341 13.4291 28.2187 13.5146 28.125 13.6213L24.825 17.3213L21.085 13.5712C20.9916 13.4786 20.8807 13.4052 20.7589 13.3555C20.6371 13.3057 20.5066 13.2805 20.375 13.2812H15.875Z" fill="#27348B"/>
</g>
</g>
<defs>
<clipPath id="clip0_1_408">
<rect width="48" height="48" fill="white" transform="translate(0.875 0.28125)"/>
</clipPath>
</defs>
</svg>
