<svg width="116" height="31" viewBox="0 0 116 31" fill="none" xmlns="http://www.w3.org/2000/svg">
<g clip-path="url(#clip0_1_333)">
<path d="M21.5 27.7812V19.7812H24.5V30.7812H0.5V19.7812H3.5V27.7812H21.5Z" fill="#BCBBBB"/>
<path d="M5.9 19.8814L19.46 21.8414L19.63 19.4614L6.37 16.9114L5.9 19.8814V19.8814ZM7.7 13.0814L19.7 18.6814L20.8 16.2814L8.8 10.6814L7.7 13.0814V13.0814ZM11.1 7.18145L21.3 15.6814L23 13.6814L12.8 5.18145L11.1 7.18145V7.18145ZM17.6 0.981445L15.5 2.58145L23.4 13.1814L25.5 11.5814L17.6 0.981445ZM5.5 25.7814H19.5V22.7814H5.5V25.7814Z" fill="#F48024"/>
<path d="M38.5 11.7812H39.5V24.7812H38.5V11.7812Z" fill="#D6D9DC"/>
<path d="M61.04 13.8712V12.2112C61.04 11.9412 60.84 11.7412 60.56 11.7412H51.98C51.7 11.7412 51.5 11.9412 51.5 12.2112V13.8712C51.5 14.1412 51.7 14.3412 51.98 14.3412H54.85V24.2712C54.85 24.5412 55.05 24.7412 55.33 24.7412H57.17C57.45 24.7412 57.65 24.5412 57.65 24.2712V14.3412H60.52C60.84 14.3412 61.04 14.1412 61.04 13.8712V13.8712ZM67.03 12.0912C66.9985 11.9999 66.939 11.9208 66.8601 11.8651C66.7811 11.8095 66.6866 11.7801 66.59 11.7812H65.1C64.9 11.7812 64.74 11.9012 64.66 12.0912L60.2 24.1512C60.16 24.3112 60.16 24.4612 60.24 24.5812C60.32 24.7012 60.48 24.7812 60.64 24.7812H62.6C62.8 24.7812 63 24.6612 63.03 24.4612L63.75 22.3812H67.9L68.62 24.4612C68.7 24.6612 68.86 24.7812 69.06 24.7812H71.02C71.0976 24.7812 71.1742 24.7631 71.2436 24.7284C71.313 24.6937 71.3734 24.6433 71.42 24.5812C71.465 24.5199 71.4925 24.4475 71.4995 24.3717C71.5065 24.296 71.4929 24.2198 71.46 24.1512L67.03 12.0912ZM64.63 19.8512L65.87 16.4312L67.07 19.8512H64.63ZM81.07 22.1812H75.65V12.2512C75.65 11.9712 75.45 11.7812 75.17 11.7812H73.33C73.05 11.7812 72.85 11.9812 72.85 12.2512V24.3112C72.85 24.5812 73.05 24.7812 73.33 24.7812H81.07C81.35 24.7812 81.55 24.5812 81.55 24.3112V22.6512C81.55 22.4212 81.35 22.1812 81.07 22.1812V22.1812ZM90.84 11.7812H83.02C82.74 11.7812 82.54 11.9812 82.54 12.2512V24.3112C82.54 24.5812 82.74 24.7812 83.02 24.7812H90.84C91.12 24.7812 91.32 24.5812 91.32 24.3112V22.6512C91.32 22.3812 91.12 22.1812 90.84 22.1812H85.37V19.5012H89.97C90.24 19.5012 90.44 19.3012 90.44 19.0312V17.4112C90.44 17.1412 90.24 16.9412 89.96 16.9412H85.38V14.3412H90.84C91.12 14.3412 91.32 14.1412 91.32 13.8712V12.2112C91.32 11.9712 91.12 11.7812 90.84 11.7812V11.7812ZM103.09 11.7812H101.26C100.98 11.7812 100.78 11.9812 100.78 12.2512V19.1512L95.98 11.9712C95.9334 11.9091 95.873 11.8587 95.8036 11.824C95.7342 11.7893 95.6576 11.7712 95.58 11.7712H93.88C93.59 11.7712 93.39 11.9712 93.39 12.2512V24.3112C93.39 24.5812 93.59 24.7812 93.87 24.7812H95.71C95.99 24.7812 96.19 24.5812 96.19 24.3112V17.4112L100.98 24.5812C101.06 24.7012 101.22 24.7812 101.38 24.7812H103.09C103.37 24.7812 103.57 24.5812 103.57 24.3112V12.2512C103.57 11.9712 103.37 11.7812 103.09 11.7812V11.7812ZM114.8 11.7812H106.22C105.94 11.7812 105.74 11.9812 105.74 12.2512V13.9112C105.74 14.1812 105.94 14.3812 106.22 14.3812H109.09V24.3112C109.09 24.5812 109.29 24.7812 109.57 24.7812H111.41C111.69 24.7812 111.89 24.5812 111.89 24.3112V14.3812H114.76C115.04 14.3812 115.24 14.1812 115.24 13.9112V12.2512C115.28 11.9712 115.08 11.7812 114.8 11.7812V11.7812Z" fill="#232629"/>
</g>
<defs>
<clipPath id="clip0_1_333">
<rect width="115" height="30" fill="white" transform="translate(0.5 0.78125)"/>
</clipPath>
</defs>
</svg>
