<svg width="158" height="31" viewBox="0 0 158 31" fill="none" xmlns="http://www.w3.org/2000/svg">
<g clip-path="url(#clip0_1_317)">
<path d="M21 27.7812V19.7812H24V30.7812H0V19.7812H3V27.7812H21Z" fill="#BCBBBB"/>
<path d="M5.4 19.8814L18.96 21.8414L19.13 19.4614L5.87 16.9114L5.4 19.8814V19.8814ZM7.2 13.0814L19.2 18.6814L20.3 16.2814L8.3 10.6814L7.2 13.0814V13.0814ZM10.6 7.18145L20.8 15.6814L22.5 13.6814L12.3 5.18145L10.6 7.18145V7.18145ZM17.1 0.981445L15 2.58145L22.9 13.1814L25 11.5814L17.1 0.981445ZM5 25.7814H19V22.7814H5V25.7814Z" fill="#F48024"/>
<path d="M38 11.7812H39V24.7812H38V11.7812Z" fill="#D6D9DC"/>
<path d="M57.9 12.0909C57.8785 12.0143 57.8328 11.9466 57.7698 11.8979C57.7067 11.8493 57.6296 11.8223 57.55 11.8209H56.08C56.0004 11.8223 55.9233 11.8493 55.8602 11.8979C55.7972 11.9466 55.7515 12.0143 55.73 12.0909L51.26 24.2309C51.2379 24.2882 51.23 24.3499 51.237 24.4109C51.244 24.4718 51.2656 24.5302 51.3 24.5809C51.37 24.7009 51.49 24.7309 51.6 24.7309H53.59C53.74 24.7309 53.89 24.6209 53.94 24.4609L54.68 22.2909H58.91L59.65 24.4609C59.69 24.6209 59.85 24.7309 60 24.7309H61.98C62.1 24.7309 62.21 24.6609 62.29 24.5809C62.3244 24.5302 62.346 24.4718 62.353 24.4109C62.36 24.3499 62.3521 24.2882 62.33 24.2309L57.9 12.0909ZM58.13 19.9609H55.5L56.86 16.1609L58.14 19.9609H58.13ZM71.96 14.4209C71.76 13.9209 71.46 13.4909 71.06 13.0609C70.6028 12.6377 70.0656 12.31 69.4801 12.097C68.8945 11.8841 68.2723 11.7902 67.65 11.8209H63.37C63.14 11.8209 62.99 11.9709 62.99 12.2109V24.3509C62.99 24.5809 63.14 24.7309 63.37 24.7309H67.65C69.09 24.7309 70.25 24.3109 71.07 23.4909C71.46 23.1109 71.77 22.6409 71.97 22.0909C72.16 21.5909 72.27 21.0909 72.35 20.5509C72.39 20.0509 72.43 19.4609 72.43 18.8009V17.5609C72.5066 16.4924 72.3461 15.4202 71.96 14.4209V14.4209ZM69.79 18.2209C69.79 19.2209 69.75 20.0409 69.67 20.5509C69.59 21.0109 69.47 21.3609 69.24 21.6309C68.81 22.1009 68.24 22.3309 67.45 22.3309H65.6V14.2609H67.46C68.24 14.2609 68.82 14.5009 69.26 14.9609C69.41 15.1209 69.52 15.3509 69.6 15.6209C69.68 15.9309 69.76 16.2409 69.76 16.5909C69.8 16.9809 69.8 17.5209 69.8 18.2209H69.79ZM82.93 11.8209H81C80.85 11.8209 80.7 11.9409 80.61 12.0909L78.17 19.7709L75.76 12.0909C75.72 11.9409 75.56 11.8209 75.36 11.8209H73.46C73.35 11.8209 73.23 11.9009 73.16 11.9709C73.07 12.0509 73.07 12.2109 73.11 12.3209L77.11 24.4609C77.15 24.6209 77.31 24.7309 77.51 24.7309H78.94C79.1 24.7309 79.25 24.6209 79.29 24.4609L83.33 12.3209C83.37 12.2109 83.33 12.0909 83.29 11.9709C83.18 11.9009 83.06 11.8209 82.94 11.8209H82.93ZM93.18 11.8209H85.41C85.18 11.8209 85.02 11.9709 85.02 12.2109V24.3509C85.02 24.5809 85.18 24.7309 85.41 24.7309H93.18C93.41 24.7309 93.57 24.5809 93.57 24.3509V22.6809C93.5729 22.629 93.5648 22.577 93.5462 22.5283C93.5276 22.4797 93.499 22.4356 93.4622 22.3987C93.4254 22.3619 93.3812 22.3333 93.3326 22.3147C93.284 22.2962 93.232 22.2881 93.18 22.2909H87.62V19.4209H92.29C92.52 19.4209 92.68 19.2709 92.68 19.0309V17.4009C92.68 17.1709 92.52 17.0209 92.28 17.0209H87.62V14.2609H93.18C93.41 14.2609 93.57 14.1109 93.57 13.8709V12.2109C93.57 12.1066 93.5293 12.0063 93.4564 11.9316C93.3835 11.8568 93.2843 11.8136 93.18 11.8109V11.8209ZM102.02 19.2309C102.706 18.96 103.292 18.4824 103.695 17.8644C104.098 17.2463 104.299 16.5183 104.27 15.7809C104.3 15.0828 104.129 14.3908 103.778 13.7865C103.428 13.1822 102.911 12.691 102.29 12.3709C101.619 12.0158 100.868 11.8401 100.11 11.8609H95.37C95.14 11.8609 94.98 12.0109 94.98 12.2509V24.3809C94.98 24.6109 95.14 24.7609 95.38 24.7609H97.24C97.47 24.7609 97.63 24.6109 97.63 24.3809V19.6409H99.3L101.74 24.5409C101.82 24.6409 101.94 24.7609 102.09 24.7609H104.23C104.35 24.7609 104.5 24.6909 104.58 24.5709C104.619 24.5133 104.639 24.4454 104.639 24.3759C104.639 24.3065 104.619 24.2386 104.58 24.1809L102.02 19.2209V19.2309ZM101.67 15.7709C101.67 16.2409 101.51 16.5909 101.24 16.8709C100.93 17.1309 100.54 17.2909 100 17.2909H97.66V14.2609H100C100.54 14.2609 100.93 14.3809 101.24 14.6909C101.51 14.9209 101.67 15.3109 101.67 15.7709V15.7709ZM113.83 11.8209H105.29C105.05 11.8209 104.89 11.9709 104.89 12.2109V13.8709C104.89 14.1109 105.05 14.2709 105.29 14.2709H108.24V24.3509C108.24 24.5809 108.39 24.7309 108.63 24.7309H110.45C110.69 24.7309 110.85 24.5809 110.85 24.3509V14.2609H113.8C114.03 14.2609 114.18 14.1109 114.18 13.8709V12.2109C114.22 12.0109 114.03 11.8109 113.83 11.8109V11.8209ZM118.3 11.8209H116.43C116.2 11.8209 116.04 11.9709 116.04 12.2109V24.3509C116.04 24.5809 116.2 24.7309 116.43 24.7309H118.29C118.53 24.7309 118.69 24.5809 118.69 24.3509V12.2109C118.69 12.1584 118.68 12.1064 118.66 12.0579C118.639 12.0093 118.61 11.9652 118.573 11.9281C118.536 11.891 118.492 11.8615 118.443 11.8414C118.395 11.8213 118.343 11.8109 118.29 11.8109L118.3 11.8209ZM128.6 18.1009C128.309 17.8283 127.965 17.6174 127.59 17.4809C127.126 17.3052 126.643 17.1877 126.15 17.1309L124.75 16.9309C124.508 16.9041 124.272 16.84 124.05 16.7409C123.85 16.6709 123.66 16.5509 123.59 16.4709C123.35 16.2709 123.28 16.0109 123.28 15.6209C123.28 15.3109 123.35 15.0809 123.47 14.8409C123.63 14.6109 123.82 14.4609 124.05 14.3409C124.33 14.2209 124.68 14.1409 125.06 14.1409C125.41 14.1409 125.72 14.1809 126 14.2209C126.27 14.2609 126.5 14.3809 126.77 14.5009C127.01 14.6109 127.24 14.7709 127.47 15.0009C127.63 15.1509 127.87 15.1509 128.02 15.0009L129.22 13.8409C129.3 13.7609 129.34 13.6409 129.34 13.5609C129.34 13.51 129.33 13.4596 129.309 13.4131C129.288 13.3665 129.258 13.3249 129.22 13.2909C128.703 12.8039 128.094 12.4233 127.43 12.1709C126.706 11.9236 125.945 11.8051 125.18 11.8209C124.28 11.8209 123.51 11.9709 122.85 12.2809C122.196 12.584 121.647 13.0749 121.273 13.6911C120.899 14.3073 120.717 15.0209 120.75 15.7409C120.75 16.8209 121.1 17.7109 121.76 18.3409C122.38 18.9209 123.2 19.2709 124.29 19.4209L125.72 19.6209C126.03 19.6509 126.31 19.7309 126.46 19.7709C126.62 19.8109 126.73 19.8909 126.86 20.0409C127.08 20.2409 127.2 20.5809 127.2 21.0109C127.2 21.4809 127.04 21.8309 126.7 22.0609C126.3 22.3309 125.76 22.4909 125.06 22.4909C124.36 22.4915 123.668 22.3307 123.04 22.0209C122.743 21.8517 122.471 21.6432 122.23 21.4009C122.195 21.3611 122.152 21.3297 122.104 21.3089C122.055 21.2881 122.003 21.2786 121.95 21.2809C121.899 21.2807 121.849 21.2913 121.802 21.312C121.756 21.3327 121.714 21.363 121.68 21.4009L120.44 22.6009C120.402 22.6345 120.371 22.676 120.35 22.7227C120.329 22.7693 120.319 22.8199 120.32 22.8709C120.32 22.9909 120.36 23.0709 120.44 23.1409C121.008 23.7245 121.698 24.1753 122.46 24.4609C123.2 24.7309 124.06 24.8609 125.02 24.8609C126.234 24.8777 127.422 24.5063 128.41 23.8009C128.843 23.4538 129.19 23.0116 129.424 22.5086C129.658 22.0057 129.773 21.4556 129.76 20.9009C129.774 20.379 129.678 19.8599 129.478 19.3775C129.278 18.895 128.979 18.4601 128.6 18.1009V18.1009ZM133.84 11.8209H131.98C131.75 11.8209 131.59 11.9709 131.59 12.2109V24.3509C131.59 24.5809 131.75 24.7309 131.98 24.7309H133.84C134.08 24.7309 134.24 24.5809 134.24 24.3509V12.2109C134.24 12.1049 134.198 12.0031 134.123 11.9281C134.048 11.8531 133.946 11.8109 133.84 11.8109V11.8209ZM145.53 11.8209H143.71C143.47 11.8209 143.31 11.9709 143.31 12.2109V19.4609L138.42 12.0109C138.35 11.9009 138.22 11.8109 138.12 11.8109H136.4C136.17 11.8109 136.01 11.9709 136.01 12.2109V24.3509C136.01 24.5809 136.17 24.7309 136.41 24.7309H138.27C138.5 24.7309 138.66 24.5809 138.66 24.3509V17.0809L143.56 24.5309C143.63 24.6509 143.75 24.7309 143.86 24.7309H145.57C145.81 24.7309 145.97 24.5709 145.97 24.3309V12.2209C145.92 12.0209 145.73 11.8209 145.53 11.8209V11.8209ZM157.13 17.4009H152.7C152.47 17.4009 152.31 17.5609 152.31 17.8009V19.3409C152.31 19.5809 152.47 19.7409 152.7 19.7409H154.91V20.0409C154.91 20.7409 154.72 21.2809 154.41 21.7109C153.98 22.2109 153.44 22.4509 152.74 22.4509C152.46 22.4589 152.181 22.4108 151.92 22.3095C151.659 22.2082 151.421 22.0557 151.22 21.8609C151.09 21.7294 150.988 21.573 150.92 21.4009C150.83 21.2409 150.79 21.0509 150.72 20.7809L150.6 19.8109C150.6 19.4609 150.56 18.9609 150.56 18.3009C150.56 17.1309 150.6 16.2809 150.72 15.8109C150.79 15.3909 150.95 15.0409 151.22 14.7709C151.42 14.5709 151.62 14.4209 151.88 14.3009C152.16 14.1809 152.43 14.1509 152.74 14.1509C153.13 14.1509 153.48 14.2209 153.79 14.3809C154.09 14.5309 154.33 14.7309 154.53 15.0009C154.72 15.2709 154.87 15.6209 154.95 16.0009C154.99 16.2009 155.15 16.3209 155.35 16.3209H157.21C157.32 16.3209 157.44 16.2809 157.51 16.1609C157.6 16.0909 157.63 15.9609 157.6 15.8609C157.5 15.1175 157.218 14.4101 156.78 13.8009C156.343 13.1491 155.745 12.6208 155.045 12.267C154.344 11.9132 153.564 11.7458 152.78 11.7809C151.929 11.7649 151.089 11.9795 150.349 12.402C149.61 12.8245 148.998 13.4392 148.58 14.1809C148.42 14.5309 148.27 14.9209 148.19 15.3109C148.11 15.7009 148.08 16.1209 148.04 16.5509C148 16.9809 148 17.5509 148 18.3409C148 19.3009 148.04 20.0409 148.08 20.5809C148.11 21.1309 148.23 21.6309 148.42 22.1409C148.62 22.6409 148.93 23.0709 149.32 23.5409C149.935 24.1323 150.682 24.5678 151.5 24.8109C151.88 24.9309 152.35 24.9709 152.78 24.9709C153.456 24.9921 154.128 24.8672 154.751 24.6049C155.374 24.3426 155.933 23.949 156.39 23.4509C156.82 22.9909 157.13 22.4509 157.32 21.8609C157.52 21.2809 157.6 20.5809 157.6 19.7709V17.9109C157.52 17.5609 157.32 17.4109 157.13 17.4109V17.4009Z" fill="#232629"/>
</g>
<defs>
<clipPath id="clip0_1_317">
<rect width="158" height="30" fill="white" transform="translate(0 0.78125)"/>
</clipPath>
</defs>
</svg>
