<svg width="18" height="19" viewBox="0 0 18 19" fill="none" xmlns="http://www.w3.org/2000/svg">
<g clip-path="url(#clip0_1_30)">
<path d="M9 17.5312C11.1217 17.5312 13.1566 16.6884 14.6569 15.1881C16.1571 13.6878 17 11.653 17 9.53125C17 7.40952 16.1571 5.37469 14.6569 3.8744C13.1566 2.3741 11.1217 1.53125 9 1.53125C6.87827 1.53125 4.84344 2.3741 3.34315 3.8744C1.84285 5.37469 1 7.40952 1 9.53125C1 11.653 1.84285 13.6878 3.34315 15.1881C4.84344 16.6884 6.87827 17.5312 9 17.5312V17.5312ZM9.25 14.0813C9.17483 14.215 9.0699 14.3297 8.94331 14.4164C8.81672 14.5031 8.67188 14.5595 8.52 14.5813C8.2 14.5813 7.9 14.5213 7.67 14.2913L4.67 11.2913C4.50937 11.0966 4.42829 10.8484 4.44302 10.5964C4.45774 10.3445 4.56719 10.1074 4.74941 9.93281C4.93162 9.75818 5.17313 9.65892 5.42547 9.65492C5.67782 9.65092 5.92235 9.74249 6.11 9.91125L8.16 11.9113L11.72 5.63125C11.99 5.16125 12.61 4.98125 13.08 5.25125C13.55 5.52125 13.73 6.14125 13.46 6.61125L9.25 14.0813V14.0813Z" fill="#48A868"/>
</g>
<defs>
<clipPath id="clip0_1_30">
<rect width="18" height="18" fill="white" transform="translate(0 0.53125)"/>
</clipPath>
</defs>
</svg>
