<svg width="48" height="49" viewBox="0 0 48 49" fill="none" xmlns="http://www.w3.org/2000/svg">
<g clip-path="url(#clip0_1_372)">
<path opacity="0.2" d="M12 22.3906C11.4696 22.3906 10.9609 22.6013 10.5858 22.9764C10.2107 23.3515 10 23.8602 10 24.3906V43.3906C10 44.4515 10.4214 45.4689 11.1716 46.2191C11.9217 46.9692 12.9391 47.3906 14 47.3906H38C39.0609 47.3906 40.0783 46.9692 40.8284 46.2191C41.5786 45.4689 42 44.4515 42 43.3906V26.3906C42 25.3298 41.5786 24.3123 40.8284 23.5622C40.0783 22.8121 39.0609 22.3906 38 22.3906H12ZM18 29.3906C18.0004 28.5215 18.2275 27.6674 18.6586 26.9128C19.0898 26.1581 19.7103 25.5289 20.4588 25.0871C21.2073 24.6454 22.0581 24.4064 22.9271 24.3937C23.7962 24.3811 24.6535 24.5952 25.4146 25.0149C26.1757 25.4346 26.8142 26.0455 27.2672 26.7873C27.7202 27.5291 27.972 28.3761 27.9978 29.2449C28.0236 30.1137 27.8224 30.9742 27.4142 31.7415C27.006 32.5088 26.4049 33.1565 25.67 33.6206L25.72 33.9706C25.87 34.8106 26.08 35.7706 26.33 36.8306C26.4056 37.1328 26.4117 37.4483 26.3478 37.7532C26.2839 38.0581 26.1517 38.3446 25.9611 38.591C25.7705 38.8374 25.5265 39.0374 25.2474 39.1759C24.9684 39.3144 24.6615 39.3878 24.35 39.3906H21.65C21.3385 39.3878 21.0316 39.3144 20.7526 39.1759C20.4735 39.0374 20.2295 38.8374 20.0389 38.591C19.8483 38.3446 19.7161 38.0581 19.6522 37.7532C19.5883 37.4483 19.5944 37.1328 19.67 36.8306C19.96 35.6306 20.19 34.5306 20.33 33.6306L20.14 33.4906C19.4795 33.03 18.94 32.4168 18.5675 31.7029C18.1949 30.9891 18.0002 30.1958 18 29.3906Z" fill="#0A95FF"/>
<path d="M23 24.3906C21.9362 24.391 20.9002 24.7307 20.0427 25.3603C19.1852 25.9899 18.5508 26.8766 18.2318 27.8915C17.9129 28.9064 17.9259 29.9965 18.2691 31.0035C18.6123 32.0105 19.2677 32.8817 20.14 33.4906L20.34 33.6206C20.19 34.5306 19.96 35.6206 19.67 36.8306C19.5944 37.1328 19.5883 37.4483 19.6522 37.7532C19.7161 38.0581 19.8483 38.3446 20.0389 38.591C20.2295 38.8374 20.4735 39.0374 20.7526 39.1759C21.0316 39.3144 21.3385 39.3878 21.65 39.3906H24.35C25.67 39.3906 26.65 38.1306 26.33 36.8306C26.1002 35.8838 25.9001 34.93 25.73 33.9706L25.67 33.6206C26.5874 33.0424 27.292 32.1816 27.6775 31.168C28.063 30.1544 28.1085 29.0429 27.8072 28.0012C27.5058 26.9595 26.874 26.044 26.0069 25.3927C25.1398 24.7414 24.0844 24.3897 23 24.3906V24.3906ZM23 26.3906C23.634 26.3905 24.2518 26.5912 24.7647 26.964C25.2775 27.3368 25.6591 27.8625 25.8545 28.4656C26.05 29.0688 26.0494 29.7183 25.8528 30.3211C25.6561 30.9238 25.2736 31.4488 24.76 31.8206L24.6 31.9306C24.2696 32.1388 24.0074 32.4391 23.8457 32.7945C23.684 33.1499 23.6299 33.5448 23.69 33.9306C23.85 34.9106 24.09 36.0506 24.39 37.3006C24.4 37.3506 24.37 37.3906 24.35 37.3906H21.65C21.63 37.3906 21.6 37.3506 21.61 37.3006C21.91 36.0506 22.15 34.9006 22.31 33.9406C22.3678 33.5799 22.3256 33.2102 22.1881 32.8717C22.0506 32.5332 21.823 32.2389 21.53 32.0206L21.4 31.9306C20.8487 31.5842 20.4252 31.0678 20.1932 30.4594C19.9613 29.8511 19.9335 29.1837 20.1142 28.5582C20.2948 27.9327 20.6741 27.3829 21.1947 26.9919C21.7152 26.6009 22.3489 26.3898 23 26.3906ZM12 12.8306V18.3906H9C8.20435 18.3906 7.44129 18.7067 6.87868 19.2693C6.31607 19.8319 6 20.595 6 21.3906V42.3906C6 43.1863 6.31607 43.9493 6.87868 44.5119C7.44129 45.0746 8.20435 45.3906 9 45.3906H37C37.7956 45.3906 38.5587 45.0746 39.1213 44.5119C39.6839 43.9493 40 43.1863 40 42.3906V21.3906C40 20.595 39.6839 19.8319 39.1213 19.2693C38.5587 18.7067 37.7956 18.3906 37 18.3906H34V12.8306C34 6.59062 29.36 1.39062 23 1.39062C16.64 1.39062 12 6.58062 12 12.8306ZM23 3.39062C28.14 3.39062 32 7.57062 32 12.8306V18.3906H14V12.8306C14 7.57062 17.86 3.39062 23 3.39062ZM9 20.3906H37C37.2652 20.3906 37.5196 20.496 37.7071 20.6835C37.8946 20.8711 38 21.1254 38 21.3906V42.3906C38 42.6558 37.8946 42.9102 37.7071 43.0977C37.5196 43.2853 37.2652 43.3906 37 43.3906H9C8.73478 43.3906 8.48043 43.2853 8.29289 43.0977C8.10536 42.9102 8 42.6558 8 42.3906V21.3906C8 21.1254 8.10536 20.8711 8.29289 20.6835C8.48043 20.496 8.73478 20.3906 9 20.3906V20.3906Z" fill="#0A95FF"/>
</g>
<defs>
<clipPath id="clip0_1_372">
<rect width="48" height="48" fill="white" transform="translate(0 0.390625)"/>
</clipPath>
</defs>
</svg>
