<svg width="49" height="49" viewBox="0 0 49 49" fill="none" xmlns="http://www.w3.org/2000/svg">
<g clip-path="url(#clip0_1_416)">
<path opacity="0.2" d="M33.925 7.34081C31.3313 5.92565 28.455 5.10581 25.505 4.94081C22.5628 4.82926 19.6334 5.38301 16.935 6.56081C16.735 6.70081 16.685 6.93081 16.815 7.16081L19.065 11.1308C19.185 11.3208 19.465 11.4708 19.715 11.4708C19.7727 11.4679 19.8298 11.4578 19.885 11.4408C20.415 11.3208 23.405 10.6408 25.285 10.7208C27.185 10.8108 30.175 11.7908 30.605 11.9408L30.715 11.9708C30.945 12.0008 31.235 11.9208 31.375 11.6908L33.985 7.95081C34.125 7.73081 34.105 7.49081 33.915 7.34081H33.925ZM8.125 39.8008C8.125 42.0408 9.925 43.8608 12.125 43.8608C13.235 43.8608 14.165 42.9308 14.165 41.8608V32.3308C14.165 31.2108 13.235 30.2808 12.135 30.2808C11.0653 30.2887 10.0423 30.7206 9.29059 31.4817C8.53885 32.2429 8.11967 33.2711 8.125 34.3408V39.8008ZM40.155 43.8608C42.355 43.8608 44.155 42.0408 44.155 39.8008V34.3408C44.155 32.1008 42.355 30.2808 40.155 30.2808C39.055 30.2808 38.125 31.2108 38.125 32.3308V41.8508C38.125 42.9308 39.045 43.8508 40.155 43.8508V43.8608ZM23.125 48.2808H27.125C27.6554 48.2808 28.1641 48.0701 28.5392 47.695C28.9143 47.3199 29.125 46.8112 29.125 46.2808C29.125 45.7504 28.9143 45.2417 28.5392 44.8666C28.1641 44.4915 27.6554 44.2808 27.125 44.2808H23.125C22.5946 44.2808 22.0859 44.4915 21.7108 44.8666C21.3357 45.2417 21.125 45.7504 21.125 46.2808C21.125 46.8112 21.3357 47.3199 21.7108 47.695C22.0859 48.0701 22.5946 48.2808 23.125 48.2808V48.2808Z" fill="#27348B"/>
<path d="M13.785 5.82125C8.165 8.88125 4.125 14.5212 4.125 21.2812V33.2812H5.125V32.1712C5.1382 30.8628 5.66998 29.6131 6.60364 28.6963C7.53729 27.7795 8.79653 27.2706 10.105 27.2812C10.8989 27.2759 11.6626 27.5855 12.2287 28.1422C12.7948 28.6989 13.1171 29.4573 13.125 30.2512V39.3512C13.1067 40.1382 12.7798 40.8864 12.2148 41.4345C11.6499 41.9826 10.8921 42.2867 10.105 42.2812C8.95085 42.2872 7.83061 41.8912 6.93652 41.1614C6.04244 40.4315 5.43024 39.4132 5.205 38.2812H3.455C2.055 38.2812 1.125 37.0512 1.125 35.7812C1.125 34.9812 1.495 34.1912 2.125 33.7212V21.2812C2.125 9.62125 12.695 1.28125 23.625 1.28125C34.555 1.28125 45.125 9.62125 45.125 21.2812V32.7212C45.755 33.1912 46.125 33.9812 46.125 34.7812C46.125 36.0512 45.185 37.2812 43.795 37.2812H42.125V37.3913C42.1213 38.3647 41.8271 39.3148 41.2802 40.12C40.7333 40.9253 39.9585 41.549 39.055 41.9113C39.1016 42.029 39.1253 42.1546 39.125 42.2812C39.142 42.6797 39.076 43.0774 38.9312 43.4491C38.7865 43.8208 38.5661 44.1583 38.2841 44.4403C38.002 44.7224 37.6645 44.9427 37.2928 45.0875C36.9212 45.2323 36.5235 45.2982 36.125 45.2812H27.955C27.7481 45.8664 27.3648 46.373 26.858 46.7312C26.3511 47.0894 25.7457 47.2816 25.125 47.2812H21.125C20.3294 47.2812 19.5663 46.9652 19.0037 46.4026C18.4411 45.84 18.125 45.0769 18.125 44.2812C18.125 43.4856 18.4411 42.7225 19.0037 42.1599C19.5663 41.5973 20.3294 41.2812 21.125 41.2812H25.125C25.7457 41.2809 26.3511 41.4731 26.858 41.8313C27.3648 42.1895 27.7481 42.6961 27.955 43.2812H36.125C36.585 43.2812 36.785 43.1213 36.905 42.9813C37.045 42.7813 37.125 42.5212 37.125 42.2812C36.343 42.2815 35.5918 41.9765 35.0315 41.431C34.4711 40.8856 34.1459 40.143 34.125 39.3613V30.2512C34.1329 29.4573 34.4552 28.6989 35.0213 28.1422C35.5874 27.5855 36.3511 27.2759 37.145 27.2812C38.4535 27.2706 39.7127 27.7795 40.6464 28.6963C41.58 29.6131 42.1118 30.8628 42.125 32.1712V32.2812H43.125V21.2812C43.125 14.7712 39.375 9.31125 34.085 6.18125C34.0755 6.1982 34.0655 6.21488 34.055 6.23125L32.895 7.91125C35.315 9.48125 37.335 11.0113 38.765 13.0712C40.345 15.3812 41.125 18.2112 41.125 22.2812C41.125 22.5465 41.0196 22.8008 40.8321 22.9884C40.6446 23.1759 40.3902 23.2812 40.125 23.2812C39.8598 23.2812 39.6054 23.1759 39.4179 22.9884C39.2304 22.8008 39.125 22.5465 39.125 22.2812C39.125 18.4813 38.405 16.0813 37.115 14.2113C35.915 12.4713 34.155 11.1113 31.755 9.55125L31.045 10.5913C30.9188 10.7741 30.7353 10.9098 30.5234 10.9768C30.3116 11.0438 30.0834 11.0383 29.875 10.9613C28.045 10.2813 26.175 10.0212 24.055 10.0212C21.955 10.0212 20.055 10.3213 18.215 10.9613C18.0081 11.0324 17.7836 11.0338 17.5759 10.9652C17.3682 10.8965 17.1887 10.7617 17.065 10.5813L16.085 9.17125C13.385 10.9013 11.435 12.3313 10.135 14.2113C8.845 16.0813 8.125 18.4813 8.125 22.2812C8.125 22.5465 8.01964 22.8008 7.83211 22.9884C7.64457 23.1759 7.39022 23.2812 7.125 23.2812C6.85978 23.2812 6.60543 23.1759 6.41789 22.9884C6.23036 22.8008 6.125 22.5465 6.125 22.2812C6.125 18.2112 6.905 15.3713 8.485 13.0813C10.025 10.8513 12.265 9.24125 14.955 7.52125L13.805 5.85125C13.7982 5.84137 13.7915 5.83137 13.785 5.82125V5.82125ZM15.605 4.93125L18.285 8.83125C20.1576 8.27674 22.1021 8.00376 24.055 8.02125C26.085 8.02125 27.965 8.24125 29.825 8.82125L32.315 5.23125C29.5959 3.95321 26.6295 3.28755 23.625 3.28125C20.835 3.28125 18.105 3.87125 15.605 4.93125ZM25.125 43.2812H21.125C20.8598 43.2812 20.6054 43.3866 20.4179 43.5741C20.2304 43.7617 20.125 44.016 20.125 44.2812C20.125 44.5465 20.2304 44.8008 20.4179 44.9884C20.6054 45.1759 20.8598 45.2812 21.125 45.2812H25.125C25.3902 45.2812 25.6446 45.1759 25.8321 44.9884C26.0196 44.8008 26.125 44.5465 26.125 44.2812C26.125 44.016 26.0196 43.7617 25.8321 43.5741C25.6446 43.3866 25.3902 43.2812 25.125 43.2812ZM7.125 32.1712V37.3913C7.13816 38.1693 7.45921 38.9103 8.0178 39.452C8.57639 39.9938 9.32695 40.2919 10.105 40.2812C10.695 40.2812 11.125 39.8013 11.125 39.3613V30.2512C11.1171 29.9878 11.0056 29.738 10.8146 29.5564C10.6236 29.3747 10.3685 29.2759 10.105 29.2812C9.32695 29.2706 8.57639 29.5687 8.0178 30.1105C7.45921 30.6522 7.13816 31.3932 7.125 32.1712V32.1712ZM5.125 35.2812H3.455C3.405 35.2812 3.335 35.3012 3.255 35.3812C3.16482 35.4945 3.11865 35.6366 3.125 35.7812C3.125 35.9513 3.185 36.0913 3.265 36.1813C3.335 36.2613 3.405 36.2812 3.465 36.2812H5.125V35.2812ZM40.125 32.1712C40.1118 31.3932 39.7908 30.6522 39.2322 30.1105C38.6736 29.5687 37.9231 29.2706 37.145 29.2812C36.8815 29.2759 36.6264 29.3747 36.4354 29.5564C36.2444 29.738 36.1329 29.9878 36.125 30.2512V39.3512C36.125 39.8012 36.555 40.2812 37.145 40.2812C37.9231 40.2919 38.6736 39.9938 39.2322 39.452C39.7908 38.9103 40.1118 38.1693 40.125 37.3913V32.1812V32.1712ZM42.125 35.2812H43.795C43.845 35.2812 43.915 35.2613 43.995 35.1813C44.0852 35.068 44.1313 34.9259 44.125 34.7812C44.1285 34.6353 44.0788 34.4931 43.985 34.3812C43.915 34.3012 43.845 34.2812 43.785 34.2812H42.125V35.2812Z" fill="#27348B"/>
</g>
<defs>
<clipPath id="clip0_1_416">
<rect width="48" height="48" fill="white" transform="translate(0.125 0.28125)"/>
</clipPath>
</defs>
</svg>
