<svg width="48" height="49" viewBox="0 0 48 49" fill="none" xmlns="http://www.w3.org/2000/svg">
<g clip-path="url(#clip0_1_346)">
<path opacity="0.2" d="M12 22.125C11.4696 22.125 10.9609 22.3357 10.5858 22.7108C10.2107 23.0859 10 23.5946 10 24.125V43.125C10 44.1859 10.4214 45.2033 11.1716 45.9534C11.9217 46.7036 12.9391 47.125 14 47.125H38C39.0609 47.125 40.0783 46.7036 40.8284 45.9534C41.5786 45.2033 42 44.1859 42 43.125V26.125C42 25.0641 41.5786 24.0467 40.8284 23.2966C40.0783 22.5464 39.0609 22.125 38 22.125H12ZM18 29.125C18.0004 28.2558 18.2275 27.4018 18.6586 26.6472C19.0898 25.8925 19.7103 25.2633 20.4588 24.8215C21.2073 24.3798 22.0581 24.1408 22.9271 24.1281C23.7962 24.1154 24.6535 24.3295 25.4146 24.7493C26.1757 25.169 26.8142 25.7799 27.2672 26.5217C27.7202 27.2635 27.972 28.1105 27.9978 28.9793C28.0236 29.848 27.8224 30.7085 27.4142 31.4759C27.006 32.2432 26.4049 32.8909 25.67 33.355L25.72 33.705C25.87 34.545 26.08 35.505 26.33 36.565C26.4056 36.8672 26.4117 37.1827 26.3478 37.4876C26.2839 37.7925 26.1517 38.079 25.9611 38.3254C25.7705 38.5718 25.5265 38.7718 25.2474 38.9103C24.9684 39.0488 24.6615 39.1222 24.35 39.125H21.65C21.3385 39.1222 21.0316 39.0488 20.7526 38.9103C20.4735 38.7718 20.2295 38.5718 20.0389 38.3254C19.8483 38.079 19.7161 37.7925 19.6522 37.4876C19.5883 37.1827 19.5944 36.8672 19.67 36.565C19.96 35.365 20.19 34.265 20.33 33.365L20.14 33.225C19.4795 32.7644 18.94 32.1511 18.5675 31.4373C18.1949 30.7235 18.0002 29.9302 18 29.125Z" fill="#232629"/>
<path d="M23 24.125C21.9362 24.1254 20.9002 24.4651 20.0427 25.0947C19.1852 25.7243 18.5508 26.611 18.2318 27.6259C17.9129 28.6408 17.9259 29.7309 18.2691 30.7379C18.6123 31.7448 19.2677 32.6161 20.14 33.225L20.34 33.355C20.19 34.265 19.96 35.355 19.67 36.565C19.5944 36.8672 19.5883 37.1827 19.6522 37.4876C19.7161 37.7925 19.8483 38.079 20.0389 38.3254C20.2295 38.5718 20.4735 38.7718 20.7526 38.9103C21.0316 39.0488 21.3385 39.1222 21.65 39.125H24.35C25.67 39.125 26.65 37.865 26.33 36.565C26.1002 35.6182 25.9001 34.6644 25.73 33.705L25.67 33.355C26.5874 32.7768 27.292 31.916 27.6775 30.9024C28.063 29.8888 28.1085 28.7773 27.8072 27.7356C27.5058 26.6939 26.874 25.7783 26.0069 25.1271C25.1398 24.4758 24.0844 24.1241 23 24.125V24.125ZM23 26.125C23.634 26.1248 24.2518 26.3256 24.7647 26.6984C25.2775 27.0712 25.6591 27.5969 25.8545 28.2C26.05 28.8031 26.0494 29.4527 25.8528 30.0555C25.6561 30.6582 25.2736 31.1832 24.76 31.555L24.6 31.665C24.2696 31.8731 24.0074 32.1734 23.8457 32.5288C23.684 32.8842 23.6299 33.2792 23.69 33.665C23.85 34.645 24.09 35.785 24.39 37.035C24.4 37.085 24.37 37.125 24.35 37.125H21.65C21.63 37.125 21.6 37.085 21.61 37.035C21.91 35.785 22.15 34.635 22.31 33.675C22.3678 33.3142 22.3256 32.9446 22.1881 32.6061C22.0506 32.2676 21.823 31.9733 21.53 31.755L21.4 31.665C20.8487 31.3185 20.4252 30.8022 20.1932 30.1938C19.9613 29.5854 19.9335 28.9181 20.1142 28.2926C20.2948 27.6671 20.6741 27.1173 21.1947 26.7263C21.7152 26.3353 22.3489 26.1242 23 26.125ZM12 12.565V18.125H9C8.20435 18.125 7.44129 18.4411 6.87868 19.0037C6.31607 19.5663 6 20.3294 6 21.125V42.125C6 42.9206 6.31607 43.6837 6.87868 44.2463C7.44129 44.8089 8.20435 45.125 9 45.125H37C37.7956 45.125 38.5587 44.8089 39.1213 44.2463C39.6839 43.6837 40 42.9206 40 42.125V21.125C40 20.3294 39.6839 19.5663 39.1213 19.0037C38.5587 18.4411 37.7956 18.125 37 18.125H34V12.565C34 6.325 29.36 1.125 23 1.125C16.64 1.125 12 6.315 12 12.565ZM23 3.125C28.14 3.125 32 7.305 32 12.565V18.125H14V12.565C14 7.305 17.86 3.125 23 3.125ZM9 20.125H37C37.2652 20.125 37.5196 20.2304 37.7071 20.4179C37.8946 20.6054 38 20.8598 38 21.125V42.125C38 42.3902 37.8946 42.6446 37.7071 42.8321C37.5196 43.0196 37.2652 43.125 37 43.125H9C8.73478 43.125 8.48043 43.0196 8.29289 42.8321C8.10536 42.6446 8 42.3902 8 42.125V21.125C8 20.8598 8.10536 20.6054 8.29289 20.4179C8.48043 20.2304 8.73478 20.125 9 20.125V20.125Z" fill="#232629"/>
</g>
<defs>
<clipPath id="clip0_1_346">
<rect width="48" height="48" fill="white" transform="translate(0 0.125)"/>
</clipPath>
</defs>
</svg>
