<svg width="154" height="31" viewBox="0 0 154 31" fill="none" xmlns="http://www.w3.org/2000/svg">
<g clip-path="url(#clip0_1_325)">
<path d="M21 27.7812V19.7812H24V30.7812H0V19.7812H3V27.7812H21Z" fill="#BCBBBB"/>
<path d="M5.4 19.8814L18.96 21.8414L19.13 19.4614L5.87 16.9114L5.4 19.8814V19.8814ZM7.2 13.0814L19.2 18.6814L20.3 16.2814L8.3 10.6814L7.2 13.0814V13.0814ZM10.6 7.18145L20.8 15.6814L22.5 13.6814L12.3 5.18145L10.6 7.18145V7.18145ZM17.1 0.981445L15 2.58145L22.9 13.1814L25 11.5814L17.1 0.981445ZM5 25.7814H19V22.7814H5V25.7814Z" fill="#F48024"/>
<path d="M38 11.7812H39V24.7812H38V11.7812Z" fill="#D6D9DC"/>
<path d="M59.58 20.2517H57.83C57.7426 20.2509 57.6578 20.2819 57.5916 20.3389C57.5254 20.396 57.4821 20.4752 57.47 20.5617C57.39 20.9117 57.25 21.2617 57.07 21.5217C56.8991 21.7725 56.6734 21.9811 56.41 22.1317C56.1294 22.2893 55.8117 22.3687 55.49 22.3617C55.2266 22.3716 54.964 22.3259 54.7194 22.2277C54.4748 22.1295 54.2535 21.981 54.07 21.7917C53.97 21.6917 53.9 21.5617 53.84 21.4517C53.8215 21.411 53.8015 21.371 53.78 21.3317C53.72 21.2217 53.68 21.0817 53.65 20.9217L53.59 20.7217L53.49 19.7617L53.47 19.2417L53.45 18.2617C53.45 17.6117 53.45 17.1117 53.48 16.7617C53.48 16.4217 53.52 16.1117 53.59 15.8117C53.6192 15.5961 53.6834 15.3867 53.78 15.1917C53.8632 14.9921 53.9858 14.8113 54.1404 14.6601C54.2951 14.5089 54.4786 14.3904 54.68 14.3117C54.94 14.2017 55.2 14.1617 55.49 14.1617C56 14.1617 56.44 14.3117 56.77 14.6217C57.1 14.9217 57.32 15.3517 57.47 15.9217C57.5 16.1217 57.65 16.2217 57.83 16.2217H59.62C59.73 16.2217 59.84 16.1917 59.92 16.0817C59.9595 16.0418 59.987 15.9916 59.9994 15.9368C60.0118 15.882 60.0085 15.8248 59.99 15.7717C59.8394 14.6466 59.3104 13.6063 58.49 12.8217C57.6774 12.1283 56.638 11.7581 55.57 11.7817C54.9528 11.7791 54.3412 11.898 53.77 12.1317C53.1696 12.3189 52.6307 12.6643 52.21 13.1317C51.6799 13.7275 51.3145 14.4514 51.15 15.2317C51.07 15.6117 51.04 16.0317 51 16.4617V18.2217C51 19.1817 51.04 19.9117 51.07 20.4517C51.1364 21.5224 51.5468 22.5431 52.24 23.3617C52.8107 23.9444 53.5141 24.3802 54.29 24.6317C54.65 24.7417 55.09 24.7817 55.49 24.7817C56.04 24.7817 56.59 24.7017 57.06 24.5117C58.0738 24.1643 58.9129 23.4364 59.4 22.4817C59.66 21.9817 59.84 21.4117 59.95 20.7517C59.95 20.6417 59.95 20.5217 59.88 20.4517C59.77 20.2917 59.66 20.2517 59.58 20.2517V20.2517ZM70.17 14.5417C69.99 14.0417 69.73 13.5817 69.32 13.1617C68.8935 12.7183 68.3806 12.3671 67.813 12.1298C67.2454 11.8924 66.6352 11.774 66.02 11.7817C65.2018 11.7669 64.3959 11.9822 63.694 12.4029C62.9921 12.8237 62.4225 13.4331 62.05 14.1617C61.9 14.5017 61.75 14.8917 61.68 15.2717C61.61 15.6517 61.58 16.0717 61.54 16.5017C61.5 16.9217 61.5 17.5317 61.5 18.2617C61.5 19.2217 61.54 19.9517 61.57 20.4817C61.6385 21.5538 62.0525 22.5747 62.75 23.3917C63.1673 23.8395 63.674 24.1946 64.2374 24.4341C64.8007 24.6735 65.408 24.792 66.02 24.7817C66.9143 24.7921 67.7906 24.5297 68.532 24.0295C69.2735 23.5292 69.8448 22.8149 70.17 21.9817C70.35 21.5217 70.43 20.9817 70.47 20.4517C70.5 19.9517 70.5 19.1817 70.5 18.2217C70.5 17.2617 70.5 16.5417 70.46 16.0017C70.43 15.5017 70.32 15.0017 70.16 14.5417H70.17ZM68.04 18.2617C68.04 19.0317 68.04 19.6417 68 20.1017C67.97 20.5217 67.93 20.8717 67.82 21.1017C67.74 21.3317 67.63 21.5217 67.45 21.7117C67.2733 21.9156 67.0531 22.0772 66.8056 22.1845C66.5581 22.2919 66.2896 22.3422 66.02 22.3317C65.7543 22.3405 65.4898 22.2933 65.2435 22.1934C64.9971 22.0935 64.7745 21.9431 64.59 21.7517C64.44 21.6017 64.33 21.4517 64.29 21.2917C64.2108 21.1106 64.1602 20.9183 64.14 20.7217L64.04 19.7617L64.02 19.1817C63.9701 18.0577 64.0002 16.9315 64.11 15.8117C64.18 15.3817 64.33 15.0417 64.55 14.7717C64.7 14.5717 64.92 14.4317 65.17 14.3117C65.43 14.2017 65.72 14.1617 65.98 14.1617C66.28 14.1617 66.53 14.2317 66.79 14.3117C67.05 14.4317 67.27 14.5817 67.41 14.7717C67.63 15.0417 67.78 15.3517 67.86 15.7717C68 16.2717 68.04 17.1117 68.04 18.2717V18.2617ZM74.48 22.3217H79.63C79.85 22.3217 80 22.5217 80 22.7217V24.3917C80 24.6217 79.85 24.7817 79.63 24.7817H72.37C72.15 24.7817 72 24.6217 72 24.3917V12.1717C72 11.9417 72.15 11.7817 72.37 11.7817H74.12C74.34 11.7817 74.48 11.9417 74.48 12.1717V22.3217V22.3217ZM88.63 22.3217H83.48V12.1817C83.48 11.9517 83.34 11.7917 83.12 11.7917H81.37C81.15 11.7917 81 11.9517 81 12.1817V24.4017C81 24.6317 81.15 24.7917 81.37 24.7917H88.63C88.85 24.7917 89 24.6317 89 24.4017V22.7217C89 22.5217 88.82 22.3317 88.63 22.3317V22.3217ZM91.36 11.7817H98.64C98.82 11.7817 99 11.9417 99 12.1717V13.8117C99 14.0417 98.85 14.2017 98.64 14.2017H93.44V17.0117H97.8C98.02 17.0117 98.16 17.1717 98.16 17.4117V19.0417C98.16 19.2817 98.02 19.4417 97.8 19.4417H93.44V22.3217H98.64C98.85 22.3217 99 22.4817 99 22.7217V24.3917C99 24.6217 98.85 24.7817 98.64 24.7817H91.36C91.15 24.7817 91 24.6217 91 24.3917V12.1717C91 11.9417 91.15 11.7817 91.36 11.7817ZM108.58 20.1917H106.82C106.734 20.1905 106.651 20.2201 106.585 20.2751C106.518 20.3302 106.474 20.407 106.46 20.4917C106.38 20.8417 106.24 21.1917 106.06 21.4517C105.86 21.7217 105.65 21.9117 105.39 22.0717C105.14 22.2217 104.81 22.2917 104.47 22.2917C104.205 22.3017 103.941 22.2562 103.695 22.158C103.448 22.0599 103.225 21.9113 103.04 21.7217C102.94 21.6217 102.87 21.4917 102.82 21.3817C102.731 21.2141 102.664 21.0361 102.62 20.8517L102.57 20.6517C102.53 20.3817 102.49 20.0417 102.46 19.6917C102.46 19.5517 102.46 19.3817 102.44 19.1817L102.42 18.2017C102.42 17.5517 102.42 17.0617 102.46 16.7117C102.457 16.1739 102.559 15.6405 102.76 15.1417C102.82 14.9917 102.93 14.8417 103.04 14.7217C103.23 14.5317 103.41 14.3817 103.67 14.3017C103.92 14.1917 104.18 14.1517 104.47 14.1517C104.99 14.1517 105.43 14.3017 105.76 14.6117C106.09 14.9117 106.31 15.3417 106.46 15.9117C106.49 16.1117 106.64 16.2117 106.82 16.2117H108.62C108.72 16.2117 108.84 16.1817 108.92 16.0617C108.99 15.9917 109.02 15.8717 108.99 15.7617C108.841 14.6362 108.312 13.5953 107.49 12.8117C106.669 12.1205 105.623 11.7541 104.55 11.7817C103.73 11.7707 102.922 11.9861 102.217 12.4043C101.511 12.8224 100.934 13.4271 100.55 14.1517C100.215 14.8828 100.041 15.6774 100.04 16.4817C100 16.9017 100 17.5217 100 18.2417C100 19.2017 100.04 19.9217 100.07 20.4617C100.11 20.9917 100.22 21.4917 100.4 21.9917C100.59 22.4917 100.88 22.9117 101.25 23.3717C101.822 23.9505 102.525 24.3827 103.3 24.6317C103.67 24.7417 104.1 24.7817 104.51 24.7817C105.06 24.7817 105.61 24.7017 106.09 24.5117C107.109 24.1694 107.953 23.4403 108.44 22.4817C108.69 21.9817 108.88 21.4217 108.99 20.7717C108.99 20.6517 108.99 20.5417 108.91 20.4617C108.81 20.2317 108.69 20.1917 108.58 20.1917V20.1917ZM110.38 11.7817H118.66C118.85 11.7817 119.03 11.9417 119 12.1717V13.8517C119 14.0817 118.84 14.2417 118.62 14.2417H115.76V24.3817C115.76 24.6117 115.61 24.7717 115.38 24.7717H113.61C113.39 24.7717 113.24 24.6117 113.24 24.3817V14.2417H110.38C110.15 14.2417 110 14.0817 110 13.8417V12.1817C110 11.9517 110.15 11.7917 110.38 11.7917V11.7817ZM122.63 11.7817H120.87C120.65 11.7817 120.5 11.9417 120.5 12.1717V24.3917C120.5 24.6217 120.65 24.7817 120.87 24.7817H122.63C122.85 24.7817 123 24.6217 123 24.3917V12.1717C123 11.9417 122.85 11.7817 122.63 11.7817ZM132.21 11.7817H134.11C134.21 11.7817 134.33 11.8217 134.45 11.9417C134.48 12.0517 134.52 12.1717 134.48 12.2917L130.55 24.5117C130.529 24.5868 130.485 24.6534 130.424 24.7018C130.363 24.7503 130.288 24.7783 130.21 24.7817H128.81C128.61 24.7817 128.46 24.6617 128.43 24.5117L124.53 12.2917C124.49 12.1717 124.49 12.0117 124.56 11.9417C124.64 11.8617 124.76 11.7817 124.86 11.7817H126.72C126.92 11.7817 127.06 11.9017 127.1 12.0517L129.45 19.7817L131.83 12.0517C131.91 11.9017 132.06 11.7817 132.21 11.7817V11.7817ZM143.14 11.7817H135.86C135.64 11.7817 135.5 11.9417 135.5 12.1717V24.3917C135.5 24.6217 135.65 24.7817 135.86 24.7817H143.14C143.36 24.7817 143.5 24.6217 143.5 24.3917V22.7117C143.5 22.4817 143.35 22.3217 143.14 22.3217H137.94V19.4317H142.3C142.52 19.4317 142.66 19.2817 142.66 19.0417V17.4017C142.66 17.1717 142.52 17.0117 142.3 17.0117H137.94V14.2017H143.14C143.36 14.2017 143.5 14.0417 143.5 13.8117V12.1717C143.5 11.9417 143.35 11.7817 143.14 11.7817V11.7817ZM151.43 17.4317C151.8 17.5817 152.13 17.7817 152.39 18.0517C152.754 18.4158 153.039 18.85 153.23 19.3278C153.421 19.8057 153.513 20.3173 153.5 20.8317C153.52 21.3824 153.413 21.9302 153.187 22.4329C152.962 22.9357 152.624 23.3801 152.2 23.7317C151.272 24.4263 150.139 24.7922 148.98 24.7717C148.15 24.795 147.323 24.6663 146.54 24.3917C145.84 24.1217 145.2 23.6917 144.61 23.0817C144.574 23.0469 144.545 23.0049 144.526 22.9584C144.507 22.9119 144.498 22.8619 144.5 22.8117C144.5 22.6917 144.54 22.6117 144.61 22.5417L145.8 21.3417C145.832 21.3035 145.871 21.2728 145.916 21.2521C145.961 21.2313 146.01 21.2209 146.06 21.2217C146.16 21.2217 146.24 21.2617 146.31 21.3417C146.57 21.6117 146.83 21.8017 147.09 21.9617C147.688 22.2641 148.35 22.4217 149.02 22.4217C149.569 22.4458 150.112 22.2953 150.57 21.9917C150.91 21.7617 151.06 21.4117 151.06 20.9517C151.06 20.5217 150.94 20.1817 150.72 19.9817C150.635 19.8485 150.503 19.7521 150.35 19.7117L150.28 19.6917C150.12 19.6517 149.9 19.5917 149.65 19.5617L148.28 19.3617C147.381 19.273 146.535 18.8939 145.87 18.2817C145.542 17.9359 145.288 17.5271 145.123 17.0802C144.958 16.6333 144.886 16.1575 144.91 15.6817C144.898 14.9675 145.078 14.2631 145.43 13.6417C145.76 13.0617 146.28 12.5517 146.91 12.2417C147.54 11.9417 148.28 11.7817 149.13 11.7817C149.862 11.7662 150.591 11.8849 151.28 12.1317C151.87 12.3617 152.46 12.7517 152.98 13.2517C153.06 13.3317 153.09 13.4017 153.09 13.5217C153.09 13.6017 153.06 13.7217 152.99 13.7917L151.83 14.9517C151.797 14.9881 151.757 15.0173 151.712 15.0372C151.668 15.0571 151.619 15.0674 151.57 15.0674C151.521 15.0674 151.472 15.0571 151.428 15.0372C151.383 15.0173 151.343 14.9881 151.31 14.9517C151.087 14.7204 150.823 14.5337 150.53 14.4017C150.336 14.2963 150.127 14.222 149.91 14.1817C149.612 14.132 149.312 14.1053 149.01 14.1017C148.65 14.1017 148.31 14.1817 148.06 14.3017C147.83 14.4117 147.65 14.5717 147.5 14.8017C147.377 15.0398 147.312 15.3037 147.31 15.5717C147.31 15.9617 147.39 16.2317 147.61 16.4217C147.68 16.5017 147.87 16.6217 148.06 16.6917C148.28 16.8117 148.5 16.8517 148.72 16.8917L150.06 17.0917C150.61 17.1617 151.06 17.2717 151.43 17.4317V17.4317Z" fill="#232629"/>
</g>
<defs>
<clipPath id="clip0_1_325">
<rect width="154" height="30" fill="white" transform="translate(0 0.78125)"/>
</clipPath>
</defs>
</svg>
