<svg width="188" height="38" viewBox="0 0 188 38" fill="none" xmlns="http://www.w3.org/2000/svg">
<g clip-path="url(#clip0_1_423)">
<path d="M42.5 23.0469L40.3 22.8468C38.6 22.7468 38 22.0468 38 20.8468C38 19.4468 39 18.6469 41 18.6469C42.3 18.5469 43.6 18.9469 44.6 19.7469L45.9 18.4468C44.5 17.4468 42.8 16.9469 41.1 17.0469C38.2 17.0469 36.2 18.5468 36.2 20.9468C36.2 23.1468 37.6 24.3469 40.2 24.5469L42.4 24.7469C44 24.8469 44.6 25.5469 44.6 26.7469C44.6 28.3469 43.2 29.1469 41 29.1469C39.4 29.2469 37.9 28.6469 36.8 27.5469L35.5 28.8468C37 30.2468 39 30.8469 41 30.7469C44.2 30.7469 46.5 29.2469 46.5 26.6469C46.5 24.0469 44.9 23.2469 42.5 23.0469ZM58.3 16.9468C56.1 16.9468 54.8 17.3468 53.6 18.8468L54.9 20.1469C55.7 19.0469 57 18.4469 58.3 18.6469C60.8 18.6469 61.7 19.6469 61.7 21.5469V22.8468H57.7C54.7 22.8468 53.1 24.3469 53.1 26.7469C53.1 27.7469 53.4 28.7468 54.1 29.4468C54.9 30.3468 56 30.6469 57.9 30.6469C59.3 30.7469 60.8 30.2469 61.8 29.2469V30.5469H63.8V21.4468C63.7 18.5468 61.9 16.9468 58.3 16.9468V16.9468ZM61.7 25.8468C61.8 26.6468 61.6 27.5469 61 28.1469C60.5862 28.491 60.1072 28.748 59.5918 28.9027C59.0763 29.0573 58.5349 29.1064 58 29.0469C55.9 29.0469 54.9 28.3469 54.9 26.7469C54.9 25.1469 55.9 24.3468 57.9 24.3468H61.7V25.8468V25.8468ZM71.4 18.7469C72.6 18.7469 73.8 19.2469 74.5 20.2469L75.8 18.9468C75.2724 18.2946 74.6 17.7743 73.8363 17.4271C73.0725 17.0799 72.2384 16.9155 71.4 16.9468C68 16.9468 65.5 19.2468 65.5 23.8468C65.5 28.4468 68.1 30.7469 71.4 30.7469C73.1 30.8469 74.7 30.0469 75.8 28.7469L74.5 27.4468C73.8 28.4468 72.6 28.9468 71.4 28.9468C70.2 29.0468 69 28.4468 68.3 27.4468C67.6 26.3468 67.3 25.1468 67.4 23.8468C67.3 22.5468 67.6 21.3469 68.3 20.2469C69 19.2469 70.2 18.6469 71.4 18.7469V18.7469ZM88.2 17.1469H85.8L79.7 23.0469V11.1469H77.7V30.5469H79.7V25.6469L82.1 23.2469L86.6 30.5469H89L83.4 21.9468L88.2 17.1469V17.1469ZM97.4 16.9869C95.8 16.8869 94.2 17.4868 93.1 18.6868C91.8 19.9868 91.5 21.5869 91.5 24.0869C91.5 26.5869 91.8 28.1869 93.1 29.4869C94.2 30.5869 95.8 31.1868 97.4 31.1868C99 31.2868 100.6 30.6869 101.7 29.4869C103 28.1869 103.3 26.5869 103.3 24.0869C103.3 21.5869 103 19.9868 101.7 18.6868C101.155 18.1017 100.486 17.6454 99.7419 17.3513C98.9981 17.0573 98.198 16.9327 97.4 16.9869V16.9869ZM99.1 27.4869C98.2 28.2869 96.8 28.2869 95.9 27.4869C95.2 26.7869 95.1 25.4869 95.1 24.0869C95.1 22.6869 95.2 21.3868 95.9 20.6868C96.8 19.8868 98.2 19.8868 99.1 20.6868C99.8 21.3868 99.9 22.5869 99.9 24.0869C99.9 25.5869 99.8 26.7869 99.1 27.4869ZM112.7 17.0869L109.9 25.6868L107.1 17.0869H103.4L108.6 31.0869H111.3L116.4 17.0869H112.7ZM122.3 16.9869C118.7 16.9869 116.2 19.5869 116.2 24.0869C116.2 29.7869 119.4 31.2868 122.7 31.2868C124.7 31.3868 126.7 30.5869 128 29.0869L125.9 26.9869C125.1 27.8869 123.9 28.3868 122.7 28.2868C121.1 28.3868 119.7 27.1869 119.6 25.5869V25.1868H128.3V23.5869C128.4 19.7869 126.2 16.9869 122.3 16.9869V16.9869ZM119.6 22.7868C119.6 22.2868 119.7 21.7868 119.9 21.2868C120.3 20.3868 121.2 19.8869 122.2 19.8869C123.2 19.7869 124.1 20.3868 124.5 21.2868C124.7 21.7868 124.8 22.2868 124.8 22.7868H119.6V22.7868ZM132.93 18.4869V17.1868H129.53V31.1868H133.03V22.7868C132.93 21.4869 133.83 20.3868 135.13 20.1868H135.33C136.03 20.1868 136.73 20.4869 137.13 20.9869L139.73 18.3869C139.312 17.9369 138.799 17.5865 138.228 17.3615C137.657 17.1365 137.042 17.0427 136.43 17.0869C135.13 16.9869 133.83 17.4869 132.93 18.4869V18.4869ZM140.53 15.6869V31.0869H144.03V20.0869H146.63V17.3869H144.03V15.8869C143.93 15.2869 144.33 14.6869 144.93 14.5869H146.53V11.5869H144.53C144.018 11.5735 143.508 11.6613 143.03 11.8451C142.551 12.0289 142.114 12.3051 141.743 12.658C141.371 13.0109 141.073 13.4336 140.865 13.9018C140.657 14.37 140.543 14.8746 140.53 15.3869V15.6869V15.6869ZM160.8 16.9869C159.2 16.8869 157.6 17.4868 156.5 18.6868C155.2 19.9868 154.9 21.5869 154.9 24.0869C154.9 26.5869 155.2 28.1869 156.5 29.4869C157.6 30.5869 159.2 31.1868 160.8 31.1868C162.4 31.2868 164 30.6869 165.1 29.4869C166.4 28.1869 166.7 26.5869 166.7 24.0869C166.7 21.5869 166.4 19.9868 165.1 18.6868C164.555 18.1017 163.886 17.6454 163.142 17.3513C162.398 17.0573 161.598 16.9327 160.8 16.9869V16.9869ZM162.5 27.4869C161.6 28.2869 160.2 28.2869 159.3 27.4869C158.6 26.7869 158.5 25.4869 158.5 24.0869C158.5 22.6869 158.6 21.3868 159.3 20.6868C160.2 19.8868 161.6 19.8868 162.5 20.6868C163.2 21.3868 163.3 22.5869 163.3 24.0869C163.3 25.5869 163.2 26.7869 162.5 27.4869ZM183.2 17.0869L180.9 25.6868L178 17.0869H175.5L172.7 25.7868L170.4 17.1868H166.7L171 31.1868H173.9L176.8 22.3869L179.7 31.1868H182.7L187 17.1868L183.2 17.0869V17.0869ZM151.98 26.8869V11.6869H148.48V27.0869C148.453 27.586 148.525 28.0856 148.691 28.557C148.858 29.0284 149.116 29.4623 149.45 29.8339C149.784 30.2055 150.189 30.5074 150.64 30.7224C151.091 30.9374 151.581 31.0613 152.08 31.0869H154.58V28.0869H153.28C152.68 28.1869 152.18 27.8868 151.98 27.2868V26.8869V26.8869ZM53.2 17.4468H49.5V13.0469H47.5V26.9468C47.5 28.9468 48.6 30.5469 50.9 30.5469H52.3V28.8468H51.3C50 28.8468 49.5 28.1468 49.5 26.8468V19.1469H51.4L53.2 17.4468V17.4468Z" fill="#232629"/>
<path d="M26.5 33.0469V24.0469H30.5V37.0469H0.5V24.0469H4.5V33.0469H26.5Z" fill="#BCBBBB"/>
<path d="M23.6 26.0369L24.28 23.0869L8.18 19.7369L7.5 23.0469L23.6 26.0369V26.0369ZM9.6 15.2469L24.6 22.2469L26 19.2469L11 12.2469L9.6 15.2469ZM13.8 7.84688L26.5 18.4469L28.6 15.9469L15.9 5.34688L13.8 7.84688V7.84688ZM22 0.046875L19.3 2.04688L29.2 15.3469L31.9 13.3469L22 0.046875ZM7.5 30.0469H23.5V27.0469H7.5V30.0469Z" fill="#F48024"/>
</g>
<defs>
<clipPath id="clip0_1_423">
<rect width="187" height="37" fill="white" transform="translate(0.5 0.046875)"/>
</clipPath>
</defs>
</svg>
