<svg width="96" height="96" viewBox="0 0 96 96" fill="none" xmlns="http://www.w3.org/2000/svg">
<g clip-path="url(#clip0_1_41)">
<path opacity="0.2" d="M78.2 14.3602C78.1573 13.9512 78.2616 13.5404 78.4944 13.2013C78.7271 12.8623 79.073 12.6173 79.47 12.5102C81.9642 11.7451 84.5314 11.2424 87.13 11.0102C88.22 10.9202 89.11 11.8102 89.03 12.9002C88.82 15.5002 88.24 18.0902 87.47 20.7002C87.3746 21.0675 87.1597 21.3926 86.8591 21.6244C86.5586 21.8561 86.1895 21.9813 85.81 21.9802C81.54 21.8202 78.73 18.4202 78.19 14.3602H78.2ZM34.55 77.7702L38.1 74.9302L28.1 63.9302L24.74 66.6202C23.85 67.3202 23.74 68.6402 24.51 69.4802L31.85 77.5602C32.55 78.3302 33.73 78.4202 34.55 77.7702V77.7702ZM70.1 37.9302C71.9565 37.9302 73.737 37.1927 75.0498 35.8799C76.3625 34.5672 77.1 32.7867 77.1 30.9302C77.1 29.0737 76.3625 27.2932 75.0498 25.9804C73.737 24.6677 71.9565 23.9302 70.1 23.9302C68.2435 23.9302 66.463 24.6677 65.1503 25.9804C63.8375 27.2932 63.1 29.0737 63.1 30.9302C63.1 32.7867 63.8375 34.5672 65.1503 35.8799C66.463 37.1927 68.2435 37.9302 70.1 37.9302ZM63.1 44.9302C63.1 45.8494 62.9189 46.7597 62.5672 47.609C62.2154 48.4582 61.6998 49.2299 61.0498 49.8799C60.3997 50.5299 59.6281 51.0456 58.7788 51.3973C57.9295 51.7491 57.0193 51.9302 56.1 51.9302C55.1807 51.9302 54.2705 51.7491 53.4212 51.3973C52.5719 51.0456 51.8003 50.5299 51.1503 49.8799C50.5002 49.2299 49.9846 48.4582 49.6328 47.609C49.2811 46.7597 49.1 45.8494 49.1 44.9302C49.1 43.0737 49.8375 41.2932 51.1503 39.9804C52.463 38.6677 54.2435 37.9302 56.1 37.9302C57.9565 37.9302 59.737 38.6677 61.0498 39.9804C62.3625 41.2932 63.1 43.0737 63.1 44.9302Z" fill="#9FA6AD"/>
<path d="M75.5 26.9999C75.5 28.8564 74.7625 30.6368 73.4497 31.9496C72.137 33.2624 70.3565 33.9999 68.5 33.9999C66.6435 33.9999 64.863 33.2624 63.5503 31.9496C62.2375 30.6368 61.5 28.8564 61.5 26.9999C61.5 25.1433 62.2375 23.3629 63.5503 22.0501C64.863 20.7374 66.6435 19.9999 68.5 19.9999C70.3565 19.9999 72.137 20.7374 73.4497 22.0501C74.7625 23.3629 75.5 25.1433 75.5 26.9999V26.9999ZM68.5 30.9999C69.5609 30.9999 70.5783 30.5784 71.3284 29.8283C72.0786 29.0781 72.5 28.0607 72.5 26.9999C72.5 25.939 72.0786 24.9216 71.3284 24.1714C70.5783 23.4213 69.5609 22.9999 68.5 22.9999C67.4391 22.9999 66.4217 23.4213 65.6716 24.1714C64.9214 24.9216 64.5 25.939 64.5 26.9999C64.5 28.0607 64.9214 29.0781 65.6716 29.8283C66.4217 30.5784 67.4391 30.9999 68.5 30.9999ZM54.5 47.9999C56.3565 47.9999 58.137 47.2624 59.4497 45.9496C60.7625 44.6368 61.5 42.8564 61.5 40.9999C61.5 39.1433 60.7625 37.3629 59.4497 36.0501C58.137 34.7374 56.3565 33.9999 54.5 33.9999C52.6435 33.9999 50.863 34.7374 49.5503 36.0501C48.2375 37.3629 47.5 39.1433 47.5 40.9999C47.5 42.8564 48.2375 44.6368 49.5503 45.9496C50.863 47.2624 52.6435 47.9999 54.5 47.9999ZM58.5 40.9999C58.5 42.0607 58.0786 43.0781 57.3284 43.8283C56.5783 44.5784 55.5609 44.9999 54.5 44.9999C53.4391 44.9999 52.4217 44.5784 51.6716 43.8283C50.9214 43.0781 50.5 42.0607 50.5 40.9999C50.5 39.939 50.9214 38.9216 51.6716 38.1714C52.4217 37.4213 53.4391 36.9999 54.5 36.9999C55.5609 36.9999 56.5783 37.4213 57.3284 38.1714C58.0786 38.9216 58.5 39.939 58.5 40.9999V40.9999ZM27.21 70.4099L30.14 73.6399C30.7345 74.2933 31.5559 74.6954 32.4367 74.7642C33.3174 74.833 34.1913 74.5632 34.88 74.0099L37.7 71.7599C38.65 72.0999 39.73 72.0099 40.65 71.4299C41.45 70.9199 42.6 70.1699 44 69.2299V77.5199C44 80.5399 47.6 82.1199 49.82 80.0799L58.07 72.5199C58.5821 72.0457 58.9408 71.4293 59.1 70.7499L62.94 54.4199C64.64 52.8899 66.34 51.2899 68.02 49.6199C79.28 38.4199 90.06 23.7899 90.94 8.05986C90.9661 7.5934 90.8934 7.12669 90.7267 6.69024C90.56 6.2538 90.3031 5.85744 89.9728 5.52709C89.6424 5.19674 89.2461 4.93983 88.8096 4.77316C88.3732 4.60648 87.9065 4.5338 87.44 4.55986C71.73 5.41986 57.06 16.0299 45.85 27.0999C44.0785 28.8595 42.3481 30.66 40.66 32.4999C40.4785 32.4836 40.2955 32.5005 40.12 32.5499L21.77 37.3799C21.03 37.5799 20.37 38.0099 19.9 38.6299L14.72 45.4299C14.329 45.9442 14.0893 46.5576 14.028 47.2008C13.9668 47.844 14.0863 48.4916 14.3732 49.0705C14.6601 49.6495 15.1029 50.1368 15.6518 50.4777C16.2007 50.8186 16.8339 50.9994 17.48 50.9999H26C25.17 52.2099 24.5 53.1999 24.05 53.9199C23.6349 54.5617 23.4467 55.3241 23.5156 56.0854C23.5845 56.8467 23.9064 57.5629 24.43 58.1199L24.83 58.5499L22.77 60.6099C22.1394 61.241 21.7761 62.0908 21.7556 62.9828C21.7351 63.8748 22.059 64.7404 22.66 65.3999L25.19 68.1899L24.44 68.9399C24.175 69.2242 24.0308 69.6003 24.0376 69.9889C24.0445 70.3775 24.2019 70.7483 24.4768 71.0231C24.7516 71.2979 25.1224 71.4553 25.511 71.4622C25.8996 71.4691 26.2756 71.3248 26.56 71.0599L27.21 70.4099V70.4099ZM87.95 7.89986C87.78 10.7999 87.25 13.6799 86.42 16.5099C84.2817 16.4497 82.2311 15.6471 80.62 14.2399C79.8835 13.6405 79.2742 12.9002 78.8277 12.0622C78.3812 11.2242 78.1066 10.3054 78.02 9.35986C81.1293 8.3631 84.3509 7.75842 87.61 7.55986C87.81 7.55986 87.96 7.70986 87.95 7.89986V7.89986ZM47.96 29.2399C55.83 21.4699 65.16 14.2199 75.11 10.3699C75.5304 12.7666 76.7842 14.9378 78.65 16.4999C80.5605 18.1574 82.9344 19.1872 85.45 19.4499C81.65 29.7399 74.06 39.3799 65.91 47.4799C57.7039 55.5137 48.7008 62.6908 39.04 68.8999C38.89 68.9999 38.67 68.9799 38.51 68.8099L33.83 63.7899L44.56 53.0599C44.825 52.7755 44.9692 52.3994 44.9623 52.0108C44.9555 51.6222 44.7981 51.2514 44.5232 50.9766C44.2484 50.7018 43.8776 50.5444 43.489 50.5375C43.1004 50.5306 42.7243 50.6749 42.44 50.9399L31.78 61.5999L26.62 56.0699C26.5526 56.0028 26.51 55.9148 26.4991 55.8203C26.4882 55.7259 26.5097 55.6305 26.56 55.5499C32.7822 46.0765 39.9525 37.2611 47.96 29.2399V29.2399ZM29.66 63.7199L27.31 66.0699L24.88 63.3799C24.7976 63.2911 24.7526 63.1739 24.7545 63.0528C24.7564 62.9317 24.8049 62.816 24.89 62.7299L26.88 60.7399L29.66 63.7199V63.7199ZM29.33 68.2899L31.7 65.9199L35.34 69.8099L33 71.6699C32.9062 71.7472 32.7861 71.7852 32.6649 71.7759C32.5437 71.7665 32.4308 71.7106 32.35 71.6199L29.32 68.2899H29.33ZM47 67.1499C50.38 64.7499 54.6 61.5899 59.06 57.8099L56.18 70.0599C56.1586 70.1521 56.1098 70.2358 56.04 70.2999L47.79 77.8599C47.7233 77.9219 47.6399 77.9632 47.5501 77.9788C47.4603 77.9943 47.3679 77.9834 47.2842 77.9473C47.2005 77.9113 47.129 77.8517 47.0786 77.7758C47.0281 77.6999 47.0008 77.611 47 77.5199V67.1499ZM37.2 36.4199C34.011 40.1523 30.9784 44.0157 28.11 47.9999H17.48C17.3918 47.9999 17.3055 47.9751 17.2307 47.9284C17.156 47.8817 17.0959 47.8148 17.0573 47.7356C17.0187 47.6563 17.0032 47.5678 17.0125 47.4802C17.0218 47.3925 17.0556 47.3092 17.11 47.2399L22.28 40.4399C22.3464 40.3591 22.4379 40.3028 22.54 40.2799L37.21 36.4199H37.2ZM14.06 81.4399C14.3409 81.7211 14.4987 82.1024 14.4987 82.4999C14.4987 82.8974 14.3409 83.2786 14.06 83.5599L7.06 90.5599C6.77565 90.8248 6.39956 90.9691 6.01095 90.9622C5.62235 90.9553 5.25158 90.7979 4.97675 90.5231C4.70193 90.2483 4.5445 89.8775 4.53765 89.4889C4.53079 89.1003 4.67504 88.7242 4.94 88.4399L11.94 81.4399C12.2212 81.159 12.6025 81.0012 13 81.0012C13.3975 81.0012 13.7787 81.159 14.06 81.4399V81.4399ZM23.06 74.5599C23.325 74.2755 23.4692 73.8994 23.4623 73.5108C23.4555 73.1222 23.2981 72.7514 23.0232 72.4766C22.7484 72.2018 22.3776 72.0444 21.989 72.0375C21.6004 72.0306 21.2243 72.1749 20.94 72.4399L15.94 77.4399C15.675 77.7242 15.5308 78.1003 15.5376 78.4889C15.5445 78.8775 15.7019 79.2483 15.9768 79.5231C16.2516 79.7979 16.6224 79.9553 17.011 79.9622C17.3996 79.9691 17.7756 79.8248 18.06 79.5599L23.06 74.5599ZM16.06 70.4399C16.3409 70.7211 16.4987 71.1024 16.4987 71.4999C16.4987 71.8974 16.3409 72.2786 16.06 72.5599L9.06 79.5599C8.77565 79.8248 8.39956 79.9691 8.01095 79.9622C7.62235 79.9553 7.25158 79.7979 6.97675 79.5231C6.70193 79.2483 6.5445 78.8775 6.53765 78.4889C6.53079 78.1003 6.67504 77.7242 6.94 77.4399L13.94 70.4399C14.2212 70.159 14.6025 70.0012 15 70.0012C15.3975 70.0012 15.7787 70.159 16.06 70.4399V70.4399ZM25.06 82.5599C25.325 82.2755 25.4692 81.8994 25.4623 81.5108C25.4555 81.1222 25.2981 80.7514 25.0232 80.4766C24.7484 80.2018 24.3776 80.0444 23.989 80.0375C23.6004 80.0306 23.2243 80.1749 22.94 80.4399L17.94 85.4399C17.675 85.7242 17.5308 86.1003 17.5376 86.4889C17.5445 86.8775 17.7019 87.2483 17.9768 87.5231C18.2516 87.7979 18.6224 87.9553 19.011 87.9622C19.3996 87.9691 19.7756 87.8248 20.06 87.5599L25.06 82.5599Z" fill="#9FA6AD"/>
</g>
<defs>
<clipPath id="clip0_1_41">
<rect width="96" height="96" fill="white"/>
</clipPath>
</defs>
</svg>
