<svg width="19" height="19" viewBox="0 0 19 19" fill="none" xmlns="http://www.w3.org/2000/svg">
<g clip-path="url(#clip0_1_701)">
<path d="M10.6094 16.6562V12.6562H8.60938V16.6562H2.60938V4.65625C2.60938 3.55625 3.50937 2.65625 4.60938 2.65625H10.6094C11.6994 2.65625 12.6094 3.56625 12.6094 4.65625V6.65625H14.6094C15.6994 6.65625 16.6094 7.56625 16.6094 8.65625V16.6562H10.6094ZM4.60938 4.65625V6.65625H6.60938V4.65625H4.60938ZM4.60938 8.65625V10.6562H6.60938V8.65625H4.60938ZM8.60938 4.65625V6.65625H10.6094V4.65625H8.60938ZM8.60938 8.65625V10.6562H10.6094V8.65625H8.60938ZM4.60938 12.6562V14.6562H6.60938V12.6562H4.60938ZM12.6094 12.6562V14.6562H14.6094V12.6562H12.6094ZM12.6094 8.65625V10.6562H14.6094V8.65625H12.6094Z" fill="white"/>
</g>
<defs>
<clipPath id="clip0_1_701">
<rect width="18" height="18" fill="white" transform="translate(0.609375 0.65625)"/>
</clipPath>
</defs>
</svg>
