<svg width="19" height="19" viewBox="0 0 19 19" fill="none" xmlns="http://www.w3.org/2000/svg">
<g clip-path="url(#clip0_1_706)">
<path d="M17.875 14.5312C17.875 14.9712 17.425 15.5312 16.875 15.5312H9.875C9.60978 15.5312 9.35543 15.4259 9.16789 15.2384C8.98036 15.0508 8.875 14.7965 8.875 14.5312H2.875C2.335 14.5312 1.875 13.9712 1.875 13.5312C1.875 10.9012 4.875 9.53125 4.875 9.53125C4.875 9.53125 5.105 9.13125 4.875 8.53125C4.035 7.91125 3.815 7.94125 3.875 5.53125C3.935 3.11125 5.245 2.53125 6.375 2.53125C7.505 2.53125 8.815 3.11125 8.875 5.53125C8.935 7.94125 8.715 7.91125 7.875 8.53125C7.645 9.12125 7.875 9.53125 7.875 9.53125C7.875 9.53125 9.425 10.2413 10.295 11.6213C11.075 10.9013 11.875 10.5212 11.875 10.5212C11.875 10.5212 12.105 10.1212 11.875 9.52125C11.035 8.91125 10.815 8.94125 10.875 6.52125C10.935 4.11125 12.245 3.52125 13.375 3.52125C14.505 3.52125 15.815 4.11125 15.875 6.52125C15.925 8.94125 15.715 8.91125 14.875 9.52125C14.645 10.1212 14.875 10.5212 14.875 10.5212C14.875 10.5212 17.875 11.9012 17.875 14.5212V14.5312Z" fill="white"/>
</g>
<defs>
<clipPath id="clip0_1_706">
<rect width="18" height="18" fill="white" transform="translate(0.875 0.53125)"/>
</clipPath>
</defs>
</svg>
