<svg width="186" height="38" viewBox="0 0 186 38" fill="none" xmlns="http://www.w3.org/2000/svg">
<g clip-path="url(#clip0_1_503)">
<path d="M26.5 33.2969V24.2969H30.5V37.2969H0.5V24.2969H4.5V33.2969H26.5Z" fill="#BCBBBB"/>
<path d="M23.6 26.2869L24.28 23.3369L8.18 19.9869L7.5 23.2969L23.6 26.2869V26.2869ZM9.6 15.4969L24.6 22.4969L26 19.4969L11 12.4969L9.6 15.4969ZM13.8 8.09688L26.5 18.6969L28.6 16.1969L15.9 5.59688L13.8 8.09688V8.09688ZM22 0.296875L19.3 2.29688L29.2 15.5969L31.9 13.5969L22 0.296875ZM7.5 30.2969H23.5V27.2969H7.5V30.2969Z" fill="#F48024"/>
<path d="M76.01 13.4968H66.01C65.71 13.4968 65.51 13.6968 65.51 13.9968V29.6668C65.51 29.9668 65.71 30.1668 66.01 30.1668H68.41C68.71 30.1668 68.91 29.9668 68.91 29.6668V23.5568H74.91C75.21 23.5568 75.41 23.3568 75.41 23.0568V20.8968C75.41 20.5968 75.21 20.3968 74.91 20.3968H68.91V16.6468H76.06C76.36 16.6468 76.56 16.4468 76.56 16.1468V13.9868C76.51 13.7368 76.26 13.4868 76.01 13.4868V13.4968ZM90.1 16.9968C89.8502 16.3213 89.458 15.7074 88.95 15.1968C88.3599 14.609 87.6571 14.1466 86.8838 13.8373C86.1105 13.528 85.2827 13.3781 84.45 13.3968C83.3539 13.3777 82.273 13.6559 81.3222 14.2017C80.3715 14.7475 79.5863 15.5406 79.05 16.4968C78.85 16.9468 78.65 17.4468 78.55 17.9468C78.45 18.4468 78.4 18.9968 78.35 19.5468C78.3 20.0968 78.3 20.8968 78.3 21.8468C78.3 23.1068 78.35 24.0468 78.4 24.7468C78.45 25.4568 78.6 26.1068 78.85 26.7568C79.1 27.4068 79.5 27.9568 80 28.5568C81.2 29.7568 82.7 30.3568 84.45 30.3568C85.6555 30.4103 86.8476 30.0864 87.8603 29.4304C88.8731 28.7744 89.656 27.8188 90.1 26.6968C90.35 26.1068 90.45 25.4068 90.5 24.6968C90.55 24.0568 90.55 23.0568 90.55 21.7968C90.55 20.5468 90.55 19.5968 90.5 18.8968C90.4921 18.2434 90.3562 17.5979 90.1 16.9968V16.9968ZM81.85 18.6468C81.95 18.0968 82.15 17.6468 82.45 17.2968C82.65 17.0468 82.95 16.8468 83.3 16.6968C83.65 16.5468 84.05 16.4968 84.4 16.4968C84.8 16.4968 85.15 16.5968 85.5 16.6968C85.85 16.8468 86.15 17.0468 86.35 17.2968C86.65 17.6468 86.85 18.0468 86.95 18.5968C87.05 19.1968 87.1 20.2968 87.1 21.7968C87.1 22.7968 87.1 23.5968 87.05 24.1968C87.0406 24.6444 86.9561 25.0872 86.8 25.5068C86.7 25.8068 86.55 26.0568 86.3 26.3068C85.8 26.8568 85.15 27.1068 84.35 27.1068C83.9914 27.1182 83.6341 27.0577 83.2992 26.9289C82.9643 26.8001 82.6586 26.6056 82.4 26.3568C82.2 26.1568 82.05 25.9568 82 25.7568C81.95 25.6568 81.85 25.4068 81.8 25.0068L81.65 23.7568C81.65 23.2568 81.6 22.6068 81.6 21.7968C81.7 20.3468 81.75 19.2468 81.85 18.6468V18.6468ZM102.57 23.0568C103.456 22.7054 104.211 22.0875 104.73 21.2886C105.25 20.4896 105.508 19.549 105.47 18.5968C105.511 17.6963 105.292 16.803 104.84 16.0231C104.388 15.2431 103.722 14.6093 102.92 14.1968C102.059 13.7385 101.095 13.5111 100.12 13.5368H94.02C93.72 13.5368 93.52 13.7368 93.52 14.0368V29.7168C93.52 30.0168 93.72 30.2168 94.02 30.2168H96.42C96.72 30.2168 96.92 30.0168 96.92 29.7168V23.5968H99.07L102.22 29.8968C102.32 30.0568 102.47 30.1968 102.67 30.1968H105.42C105.508 30.1923 105.594 30.1685 105.672 30.127C105.75 30.0855 105.817 30.0274 105.87 29.9568C105.97 29.8068 105.97 29.6068 105.87 29.4568L102.57 23.0468V23.0568ZM96.92 16.6468H99.92C100.62 16.6468 101.12 16.7968 101.52 17.1968C101.92 17.5468 102.07 17.9968 102.07 18.6468C102.07 19.2468 101.87 19.6968 101.52 20.0468C101.12 20.3968 100.62 20.5968 99.92 20.5968H96.92V16.6468ZM124.54 13.4968H113.54C113.24 13.4968 113.04 13.6968 113.04 13.9968V16.1468C113.04 16.4468 113.24 16.6468 113.54 16.6468H117.34V29.6668C117.34 29.9668 117.54 30.1668 117.84 30.1668H120.19C120.49 30.1668 120.69 29.9668 120.69 29.6668V16.6468H124.49C124.79 16.6468 124.99 16.4468 124.99 16.1468V13.9868C125.04 13.7368 124.79 13.4868 124.54 13.4868V13.4968ZM138.02 13.4968H128.02C127.72 13.4968 127.52 13.6968 127.52 13.9968V29.6668C127.52 29.9668 127.72 30.1668 128.02 30.1668H138.02C138.32 30.1668 138.52 29.9668 138.52 29.6668V27.4968C138.52 27.1968 138.32 26.9968 138.02 26.9968H130.87V23.2968H136.87C137.17 23.2968 137.37 23.0968 137.37 22.7968V20.6968C137.37 20.3968 137.17 20.1968 136.87 20.1968H130.87V16.6368H138.02C138.32 16.6368 138.52 16.4368 138.52 16.1368V13.9768C138.52 13.7268 138.27 13.4768 138.02 13.4768V13.4968ZM148.44 13.8368C148.412 13.738 148.354 13.6508 148.273 13.5878C148.192 13.5248 148.093 13.4894 147.99 13.4868H146.09C145.89 13.4868 145.69 13.6368 145.64 13.8368L139.89 29.5168C139.84 29.6668 139.84 29.8168 139.94 29.9668C140.04 30.1168 140.19 30.1668 140.34 30.1668H142.89C143.09 30.1668 143.29 30.0168 143.34 29.8168L144.29 27.0168H149.74L150.69 29.8168C150.74 30.0168 150.94 30.1668 151.14 30.1668H153.69C153.84 30.1668 153.99 30.0668 154.09 29.9668C154.19 29.8168 154.19 29.6668 154.14 29.5168L148.44 13.8368V13.8368ZM148.74 24.0068H145.34L147.09 19.1068L148.74 24.0068V24.0068ZM170.49 13.4968H168.09C167.89 13.4968 167.74 13.5968 167.64 13.7968L163.64 22.5568L159.54 13.7868C159.44 13.5868 159.29 13.4868 159.09 13.4868H156.69C156.39 13.4868 156.19 13.6868 156.19 13.9868V29.6668C156.19 29.9668 156.39 30.1668 156.69 30.1668H159.09C159.39 30.1668 159.59 29.9668 159.59 29.6668V21.3968L162.34 27.0568C162.44 27.2068 162.59 27.3568 162.79 27.3568H164.54C164.74 27.3568 164.89 27.2568 164.99 27.0568L167.64 21.4568V29.7168C167.64 30.0168 167.84 30.2168 168.14 30.2168H170.54C170.84 30.2168 171.04 30.0168 171.04 29.7168V14.0368C170.99 13.7368 170.79 13.4868 170.49 13.4868V13.4968ZM183.94 21.6468C183.565 21.295 183.123 21.0228 182.64 20.8468C182.044 20.6209 181.423 20.4697 180.79 20.3968L178.99 20.1468C178.69 20.0968 178.39 20.0468 178.09 19.8968C177.872 19.8143 177.669 19.696 177.49 19.5468C177.19 19.2968 177.09 18.9468 177.09 18.4468C177.09 18.0468 177.19 17.7468 177.34 17.4468C177.54 17.1468 177.79 16.9468 178.09 16.7968C178.44 16.6468 178.89 16.5468 179.39 16.5468C179.84 16.5468 180.24 16.5968 180.59 16.6468C180.94 16.6968 181.29 16.8468 181.59 16.9968C181.89 17.1468 182.19 17.3468 182.49 17.6468C182.69 17.8468 182.99 17.8468 183.19 17.6468L184.74 16.1468C184.84 16.0468 184.89 15.8968 184.89 15.7968C184.892 15.7311 184.88 15.6656 184.854 15.6052C184.828 15.5447 184.789 15.4906 184.74 15.4468C184.075 14.8164 183.294 14.3207 182.44 13.9868C181.507 13.6678 180.526 13.5155 179.54 13.5368C178.39 13.5368 177.39 13.7368 176.54 14.1368C175.711 14.5276 175.016 15.1536 174.54 15.9368C174.09 16.6968 173.84 17.5968 173.84 18.5968C173.84 19.9968 174.29 21.1468 175.14 21.9568C175.94 22.7068 176.99 23.1568 178.39 23.3568L180.24 23.6068C180.64 23.6568 180.99 23.7568 181.19 23.8068C181.39 23.8568 181.54 23.9568 181.69 24.1568C181.99 24.4068 182.14 24.8568 182.14 25.4068C182.14 26.0068 181.94 26.4568 181.49 26.7568C180.99 27.1068 180.29 27.3068 179.39 27.3068C178.89 27.3068 178.39 27.2568 177.99 27.1568C177.59 27.0568 177.19 26.9068 176.79 26.7068C176.44 26.5068 176.09 26.2568 175.74 25.9068C175.696 25.8578 175.642 25.8189 175.582 25.793C175.521 25.7671 175.456 25.7547 175.39 25.7568C175.324 25.7547 175.259 25.7671 175.198 25.793C175.138 25.8189 175.084 25.8578 175.04 25.9068L173.44 27.4568C173.34 27.5568 173.29 27.6568 173.29 27.8068C173.29 27.9568 173.34 28.0568 173.44 28.1568C174.171 28.9085 175.058 29.489 176.04 29.8568C176.99 30.2168 178.09 30.3568 179.34 30.3568C180.19 30.3568 181.04 30.2568 181.74 30.0168C182.438 29.8261 183.088 29.4907 183.648 29.0324C184.208 28.5742 184.665 28.0033 184.99 27.3568C185.29 26.7068 185.44 26.0068 185.44 25.2568C185.39 23.6568 184.89 22.4568 183.94 21.6568V21.6468Z" fill="#232629"/>
<path d="M47.5 13.2969H48.5V30.2969H47.5V13.2969Z" fill="#D6D9DC"/>
</g>
<defs>
<clipPath id="clip0_1_503">
<rect width="185" height="37" fill="white" transform="translate(0.5 0.296875)"/>
</clipPath>
</defs>
</svg>
