<svg width="18" height="19" viewBox="0 0 18 19" fill="none" xmlns="http://www.w3.org/2000/svg">
<g clip-path="url(#clip0_1_68)">
<path d="M16 1.45312C15.7348 1.45313 15.4804 1.55848 15.2929 1.74602C15.1054 1.93355 15 2.18791 15 2.45312V2.83313L5.3 6.45312C4.91397 6.59732 4.58191 6.85723 4.34921 7.19732C4.11652 7.53741 3.99455 7.94108 4 8.35313V10.5731C3.9986 10.9255 4.09035 11.2721 4.26596 11.5776C4.44156 11.8832 4.69479 12.1369 5 12.3131V13.9631C4.9988 14.8092 5.30411 15.627 5.85943 16.2654C6.41475 16.9037 7.18248 17.3192 8.02057 17.4351C8.85866 17.551 9.71035 17.3594 10.4181 16.8957C11.1258 16.4321 11.6416 15.7278 11.87 14.9131L15 16.0831V16.4531C15 16.7183 15.1054 16.9727 15.2929 17.1602C15.4804 17.3478 15.7348 17.4531 16 17.4531C16.2652 17.4531 16.5196 17.3478 16.7071 17.1602C16.8946 16.9727 17 16.7183 17 16.4531V2.45312C17 2.18791 16.8946 1.93355 16.7071 1.74602C16.5196 1.55848 16.2652 1.45313 16 1.45312ZM6.6 12.9231L10.36 14.3431C10.264 14.8036 10.0006 15.212 9.62082 15.4895C9.24103 15.767 8.77182 15.8937 8.30398 15.8452C7.83614 15.7967 7.40292 15.5763 7.08816 15.2268C6.7734 14.8773 6.59946 14.4235 6.6 13.9531V12.9231ZM2 6.45312C1.73478 6.45312 1.48043 6.55848 1.29289 6.74602C1.10536 6.93355 1 7.18791 1 7.45312V11.4531C1 11.7183 1.10536 11.9727 1.29289 12.1602C1.48043 12.3478 1.73478 12.4531 2 12.4531C2.26522 12.4531 2.51957 12.3478 2.70711 12.1602C2.89464 11.9727 3 11.7183 3 11.4531V7.45312C3 7.18791 2.89464 6.93355 2.70711 6.74602C2.51957 6.55848 2.26522 6.45312 2 6.45312Z" fill="#2F3337"/>
</g>
<defs>
<clipPath id="clip0_1_68">
<rect width="18" height="18" fill="white" transform="translate(0 0.453125)"/>
</clipPath>
</defs>
</svg>
