<svg width="18" height="19" viewBox="0 0 18 19" fill="none" xmlns="http://www.w3.org/2000/svg">
<g clip-path="url(#clip0_1_73)">
<path d="M2 4.82812L9 1.82812L16 4.82812V9.84813C16 14.5181 10.69 17.8281 9 17.8281C7.31 17.8281 2 14.5181 2 9.84813V4.82812ZM8.14 10.0281L7 12.8281H11L9.86 10.0281C9.8391 9.9161 9.85167 9.8004 9.89613 9.69547C9.94059 9.59054 10.015 9.50103 10.11 9.43812C10.67 9.07812 11 8.48813 11 7.82812C11 6.73812 10.06 5.82812 8.98 5.82812C8.45304 5.83339 7.94946 6.04643 7.5787 6.42094C7.20794 6.79544 6.99997 7.30114 7 7.82812C7 8.48813 7.33 9.07812 7.89 9.43812C8.09 9.56812 8.19 9.79812 8.14 10.0281Z" fill="#2F3337"/>
</g>
<defs>
<clipPath id="clip0_1_73">
<rect width="18" height="18" fill="white" transform="translate(0 0.828125)"/>
</clipPath>
</defs>
</svg>
