<svg width="18" height="19" viewBox="0 0 18 19" fill="none" xmlns="http://www.w3.org/2000/svg">
<g clip-path="url(#clip0_1_78)">
<path d="M3 1.20312C2.46957 1.20313 1.96086 1.41384 1.58579 1.78891C1.21071 2.16398 1 2.67269 1 3.20312V4.20312H17V3.20312C17 2.67269 16.7893 2.16398 16.4142 1.78891C16.0391 1.41384 15.5304 1.20313 15 1.20312H3ZM2 5.20312H16V15.2031C16 15.7336 15.7893 16.2423 15.4142 16.6173C15.0391 16.9924 14.5304 17.2031 14 17.2031H4C3.46957 17.2031 2.96086 16.9924 2.58579 16.6173C2.21071 16.2423 2 15.7336 2 15.2031V5.20312ZM6 8.20312C6 8.46834 6.10536 8.7227 6.29289 8.91023C6.48043 9.09777 6.73478 9.20312 7 9.20312H11C11.2652 9.20312 11.5196 9.09777 11.7071 8.91023C11.8946 8.7227 12 8.46834 12 8.20312C12 7.93791 11.8946 7.68355 11.7071 7.49602C11.5196 7.30848 11.2652 7.20312 11 7.20312H7C6.73478 7.20312 6.48043 7.30848 6.29289 7.49602C6.10536 7.68355 6 7.93791 6 8.20312Z" fill="#2F3337"/>
</g>
<defs>
<clipPath id="clip0_1_78">
<rect width="18" height="18" fill="white" transform="translate(0 0.203125)"/>
</clipPath>
</defs>
</svg>
