<svg width="18" height="19" viewBox="0 0 18 19" fill="none" xmlns="http://www.w3.org/2000/svg">
<g clip-path="url(#clip0_1_92)">
<path d="M17 5.53125C16.9987 6.23269 16.8335 6.92412 16.5175 7.55035C16.2015 8.17658 15.7435 8.72027 15.18 9.13802C14.6165 9.55577 13.9632 9.83601 13.2722 9.95638C12.5811 10.0767 11.8715 10.0339 11.2 9.83125L10 11.0312H8V13.0312H6V15.0312H4V17.0312H1V13.5312L8.1 6.43125C7.97044 5.77861 7.98657 5.10542 8.14723 4.45973C8.30789 3.81404 8.60912 3.21179 9.02942 2.69596C9.44972 2.18014 9.97872 1.76347 10.5786 1.47571C11.1786 1.18794 11.8346 1.03618 12.5 1.03125C13.6935 1.03125 14.8381 1.50536 15.682 2.34927C16.5259 3.19318 17 4.33778 17 5.53125V5.53125ZM13 6.53125C13.3978 6.53125 13.7794 6.37321 14.0607 6.09191C14.342 5.81061 14.5 5.42907 14.5 5.03125C14.5 4.63343 14.342 4.25189 14.0607 3.97059C13.7794 3.68929 13.3978 3.53125 13 3.53125C12.6022 3.53125 12.2206 3.68929 11.9393 3.97059C11.658 4.25189 11.5 4.63343 11.5 5.03125C11.5 5.42907 11.658 5.81061 11.9393 6.09191C12.2206 6.37321 12.6022 6.53125 13 6.53125Z" fill="#2F3337"/>
</g>
<defs>
<clipPath id="clip0_1_92">
<rect width="18" height="18" fill="white" transform="translate(0 0.03125)"/>
</clipPath>
</defs>
</svg>
