<svg width="18" height="19" viewBox="0 0 18 19" fill="none" xmlns="http://www.w3.org/2000/svg">
<g clip-path="url(#clip0_1_97)">
<path d="M16 1.40625C15.7348 1.40625 15.4804 1.51161 15.2929 1.69914C15.1054 1.88668 15 2.14103 15 2.40625V2.78625L5.3 6.40625C4.91397 6.55044 4.58191 6.81035 4.34921 7.15045C4.11652 7.49054 3.99455 7.89421 4 8.30625V10.5262C3.9986 10.8787 4.09035 11.2252 4.26596 11.5308C4.44156 11.8363 4.69479 12.09 5 12.2662V13.9163C4.9988 14.7623 5.30411 15.5802 5.85943 16.2185C6.41475 16.8568 7.18248 17.2723 8.02057 17.3882C8.85866 17.5041 9.71035 17.3125 10.4181 16.8489C11.1258 16.3852 11.6416 15.6809 11.87 14.8663L15 16.0363V16.4062C15 16.6715 15.1054 16.9258 15.2929 17.1134C15.4804 17.3009 15.7348 17.4062 16 17.4062C16.2652 17.4062 16.5196 17.3009 16.7071 17.1134C16.8946 16.9258 17 16.6715 17 16.4062V2.40625C17 2.14103 16.8946 1.88668 16.7071 1.69914C16.5196 1.51161 16.2652 1.40625 16 1.40625ZM6.6 12.8763L10.36 14.2963C10.264 14.7567 10.0006 15.1652 9.62082 15.4426C9.24103 15.7201 8.77182 15.8468 8.30398 15.7983C7.83614 15.7498 7.40292 15.5294 7.08816 15.1799C6.7734 14.8304 6.59946 14.3766 6.6 13.9062V12.8763ZM2 6.40625C1.73478 6.40625 1.48043 6.51161 1.29289 6.69914C1.10536 6.88668 1 7.14103 1 7.40625V11.4062C1 11.6715 1.10536 11.9258 1.29289 12.1134C1.48043 12.3009 1.73478 12.4062 2 12.4062C2.26522 12.4062 2.51957 12.3009 2.70711 12.1134C2.89464 11.9258 3 11.6715 3 11.4062V7.40625C3 7.14103 2.89464 6.88668 2.70711 6.69914C2.51957 6.51161 2.26522 6.40625 2 6.40625Z" fill="#2F3337"/>
</g>
<defs>
<clipPath id="clip0_1_97">
<rect width="18" height="18" fill="white" transform="translate(0 0.40625)"/>
</clipPath>
</defs>
</svg>
