<svg width="47" height="47" viewBox="0 0 47 47" fill="none" xmlns="http://www.w3.org/2000/svg">
<path d="M18.5 5.00001C18.2348 5.00001 17.9804 5.10536 17.7929 5.2929C17.6054 5.48044 17.5 5.73479 17.5 6.00001C17.5 6.26522 17.6054 6.51958 17.7929 6.70711C17.9804 6.89465 18.2348 7.00001 18.5 7.00001C19.13 7.00001 19.74 7.05001 20.34 7.15001C20.6026 7.19244 20.8712 7.12883 21.0869 6.97318C21.3026 6.81752 21.4476 6.58257 21.49 6.32001C21.5324 6.05744 21.4688 5.78877 21.3132 5.57311C21.1575 5.35744 20.9226 5.21244 20.66 5.17001C19.9457 5.05599 19.2234 4.99914 18.5 5.00001V5.00001ZM25.52 6.97001C25.4084 6.88808 25.2811 6.8302 25.146 6.80005C25.0109 6.76989 24.871 6.76812 24.7351 6.79483C24.5993 6.82154 24.4705 6.87616 24.3569 6.95523C24.2433 7.0343 24.1473 7.1361 24.0751 7.25418C24.0029 7.37226 23.9559 7.50405 23.9373 7.64121C23.9186 7.77837 23.9286 7.91791 23.9667 8.051C24.0047 8.18409 24.07 8.30783 24.1584 8.41438C24.2467 8.52093 24.3563 8.60798 24.48 8.67001C25.9672 9.57488 27.2295 10.8056 28.1719 12.2693C29.1142 13.7331 29.7119 15.3916 29.92 17.12C29.9689 17.3676 30.1095 17.5876 30.3138 17.7358C30.5181 17.884 30.7709 17.9495 31.0214 17.9191C31.272 17.8887 31.5017 17.7648 31.6647 17.572C31.8277 17.3793 31.9117 17.1321 31.9 16.88C31.6551 14.8533 30.9537 12.9085 29.8486 11.192C28.7435 9.47548 27.2635 8.03195 25.52 6.97001V6.97001ZM18.5 6.34935e-06C15.5866 0.000226646 12.7144 0.688532 10.1173 2.00887C7.52027 3.32922 5.27176 5.24426 3.5549 7.59807C1.83804 9.95188 0.701368 12.6779 0.237447 15.5541C-0.226474 18.4304 -0.00452721 21.3755 0.885213 24.1498C1.77495 26.924 3.30733 29.4489 5.35756 31.5188C7.4078 33.5887 9.91792 35.1452 12.6835 36.0614C15.4491 36.9776 18.392 37.2277 21.2726 36.7913C24.1531 36.3549 26.8899 35.2443 29.26 33.55C29.42 34.12 29.72 34.67 30.16 35.12L40 44.94C40.3162 45.2986 40.7025 45.5887 41.1352 45.7922C41.5678 45.9958 42.0375 46.1085 42.5154 46.1235C42.9933 46.1385 43.4692 46.0555 43.9137 45.8794C44.3583 45.7034 44.762 45.4382 45.1001 45.1001C45.4382 44.762 45.7034 44.3583 45.8794 43.9137C46.0555 43.4692 46.1385 42.9933 46.1235 42.5154C46.1085 42.0375 45.9958 41.5678 45.7922 41.1352C45.5887 40.7025 45.2986 40.3162 44.94 40L35.12 30.18C34.67 29.73 34.12 29.43 33.55 29.28C35.5331 26.5142 36.7148 23.255 36.9652 19.861C37.2156 16.4669 36.5248 13.0696 34.969 10.0427C33.4132 7.01591 31.0527 4.47689 28.147 2.70504C25.2414 0.933195 21.9033 -0.00281278 18.5 6.34935e-06V6.34935e-06ZM2 18.5C2 14.1239 3.73839 9.92709 6.83274 6.83274C9.92709 3.73839 14.1239 2.00001 18.5 2.00001C22.8761 2.00001 27.0729 3.73839 30.1673 6.83274C33.2616 9.92709 35 14.1239 35 18.5C35 22.8761 33.2616 27.0729 30.1673 30.1673C27.0729 33.2616 22.8761 35 18.5 35C14.1239 35 9.92709 33.2616 6.83274 30.1673C3.73839 27.0729 2 22.8761 2 18.5V18.5ZM31.58 33.7C31.4326 33.5627 31.3144 33.3971 31.2324 33.2131C31.1505 33.0291 31.1064 32.8305 31.1028 32.6291C31.0993 32.4276 31.1363 32.2276 31.2118 32.0408C31.2872 31.854 31.3995 31.6844 31.5419 31.5419C31.6844 31.3995 31.854 31.2872 32.0408 31.2118C32.2276 31.1363 32.4276 31.0993 32.629 31.1028C32.8304 31.1064 33.0291 31.1505 33.2131 31.2324C33.3971 31.3144 33.5627 31.4326 33.7 31.58L43.53 41.41C43.6774 41.5473 43.7956 41.7129 43.8776 41.8969C43.9595 42.0809 44.0036 42.2796 44.0072 42.481C44.0107 42.6824 43.9737 42.8824 43.8982 43.0692C43.8228 43.256 43.7105 43.4256 43.5681 43.5681C43.4256 43.7105 43.256 43.8228 43.0692 43.8983C42.8824 43.9737 42.6824 44.0107 42.481 44.0072C42.2795 44.0036 42.0809 43.9596 41.8969 43.8776C41.7129 43.7956 41.5473 43.6774 41.41 43.53L31.58 33.7Z" fill="#F2740D"/>
</svg>
